<?xml version="1.0" encoding="utf-8"?>
<!-- Generator: Adobe Illustrator 23.0.6, SVG Export Plug-In . SVG Version: 6.00 Build 0)  -->
<svg version="1.1" id="Layer_1" xmlns="http://www.w3.org/2000/svg" xmlns:xlink="http://www.w3.org/1999/xlink" x="0px" y="0px"
	 viewBox="0 0 32 32" style="enable-background:new 0 0 32 32;" xml:space="preserve">
<style type="text/css">
	.st0{fill:#4D4848;}
	.st1{fill:#3D3A3A;}
	.st2{fill:#008D7C;}
</style>
<title>Gravity Logo Primary 32px</title>
<path class="st0" d="M4.5,20.4c0.3,0.6,1.3,0.8,2.8,0.7c0.3,0.6,0.7,1.2,1.2,1.7c-4.5,1.2-7.8,1.3-8.4,0c-1-2.2,5.2-7.2,13.9-11.3
	c4.2-2,8.6-3.5,13.2-4.3c-0.5,0.7-0.7,1.6-0.5,2.4c-1.5-0.9-6.6,0.2-12.2,2.8C8.2,15.3,3.8,18.9,4.5,20.4z M27.1,10.6
	c-0.3,0.8-0.7,1.5-1.4,2c0.2,0.6,0.4,1.3,0.5,2c1.1-0.8,2.2-1.6,3.2-2.6C28.4,11.9,27.6,11.4,27.1,10.6z"/>
<circle class="st1" cx="29.9" cy="8.8" r="2.1"/>
<path class="st2" d="M13.3,9.9c2.1-1,4.2-1.8,6.2-2.5c-4.8-1.9-10.2,0.5-12,5.3c-0.1,0.1-0.1,0.3-0.1,0.4
	C9.3,11.9,11.2,10.8,13.3,9.9z"/>
<path class="st2" d="M24,11.1c-3.1,0.5-6,1.5-8.8,2.9c-2.9,1.2-5.5,2.9-7.9,4.9c0.1,0.4,0.3,0.7,0.4,1c2.2,4.7,7.7,6.7,12.4,4.5
	s6.7-7.7,4.5-12.4C24.4,11.7,24.2,11.4,24,11.1z"/>
</svg>
