<svg xmlns="http://www.w3.org/2000/svg" viewBox="0 0 299 34"><title>buildit | wipro digital</title><path id="svg-logo-buildit" d="M12.7 8.5c-.5-.4-1.1-.8-1.8-1-.7-.2-1.5-.4-2.3-.4-1 0-1.9.2-2.7.5-.8.3-1.4.7-1.8 1.2V1h-4v23.4h3.5l.3-1.8c.5.8 1.2 1.3 2 1.7.9.4 1.8.5 2.7.5.8 0 1.6-.1 2.3-.4.7-.3 1.3-.6 1.8-1 1-.8 1.8-1.9 2.3-3.1.5-1.2.7-2.7.7-4.3 0-3.4-1-5.9-3-7.5zm-1.4 9.6c-.1.7-.4 1.4-.9 1.9-.3.4-.7.7-1.1.9-.4.3-1 .4-1.6.4-.5 0-1-.1-1.4-.2-.4-.2-.7-.4-1-.6-.6-.5-1-1.2-1.2-2.1-.2-.9-.3-1.7-.3-2.5 0-.6 0-1.2.1-1.9.1-.6.3-1.2.6-1.8.3-.5.7-1 1.2-1.3.5-.3 1.1-.5 1.9-.5.6 0 1.2.1 1.6.4.4.3.8.6 1.1.9.4.6.7 1.2.9 1.9.1.7.2 1.4.2 2.2.1.9.1 1.6-.1 2.3zM29.1 7.5h4.1v16.9h-3.4l-.3-2.2c-.4.8-1 1.5-1.9 1.9-.9.5-1.8.7-2.9.7-.9 0-1.7-.1-2.4-.4-.7-.3-1.3-.7-1.8-1.2s-.9-1.2-1.2-1.9c-.3-.7-.4-1.6-.4-2.5V7.5H23v10.3c0 1 .2 1.8.6 2.4.4.6 1.2.9 2.3.9.5 0 .9-.1 1.2-.2l.9-.6c.5-.5.8-1 1-1.7.2-.7.2-1.4.2-2.1v-9zM37.6 1h4.3v4.2h-4.3V1zm.1 6.5h4.1v16.9h-4.1V7.5zM52.4 21h.3v3.4c-.4.1-.7.1-.9.2h-.9c-1.4 0-2.5-.4-3.3-1.1-.8-.7-1.3-1.9-1.3-3.5V.9h4.1v18.4c0 .5.1.9.3 1.2.2.3.6.4 1.3.4.1.1.3.1.4.1zM65.8 8.7c-.4-.4-.9-.8-1.7-1.1-.7-.3-1.7-.5-2.7-.5-.9 0-1.6.1-2.3.4-.7.2-1.3.6-1.8 1-2 1.7-3 4.2-3 7.5 0 1.6.2 3 .7 4.3.5 1.2 1.2 2.3 2.3 3.1.5.4 1.1.8 1.8 1 .7.3 1.5.4 2.3.4.9 0 1.8-.2 2.7-.5.9-.4 1.5-.9 2-1.7l.3 1.8h3.5V1h-4.1v7.7zm.2 7.2c0 .6 0 1.2-.1 1.9-.1.6-.3 1.2-.6 1.8-.3.5-.7 1-1.2 1.3-.5.3-1.1.5-1.9.5-.6 0-1.2-.1-1.6-.4-.4-.3-.8-.6-1.1-.9-.4-.6-.7-1.2-.9-1.9-.1-.7-.2-1.5-.2-2.2 0-.7.1-1.5.2-2.2.1-.7.4-1.4.9-1.9.3-.4.7-.7 1.1-.9.4-.3 1-.4 1.6-.4.8 0 1.4.2 1.9.5s.9.8 1.2 1.3c.3.5.5 1.1.6 1.8 0 .5.1 1.1.1 1.7zM74.3 1h4.3v4.2h-4.3V1zm.1 6.5h4.1v16.9h-4.1V7.5zm18.2 13.3v3.4c-1.2.3-2.3.5-3.5.5-1.7 0-3-.5-3.8-1.4-.8-.9-1.3-2.2-1.3-3.8v-8.6h-3.1V7.5H84V3.2l4.1-1v5.3h4.3v3.3H88V19c0 .6.2 1.1.5 1.4.3.3.8.4 1.4.4h1.2c.4.1.9 0 1.5 0z" class="grav-svg-hl-1"/><path id="svg-logo-separator" d="M103 .5h1.5v26.8H103z" class="grav-svg-hl-1"/><path id="svg-logo-wipro" d="M194.2 7.7c-4.8 0-8.7 4-8.7 8.9s3.9 8.9 8.7 8.9 8.7-4 8.7-8.9-3.9-8.9-8.7-8.9m0 13.6c-2.5 0-4.5-2.1-4.5-4.7s2-4.7 4.5-4.7 4.5 2.1 4.5 4.7-2 4.7-4.5 4.7M139.7 8.2h-3.2c-.3 0-.6.2-.6.5l-2.6 8.2-4.5-8.7c-.1-.2-.4-.4-.7-.4h-.3c-.3 0-.6.2-.7.4l-4.5 8.7-2.6-8.2c-.1-.2-.4-.5-.6-.5h-3.2c-.4 0-.6.3-.5.7l5.2 16.2c.1.2.4.5.6.5h.5c.3 0 .6-.2.7-.4l5.3-10.3 5.4 10.3c.1.2.4.4.7.4h.5c.3 0 .6-.2.6-.5l5.2-16.2c-.1-.4-.3-.7-.7-.7m7.5 0H144c-.4 0-.7.3-.7.7v15.4c0 .4.3.7.7.7h3.2c.4 0 .7-.3.7-.7V8.9c0-.4-.3-.7-.7-.7m14.1-.5c-2.2 0-4.2 1-5.7 2.5l-.6-1.6c-.1-.2-.4-.5-.7-.5h-1.5c-.4 0-.7.3-.7.7v24.3c0 .4.3.7.7.7h3.2c.4 0 .7-.3.7-.7v-8.4c1.4.5 2.9.7 4.5.7 4.5 0 8.2-4 8.2-8.9.1-4.8-3.6-8.8-8.1-8.8m-.9 13.6c-1.3 0-2.6-.3-3.6-.9V14c.8-1.3 2.1-2.1 3.6-2.1 2.4 0 4.3 2.1 4.3 4.7s-1.9 4.7-4.3 4.7m21-13.6c-3.1 0-4.9 2.5-4.9 2.5l-.6-1.6c-.1-.2-.4-.5-.7-.5h-1.5c-.4 0-.7.3-.7.7v15.4c0 .4.3.7.7.7h3.2c.4 0 .7-.3.7-.7V13.5c1.9-2.3 4.3-1.5 4.8-1.3.5.2.8 0 1-.4s.8-1.9 1.1-2.5c.3-.6 0-1.6-3.1-1.6M146.2.3c-1.4-.4-2.8.4-3.2 1.8-.4 1.4.4 2.8 1.8 3.2s2.8-.4 3.2-1.8c.4-1.5-.4-2.9-1.8-3.2" class="grav-svg-hl-2"/><path id="svg-logo-digital" d="M222.6 9.9c-.2-.4-.5-.7-.9-1-.4-.3-.8-.5-1.2-.7-.4-.2-.9-.3-1.3-.5-.5-.1-.9-.2-1.4-.2-1 0-1.8.2-2.6.5-.7.3-1.4.7-1.9 1.2-.8.8-1.4 1.8-1.9 3-.4 1.2-.6 2.5-.6 4 0 1.4.2 2.6.6 3.8.4 1.2 1 2.2 1.8 3 .5.6 1.2 1 2 1.3.8.3 1.7.5 2.7.5.9 0 1.9-.2 2.8-.7s1.6-1.1 2.1-1.9l.2 2.1h2.4V1h-2.8v8.9zm-.3 9.2c-.3.9-.7 1.7-1.4 2.3-.3.3-.7.6-1.1.8-.4.2-.9.3-1.5.3-.9 0-1.7-.2-2.3-.6-.6-.4-1.1-.9-1.4-1.5-.3-.6-.6-1.3-.7-2-.1-.7-.2-1.5-.2-2.3 0-.8.1-1.5.2-2.3.1-.7.4-1.4.7-2 .3-.6.8-1.1 1.4-1.5.6-.4 1.4-.6 2.3-.6.6 0 1.1.1 1.5.3.4.2.8.5 1.1.8.7.6 1.2 1.4 1.4 2.3.3.9.4 1.9.4 2.9 0 1.2-.1 2.2-.4 3.1zM230.8 8h2.8v16.4h-2.8V8zm-.2-7h3.2v3.2h-3.2V1zm21.2 22.6c-.6-.7-1.5-1.1-2.5-1.4-1-.2-2-.4-3-.4h-4c-.3 0-.6-.1-.8-.2-.2-.1-.4-.3-.6-.5-.2-.2-.2-.5-.2-.9s.2-.7.5-.9c.3-.2.6-.4.9-.5.5.2 1 .3 1.3.4.4.1.8.1 1.4.1 1.1 0 2.1-.2 2.9-.5.8-.4 1.5-.8 2-1.4.5-.5.8-1.1 1.1-1.8.3-.7.4-1.4.4-2.2 0-.7-.1-1.4-.3-1.9-.2-.6-.4-1-.8-1.5.1-.5.3-.8.7-1.1.4-.3.8-.4 1.3-.4h.6V6.3h-.8c-.8 0-1.5.2-2.1.6-.6.4-1 1-1.3 1.7-.5-.3-1.1-.5-1.7-.7-.6-.2-1.3-.3-2.1-.3-1.1 0-2 .2-2.8.5-.8.3-1.5.8-2 1.4-.5.5-.9 1.1-1.1 1.7-.3.6-.4 1.4-.4 2.3 0 .8.2 1.5.5 2.3.3.8.8 1.4 1.4 1.9-.6.3-1.1.7-1.6 1.3-.4.5-.6 1.2-.6 1.9 0 .6.2 1.2.5 1.7.4.5.8.9 1.4 1.1-.6.3-1.2.8-1.7 1.4-.5.6-.7 1.4-.7 2.2 0 .6.1 1.2.3 1.7.2.5.5.9.8 1.2.4.4.8.7 1.3 1 .5.2 1 .4 1.6.6.5.1 1.1.2 1.7.3.6.1 1.1.1 1.7.1.6 0 1.2 0 1.8-.1l1.8-.3c.6-.1 1.1-.3 1.7-.6.5-.2 1-.6 1.4-1 .4-.4.7-.9 1-1.4.3-.6.4-1.2.4-1.9s-.1-1.3-.4-1.8c-.2-.6-.5-1.1-.9-1.5zM242 10.8c.7-.7 1.6-1 2.7-1 1.2 0 2.1.3 2.7 1 .7.7 1 1.5 1 2.6s-.3 1.9-1 2.6c-.7.7-1.6 1.1-2.7 1.1-1.2 0-2.1-.4-2.7-1.1-.7-.7-1-1.6-1-2.6s.4-1.9 1-2.6zm7.7 17.7c-.3.3-.6.5-.9.6-.4.2-.8.3-1.2.4-.4.1-.8.1-1.2.2h-2.3c-.4 0-.8-.1-1.2-.1-.4-.1-.8-.2-1.1-.3-.4-.2-.7-.4-.9-.6-.5-.5-.7-1-.7-1.7 0-.6.2-1.2.6-1.6.4-.5.9-.8 1.5-1h3.8c.5 0 1 0 1.5.1.5 0 1 .2 1.4.3.4.2.8.4 1 .8.3.3.4.8.4 1.4 0 .5-.3 1.1-.7 1.5zM256 8h2.8v16.4H256V8zm-.2-7h3.2v3.2h-3.2V1zm16 21c.3 0 .6-.1 1-.2v2.4c-.4.1-.8.2-1.3.3-.5.1-1.2.1-1.9.1-.9 0-1.6-.1-2.2-.4-.6-.3-1-.6-1.4-1-.3-.4-.6-.9-.7-1.4-.1-.5-.2-1.1-.2-1.6v-9.8h-3.2V8h3.2V3.8l2.8-.6V8h4.9v2.4h-4.9v9.5c0 .8.2 1.4.5 1.7.4.3.9.5 1.7.5h.9c.2-.1.5-.1.8-.1zm17.6.3h-.2c-.3 0-.5-.1-.7-.2-.2-.2-.2-.4-.2-.9v-7.9c0-.9-.2-1.8-.5-2.5-.4-.9-1-1.7-2-2.3-.9-.6-2.2-.9-3.8-.9-1 0-2 .1-2.9.4-.9.3-1.6.7-2.2 1.3-.4.4-.8.9-1 1.5-.2.6-.4 1.2-.4 2h2.7c0-.8.3-1.4.8-2 .3-.3.7-.5 1.1-.7.5-.2 1.1-.3 1.8-.3s1.2.1 1.6.2c.4.2.8.4 1.1.6.4.3.6.7.7 1.2.1.5.1.9.1 1.3v1.2l-5 .3c-1.1.1-2.1.3-2.8.6-.7.3-1.3.8-1.8 1.2s-.8 1-1 1.6c-.2.6-.3 1.1-.3 1.7 0 .6.1 1.2.4 1.8.2.6.6 1.1 1.1 1.6.5.5 1 .9 1.8 1.2.7.3 1.5.4 2.5.4 1.2 0 2.2-.2 3.2-.7.9-.5 1.6-1.1 2.1-2h.1c0 .7.2 1.3.6 1.8.4.5 1 .7 1.7.7.3 0 .7 0 .9-.1l.9-.3v-2l-.3.1c.1.1 0 .1-.1.1zm-3.8-4.8c0 .7-.1 1.4-.3 2-.2.6-.6 1.2-1.1 1.7-.4.5-.9.8-1.5 1-.6.2-1.2.3-1.8.3-1.2 0-2-.3-2.5-.9-.5-.6-.7-1.2-.7-2 0-.5.1-1 .3-1.3.2-.4.5-.7.8-.9.3-.2.7-.4 1.2-.5.4-.1.9-.2 1.3-.2l4.4-.3v1.1zm13.4 4.6v2.3c-.1 0-.3.1-.5.1-.3.1-.8.1-1.5.1-1.2 0-2.1-.3-2.6-1s-.8-1.7-.8-3V1h2.8v19.4c0 .6.1 1 .3 1.3.2.3.6.4 1.2.4h1.1z" class="grav-svg-hl-3"/></svg>