<?xml version="1.0" encoding="UTF-8" standalone="no"?>
<svg
   xmlns:dc="http://purl.org/dc/elements/1.1/"
   xmlns:cc="http://creativecommons.org/ns#"
   xmlns:rdf="http://www.w3.org/1999/02/22-rdf-syntax-ns#"
   xmlns:svg="http://www.w3.org/2000/svg"
   xmlns="http://www.w3.org/2000/svg"
   height="79"
   width="426"
   aria-labelledby="wipro-title"
   aria-describedby="wipro-desc"
   viewBox="0 0 426 79"
   y="0px"
   x="0px"
   id="wipro-logo"
   version="1.1">
  <metadata
     id="metadata3448">
    <rdf:RDF>
      <cc:Work
         rdf:about="">
        <dc:format>image/svg+xml</dc:format>
        <dc:type
           rdf:resource="http://purl.org/dc/dcmitype/StillImage" />
        <dc:title>wipro digital</dc:title>
      </cc:Work>
    </rdf:RDF>
  </metadata>
  <title id="wipro-title">Wipro Digital</title>
  <desc id="wipro-desc">Wipro Digital logo</desc>
  <path
     d="m 70.885296,0.01181867 c -2.80668,-0.175909 -5.55877,1.62483403 -6.31772,4.53423503 -0.86742,3.180464 1.01099,6.6534883 4.33606,7.5208873 3.18052,0.867399 6.64876,-1.01104 7.51618,-4.3360693 0.86742,-3.180464 -1.01102,-6.653488 -4.33609,-7.52088703 -0.39756,-0.108425 -0.79746,-0.173037 -1.19843,-0.198166 z m 182.053594,4.82676703 0,20.3828283 c -0.57828,-0.867399 -1.15673,-1.589109 -2.02413,-2.31194 -0.86742,-0.722833 -1.73404,-1.302616 -2.74602,-1.736315 -1.01198,-0.4337 -2.02186,-0.720572 -3.03384,-1.009705 -1.15656,-0.289135 -2.17284,-0.434079 -3.18482,-0.434079 -2.31309,0 -4.19129,0.286872 -5.9261,1.009705 -1.59026,0.722832 -3.03497,1.589487 -4.33609,2.746019 -1.8794,1.879364 -3.18253,4.19378 -4.1945,6.940543 -1.01198,2.89133 -1.4438,5.781186 -1.4438,9.106216 0,3.035898 0.43481,5.930096 1.30223,8.676858 0.8674,2.746765 2.31344,4.914911 4.04826,6.794276 1.30112,1.3011 2.74749,2.311002 4.48233,3.033835 1.73482,0.722832 3.75458,1.014424 6.06767,1.014424 2.16854,0 4.19639,-0.436537 6.36493,-1.448504 2.02396,-1.011964 3.61361,-2.456707 4.77015,-4.33607 l 0.43406,4.916414 5.77986,0.141548 0,-53.4860533 -6.36019,0 z m 15.75895,0 0,7.3699023 7.37461,0 0,-7.3699023 -7.37461,0 z m 57.10494,0 0,7.3699023 7.3699,0 0,-7.3699023 -7.3699,0 z m 87.3206,0 0,44.8139133 c 0,2.89133 0.57676,5.204044 1.87788,6.794277 1.15653,1.590235 3.17928,2.311943 5.9261,2.311943 1.44568,0 2.60352,-0.143256 3.32636,-0.287814 0.4337,-0.144575 0.86684,-0.143254 1.15598,-0.287814 l 0,-5.204225 c -0.14456,0.144558 -0.43587,0.141545 -0.58033,0.141545 l -2.02413,0 c -1.15653,0 -2.16605,-0.431437 -2.59977,-1.009703 -0.4337,-0.578266 -0.72187,-1.591189 -0.72187,-2.892287 l 0,-44.3798353 -6.36022,0 z m -57.83155,4.911695 -6.36019,1.4485023 0,9.686563 -7.22836,0 0,5.345774 7.22836,0 0,22.411676 c 0,1.301097 0.14492,2.599192 0.43406,3.755724 0.28911,1.156532 0.86722,2.312699 1.59006,3.1801 0.86742,1.011965 1.87897,1.738393 3.18009,2.316659 1.30112,0.578266 3.03874,0.86344 5.06269,0.86344 1.59026,0 3.17951,0.0013 4.33607,-0.287814 1.15654,-0.289133 2.16641,-0.432759 3.03383,-0.721892 l 0,-5.784571 -2.16569,0.434078 c -0.57825,0.144575 -1.30128,0.292532 -2.02412,0.292532 -0.72284,0.144558 -1.44754,0.141548 -2.17038,0.141548 -1.73484,0 -2.88831,-0.433138 -3.75573,-1.155972 -0.72284,-0.722831 -1.16069,-2.022626 -1.16069,-3.90199 l 0,-21.685066 11.13505,0 0,-5.350492 -11.13505,0 0,-10.9887993 z m -39.02934,6.9405423 c -1.8794,0 -3.47375,0.434838 -4.77487,1.302237 -1.44567,0.867399 -2.45555,2.167192 -3.03383,3.90199 -1.01198,-0.722832 -2.31474,-1.156349 -3.76044,-1.590049 -1.44568,-0.433701 -3.03533,-0.575626 -4.77015,-0.575626 -2.60224,0 -4.77165,0.433138 -6.50647,1.155971 -1.73481,0.867399 -3.32275,1.879 -4.62387,3.180099 -1.15656,1.156532 -2.02621,2.456323 -2.60449,3.90199 -0.72284,1.445665 -1.00971,3.180296 -1.00971,5.204227 0,1.734798 0.43315,3.469429 1.15599,5.204227 0.72286,1.734798 1.7344,3.181234 3.18008,4.482334 -1.44568,0.722831 -2.74675,1.591186 -3.61417,2.892286 -1.01198,1.156532 -1.44379,2.601272 -1.44379,4.33607 0,1.445665 0.28858,2.745458 1.15598,3.90199 0.86742,1.156532 1.87899,2.024511 3.18011,2.458207 -1.44568,0.722836 -2.74847,1.734435 -3.76047,3.1801 -1.01198,1.445665 -1.59004,3.038749 -1.59004,5.06268 0,1.59023 0.2882,2.745457 0.7219,3.901989 0.43369,1.011967 1.15972,2.02319 1.88258,2.746021 0.8674,0.867399 1.87728,1.592127 3.03384,2.170393 1.15654,0.578266 2.31305,1.008386 3.61417,1.297519 1.15653,0.433701 2.45932,0.582052 3.76044,0.72661 1.30112,0.144558 2.45461,0.141548 3.75573,0.141548 1.30112,0 2.60258,0.003 4.04825,-0.141548 1.30112,-0.144568 2.74714,-0.437477 4.04826,-0.72661 1.30112,-0.289133 2.60388,-0.719251 3.76044,-1.297519 1.30112,-0.578266 2.31269,-1.302994 3.18011,-2.170393 1.01198,-0.867399 1.73365,-1.879001 2.31193,-3.180098 0.57826,-1.3011 0.86815,-2.74584 0.86815,-4.33607 0,-1.590233 -0.28624,-3.036671 -0.14154,-4.482336 -0.57828,-1.301097 -1.30298,-2.312699 -2.1704,-3.180098 -1.44568,-1.590233 -3.3252,-2.601832 -5.63829,-3.180098 -2.3131,-0.578266 -4.62574,-0.868158 -6.79428,-0.868158 l -7.37463,0 c -0.57828,0 -1.15502,-0.0017 -1.87786,-0.146266 -0.72284,-0.144565 -1.29957,-0.286495 -1.87785,-0.575628 -0.4337,-0.289133 -0.86853,-0.722268 -1.30226,-1.155969 -0.43379,-0.578266 -0.58033,-1.15673 -0.58033,-2.024129 0,-0.867399 0.29158,-1.592127 1.01442,-2.170393 0.72284,-0.578266 1.44285,-0.866838 2.16569,-1.155971 1.15656,0.433698 2.17112,0.723599 3.03854,0.868157 0.8674,0.144575 1.87897,0.287814 3.18009,0.287814 2.45768,0 4.62706,-0.288572 6.50646,-1.155971 1.8794,-0.722834 3.32278,-1.879001 4.6239,-3.180099 1.01198,-1.156534 1.87991,-2.458023 2.45819,-4.048255 0.57826,-1.445665 0.86817,-3.181618 0.86817,-4.916416 0,-1.59023 -0.14666,-3.03497 -0.58033,-4.336067 -0.43375,-1.156532 -1.15504,-2.3144 -1.87788,-3.326367 0.14456,-1.011964 0.57639,-1.87994 1.44379,-2.458206 0.72284,-0.578266 1.73743,-0.863439 3.03855,-0.863439 l 0.72189,0 c 0.28914,0 0.57744,0.141547 0.7219,0.141547 l 0,-5.057961 c -0.28914,-0.144565 -0.57903,-0.146266 -0.86817,-0.146266 l -0.86343,0 z M 28.713606,17.558981 c -0.57826,0 -1.44718,0.436157 -1.73632,1.014423 l -10.55471,20.382829 -6.21395,-19.085311 c -0.14446,-0.578266 -0.8655096,-1.15597 -1.4437696,-1.15597 l -7.52088,0 c -1.01197999,0 -1.44511999,0.72265 -1.15597999,1.590049 L 12.232756,58.183091 c 0.1447,0.578268 0.86551,1.155971 1.44379,1.155971 l 1.15598,0 c 0.57828,0 1.4472,-0.436157 1.73632,-1.014423 l 12.43257,-23.997008 12.43257,23.997008 c 0.28914,0.578266 1.01345,1.014423 1.73632,1.014423 l 1.15598,0 c 0.57828,0 1.29923,-0.433135 1.44379,-1.155971 l 12.14476,-37.87809 c 0.43372,-0.722832 -0.14219,-1.590049 -1.00971,-1.590049 l -7.52088,0 c -0.57826,0 -1.29921,0.433138 -1.44379,1.15597 l -6.21392,19.085311 -10.55472,-20.382829 c -0.28914,-0.578266 -1.01348,-1.014423 -1.73631,-1.014423 l -0.7219,0 z m 78.502194,0 c -5.20447,0 -9.831084,2.311956 -13.300744,5.926118 l -1.30223,-3.614177 c -0.28914,-0.578266 -0.86718,-1.15597 -1.59004,-1.15597 l -3.46792,0 c -1.01198,0 -1.73632,0.724349 -1.73632,1.736315 l 0,56.812418 c 0,1.011964 0.72434,1.736315 1.73632,1.736315 l 7.51617,0 c 1.01198,0 1.73632,-0.724351 1.73632,-1.736315 l 0,-19.660938 c 3.18052,1.156532 6.649644,1.736315 10.408444,1.736315 10.55351,0 19.0806,-9.396152 19.0806,-20.816907 0,-11.565319 -8.52709,-20.963174 -19.0806,-20.963174 z m 46.98431,0 c -7.22843,0 -11.42286,5.926118 -11.42286,5.926118 L 141.475,19.870922 c -0.28914,-0.578266 -0.86721,-1.15597 -1.59005,-1.15597 l -3.61416,0 c -1.01198,0 -1.73161,0.724349 -1.73161,1.736315 l 0,35.995509 c 0,1.011966 0.71963,1.736317 1.73161,1.736315 l 7.52088,0 c 1.01198,0 1.7316,-0.724346 1.73158,-1.736315 l 0,-25.152977 c 4.3371,-5.348962 9.97854,-3.472251 11.13508,-3.03855 1.15656,0.433698 2.02282,-0.140599 2.31193,-0.86344 0.28914,-0.722833 2.0215,-4.485172 2.59975,-5.930837 0.72287,-1.301099 -0.14137,-3.901991 -7.3699,-3.901991 z m 29.92313,0 c -11.13179,0 -20.23655,9.396154 -20.23655,20.816908 0,11.56532 9.10476,20.816907 20.23655,20.816907 11.13179,0 20.24129,-9.396152 20.24129,-20.816907 0.14446,-11.420754 -8.96494,-20.816908 -20.24129,-20.816908 z M 66.733236,18.714952 c -1.01197,0 -1.7316,0.724349 -1.7316,1.736315 l 0,35.995509 c 0,1.011966 0.71963,1.736315 1.7316,1.736315 l 7.52089,0 c 1.01198,0 1.7316,-0.724349 1.7316,-1.736315 l 0,-35.995509 c 0,-0.867399 -0.71962,-1.736315 -1.7316,-1.736315 l -7.52089,0 z m 323.402854,0.868157 c -2.3131,0 -4.48251,0.286873 -6.50646,1.009705 -2.16854,0.722833 -3.75687,1.737454 -5.05797,3.038551 -1.012,1.011967 -1.73839,2.025265 -2.31667,3.326364 -0.57825,1.3011 -0.86814,2.74282 -0.86814,4.477618 l 6.21865,0 c 0,-1.734798 0.57676,-3.176518 1.87785,-4.477618 0.72287,-0.578266 1.44795,-1.156348 2.60449,-1.590049 1.01198,-0.433708 2.45497,-0.580343 4.18979,-0.580343 1.59026,0 2.74846,0.29121 3.76044,0.580343 1.01198,0.433701 1.87993,0.865515 2.45821,1.443783 0.86742,0.867399 1.3009,1.734057 1.59004,2.746021 0.14468,1.011967 0.28782,2.024888 0.28782,2.892287 l 0,2.74602 -11.41816,0.721892 c -2.45765,0.144567 -4.62537,0.725669 -6.36019,1.448501 -1.59026,0.867399 -3.03627,1.735754 -4.04825,2.892286 -1.01198,1.011967 -1.7367,2.313079 -2.1704,3.614176 -0.43382,1.3011 -0.58034,2.599194 -0.58034,3.755726 0,1.445665 0.28987,2.748857 0.86815,4.194522 0.57826,1.445665 1.44623,2.599194 2.45821,3.755726 1.15656,1.011967 2.45802,1.881642 4.04825,2.604471 1.59026,0.722834 3.46976,1.009705 5.6383,1.009705 2.7468,0 5.05982,-0.575065 7.22836,-1.731597 2.16852,-1.156532 3.75986,-2.60297 4.91642,-4.482333 l 0.14154,0 c 0,1.59023 0.43653,2.891723 1.44851,4.048256 0.86742,1.156532 2.16718,1.731597 3.902,1.731597 0.86742,0 1.5921,0.003 2.17038,-0.141548 0.72283,-0.144568 1.30128,-0.432759 2.02412,-0.721892 l -0.43406,0 0,-4.916413 -0.58036,0.141545 c -0.14455,0.144558 -0.43116,0.146266 -0.57562,0.146266 l -0.58033,0 c -0.57828,0 -1.0101,-0.286492 -1.4438,-0.575625 -0.43382,-0.433701 -0.58033,-1.012165 -0.58033,-2.02413 l 0,-18.070885 c 0,-2.168499 -0.43314,-4.049776 -1.15598,-5.784574 -0.86742,-2.168498 -2.3138,-3.903127 -4.48234,-5.204226 -2.16852,-1.301098 -5.05791,-2.024128 -8.67213,-2.024128 z m -121.43825,1.155971 0,37.444011 7.37461,0 0,-37.444011 -7.37461,0 z m 57.10494,0 0,37.444011 7.3699,0 0,-37.444011 -7.3699,0 z m -26.4552,4.194523 c 2.60223,0 4.76824,0.721708 6.21391,2.31194 1.59026,1.590233 2.31194,3.613055 2.31194,5.926119 0,2.313064 -0.72168,4.335889 -2.31194,5.926119 -1.59026,1.590233 -3.61168,2.458206 -6.21391,2.458206 -2.60224,0 -4.77296,-0.867973 -6.21866,-2.458206 -1.59026,-1.59023 -2.31194,-3.613055 -2.31194,-5.926119 0,-2.457631 0.72168,-4.335886 2.31194,-5.926119 1.59026,-1.590232 3.61642,-2.31194 6.21866,-2.31194 z m -56.52933,0.287811 c 1.30112,0 2.46065,0.288194 3.47263,0.721892 1.01201,0.433701 1.87691,1.013481 2.59975,1.736315 1.59026,1.301097 2.74808,3.035729 3.32636,5.204227 0.57826,2.023931 0.86817,4.334946 0.86817,6.64801 0,2.313064 -0.28991,4.627479 -0.86817,6.940543 -0.72286,2.023931 -1.7361,3.758562 -3.32636,5.204227 -0.72284,0.722834 -1.58774,1.302617 -2.59975,1.736315 -0.86739,0.433701 -2.02695,0.721892 -3.47263,0.721892 -2.02395,0 -3.75855,-0.434836 -5.20423,-1.302235 -1.44568,-0.867399 -2.60352,-1.8807 -3.32636,-3.326365 -0.86742,-1.445665 -1.44249,-2.889085 -1.7316,-4.623883 -0.28926,-1.734798 -0.43409,-3.469427 -0.43409,-5.204228 0,-1.734798 0.14495,-3.469429 0.43409,-5.204227 0.4337,-1.734798 1.00876,-3.182934 1.7316,-4.628599 0.86742,-1.445665 1.88068,-2.454245 3.32636,-3.321646 1.44568,-0.867399 3.18028,-1.302238 5.20423,-1.302238 z m -137.62657,2.170395 c 5.63817,0 10.11592,4.912288 10.11592,10.98408 0,6.216361 -4.47775,11.130346 -10.11592,11.130346 -3.18052,0 -6.071234,-0.864577 -8.384324,-2.165677 l 0,-15.037053 c 1.8794,-2.89133 4.914664,-4.911696 8.384324,-4.911696 z m 78.93156,0.141546 c 5.78276,0 10.40845,4.917008 10.40845,10.9888 0,6.071796 -4.62569,10.98408 -10.40845,10.98408 -5.78275,0 -10.40844,-4.912284 -10.40844,-10.98408 0,-6.071792 4.62569,-10.988798 10.40844,-10.9888 z m 214.54344,12.578849 0,2.165675 c 0,1.59023 -0.29291,3.182937 -0.7266,4.628602 -0.57829,1.445665 -1.30166,2.745458 -2.45822,3.90199 -1.01198,1.011966 -2.1668,1.878242 -3.46792,2.31194 -1.30109,0.433701 -2.74411,0.726612 -4.18979,0.726612 -2.60224,0 -4.48178,-0.723032 -5.63832,-2.024129 -1.15656,-1.3011 -1.73631,-2.747538 -1.73631,-4.482336 0,-1.156532 0.2882,-2.171151 0.72189,-3.03855 0.43373,-0.867399 1.15502,-1.445863 1.87786,-2.024129 0.72284,-0.433701 1.5925,-0.866834 2.60448,-1.155972 1.01198,-0.289137 2.02485,-0.434077 2.89227,-0.434077 l 10.12066,-0.575626 z m -104.95742,17.783075 8.67215,0 c 1.15656,0 2.31133,-0.003 3.4679,0.141548 1.15653,0.144566 2.17284,0.288194 3.18481,0.721892 0.8674,0.289133 1.73366,1.013484 2.31194,1.736315 0.57826,0.867399 0.86817,1.880699 0.86817,3.326364 0,1.445665 -0.43652,2.746779 -1.4485,3.614178 -0.57828,0.578266 -1.29827,1.15465 -2.16569,1.443783 -0.72284,0.433701 -1.73704,0.7236 -2.60446,0.868158 -0.8674,0.289143 -1.8786,0.434078 -2.74602,0.434078 -1.01198,0.144558 -1.88163,0.146265 -2.60447,0.146265 -0.86742,0 -1.73235,-0.146265 -2.59977,-0.146265 -1.01198,0 -1.87863,-0.143254 -2.74602,-0.287812 -0.8674,-0.144568 -1.73707,-0.437479 -2.60446,-0.72661 -0.86742,-0.4337 -1.58739,-0.865519 -2.16567,-1.443785 -1.01198,-1.011964 -1.59006,-2.31176 -1.59006,-3.90199 0,-1.445665 0.57637,-2.74848 1.44379,-3.760444 0.8674,-1.011967 2.02524,-1.731974 3.32636,-2.165675 z" />
</svg>
