<?xml version="1.0" encoding="UTF-8" standalone="no"?>
<svg
   xmlns:dc="http://purl.org/dc/elements/1.1/"
   xmlns:cc="http://creativecommons.org/ns#"
   xmlns:rdf="http://www.w3.org/1999/02/22-rdf-syntax-ns#"
   xmlns:svg="http://www.w3.org/2000/svg"
   xmlns="http://www.w3.org/2000/svg"
   xmlns:sodipodi="http://sodipodi.sourceforge.net/DTD/sodipodi-0.dtd"
   xmlns:inkscape="http://www.inkscape.org/namespaces/inkscape"
   version="1.0"
   width="933.33331"
   height="933.33331"
   viewBox="0 0 700 700"
   preserveAspectRatio="xMidYMid meet"
   id="svg10"
   sodipodi:docname="buildit-logo-hollow.svg"
   inkscape:version="0.92.2 5c3e80d, 2017-08-06">
  <title
     id="title1441">Buildit</title>
  <defs
     id="defs14" />
  <sodipodi:namedview
     pagecolor="#ffffff"
     bordercolor="#666666"
     borderopacity="1"
     objecttolerance="10"
     gridtolerance="10"
     guidetolerance="10"
     inkscape:pageopacity="0"
     inkscape:pageshadow="2"
     inkscape:window-width="1440"
     inkscape:window-height="878"
     id="namedview12"
     showgrid="false"
     inkscape:zoom="0.357594"
     inkscape:cx="-268.84424"
     inkscape:cy="541.95843"
     inkscape:window-x="376"
     inkscape:window-y="156"
     inkscape:window-maximized="0"
     inkscape:current-layer="svg10"
     units="px" />
  <metadata
     id="metadata2">
Created by potrace 1.11, written by Peter Selinger 2001-2013
<rdf:RDF>
  <cc:Work
     rdf:about="">
    <dc:format>image/svg+xml</dc:format>
    <dc:type
       rdf:resource="http://purl.org/dc/dcmitype/StillImage" />
    <dc:title>Buildit</dc:title>
  </cc:Work>
</rdf:RDF>
</metadata>
  <path
     style="fill:#000000;fill-opacity:1;stroke:none;stroke-width:1.00641716;image-rendering:auto"
     d="M 466.66602 0 A 466.66666 466.6667 0 0 0 0 466.66602 A 466.66666 466.6667 0 0 0 466.66602 933.33398 A 466.66666 466.6667 0 0 0 933.33398 466.66602 A 466.66666 466.6667 0 0 0 466.66602 0 z M 454.43359 47.130859 C 475.85859 47.224609 508.53359 48.5 518.93359 50 C 568.66693 56.8 612.66641 70.266797 655.06641 91.466797 C 773.33307 150.80013 856.13385 261.73269 879.86719 392.66602 C 884.93385 421.19935 885.86719 432.39935 885.86719 466.66602 C 885.86719 486.79935 885.20091 505.86732 884.26758 513.33398 C 876.93424 567.06732 863.73385 611.46641 841.86719 655.06641 C 782.53386 773.33307 671.59935 856.13385 540.66602 879.86719 C 512.13268 884.93385 500.93268 885.86719 466.66602 885.86719 C 432.39935 885.86719 421.19935 884.93385 392.66602 879.86719 C 261.73269 856.13385 150.80013 773.33307 91.466797 655.06641 C 69.600131 611.46641 56.399739 567.06732 49.066406 513.33398 C 46.933073 496.66732 46.933073 436.66667 49.066406 420 C 56.399739 366.26667 69.600131 321.86758 91.466797 278.26758 C 123.0668 215.33425 169.2 162.26641 228 121.06641 C 236.93333 114.79974 263.33268 98.666016 264.66602 98.666016 C 265.06602 98.666016 265.33398 229.19935 265.33398 388.66602 L 265.33398 678.66602 L 308.5332 678.66602 L 351.73242 678.66602 L 352.5332 673.59961 C 352.9332 670.93294 353.99935 663.33268 354.66602 656.66602 C 355.46602 650.13268 356.39935 644.53424 356.66602 644.26758 C 356.93268 643.86758 360.13294 646.00026 363.59961 648.93359 C 383.33294 665.33359 411.73268 678.13346 440.66602 683.4668 C 457.19935 686.53346 497.86732 686.93281 513.33398 684.13281 C 535.86732 680.13281 559.60065 670.53294 579.33398 657.59961 C 593.46732 648.39961 617.86706 623.19922 628.40039 607.19922 C 656.00039 565.46589 669.86628 512.79935 667.59961 458.66602 C 663.33294 357.86602 608.66706 279.59922 528.40039 259.19922 C 471.60039 244.79922 411.06732 256.79974 367.33398 291.06641 L 360.66602 296.26758 L 360.26758 178.5332 C 360.13424 113.86654 360.26654 60.667057 360.5332 60.400391 C 362.66654 58.267057 416.8 49.20013 438 47.466797 C 441.4 47.20013 447.29193 47.099609 454.43359 47.130859 z M 465.26953 332.29492 C 478.70078 332.48242 493.79922 335.03359 503.19922 338.93359 C 518.93255 345.60026 531.7332 355.86654 542.5332 370.5332 C 561.46654 396.1332 570.66602 428.26589 570.66602 469.19922 C 570.66602 507.59922 562.26758 540.13333 546.26758 564 C 531.46758 586.13333 514.13398 598.93268 491.33398 604.66602 C 478.66732 607.99935 453.73398 608.00078 439.33398 604.80078 C 426.53398 602.00078 407.06706 592.79961 398.40039 585.59961 C 367.60039 559.86628 352.66641 516.53398 355.06641 459.33398 C 356.93307 412.40065 371.59909 376.66693 397.73242 354.93359 C 410.53242 344.26693 432.66602 335.33359 452.66602 332.93359 C 456.49935 332.43359 460.79245 332.23242 465.26953 332.29492 z "
     transform="scale(0.75000002)"
     id="path4560" />
</svg>
