<?xml version="1.0" encoding="UTF-8"?>
<svg
    width="97px"
    height="97px"
    viewBox="0 0 97 97"
    version="1.1"
    xmlns="http://www.w3.org/2000/svg"
    xmlns:xlink="http://www.w3.org/1999/xlink"
    id="linkedin-brand-icon"
    aria-describedby="linkedin-desc"
    aria-labelledby="linkedin-title">
    <desc id="buildit-desc">Linkedin logo</desc>
    <title id="buildit-title">Linkedin</title>
    <g>
        <path d="M87.2496429,0 L8.99964286,0 C4.03571429,0 0,4.03571429 0,9 L0,87.25 C0,92.2142857 4.03571429,96.25 8.99964286,96.25 L87.2496429,96.25 C92.2142857,96.25 96.25,92.2142857 96.25,87.25 L96.25,8.99964286 C96.25,4.03571429 92.2142857,0 87.2496429,0 Z M31.75,74.3214286 C28.3571429,74.2857143 24.9282143,74.2857143 21.4996429,74.3214286 C20.8567857,74.3214286 20.6782143,74.1428571 20.6782143,73.4642857 L20.6782143,37.25 C20.6782143,36.5714286 20.8925,36.3928571 21.5353571,36.3928571 C24.9282143,36.4285714 28.3571429,36.4285714 31.75,36.3928571 C32.4282143,36.3928571 32.6071429,36.6071429 32.5714286,37.25 L32.5714286,55.3928571 C32.5714286,61.4285714 32.5714286,67.4639286 32.6071429,73.5 C32.6071429,74.1428571 32.3928571,74.3214286 31.75,74.3214286 Z M26.6425,31.5353571 C22.8567857,31.5714286 19.7496429,28.3928571 19.7496429,24.6428571 C19.7853571,21.0353571 22.5357143,17.7857143 26.6071429,17.75 C30.4639286,17.7142857 33.5357143,20.6428571 33.5357143,24.6428571 C33.5357143,28.5714286 30.5353571,31.5 26.6425,31.5353571 Z M75.4285714,74.3214286 L65.3928571,74.3214286 C64.5710714,74.3214286 64.5357143,74.2857143 64.5357143,73.4285714 L64.5357143,55.0714286 C64.5357143,53.3571429 64.5,51.6428571 63.9996429,49.9642857 C63.2142857,47.3571429 61.5353571,46.1071429 58.7853571,46.0353571 C56.8567857,46 55.0353571,46.3571429 53.6782143,47.8571429 C52.5710714,49.0357143 52.1067857,50.4642857 51.8925,52.0357143 C51.75,53.4282143 51.6425,54.8571429 51.6425,56.2857143 C51.6071429,62.0357143 51.6071429,67.7857143 51.6425,73.4996429 C51.6425,74.1428571 51.4639286,74.3214286 50.8571429,74.3214286 C47.4282143,74.2857143 43.9642857,74.2857143 40.5353571,74.3214286 C39.9285714,74.3214286 39.7142857,74.1428571 39.7142857,73.4996429 C39.75,61.4285714 39.75,49.3214286 39.7142857,37.2142857 C39.7142857,36.5714286 39.9642857,36.3928571 40.5353571,36.3928571 C43.8210714,36.4285714 47.1071429,36.4285714 50.3928571,36.3928571 C51.0353571,36.3928571 51.2496429,36.6428571 51.2139286,37.25 C51.1782143,38.5714286 51.2139286,39.9285714 51.2139286,41.25 C53.0714286,38.5 55.5714286,36.75 58.7142857,35.9642857 C62.3567857,35.0714286 65.9639286,35.3571429 69.3928571,36.8571429 C72.7142857,38.2857143 74.5,41 75.4285714,44.3571429 C76.0714286,46.5357143 76.3571429,48.7857143 76.3928571,51.0714286 C76.4282143,58.4642857 76.4639286,65.8571429 76.5,73.2857143 C76.5,74.3214286 76.5,74.3214286 75.4285714,74.3214286 Z" id="Shape"></path>
    </g>
</svg>