<?xml version="1.0" encoding="UTF-8" standalone="no"?>
<svg
   xmlns:dc="http://purl.org/dc/elements/1.1/"
   xmlns:cc="http://creativecommons.org/ns#"
   xmlns:rdf="http://www.w3.org/1999/02/22-rdf-syntax-ns#"
   xmlns:svg="http://www.w3.org/2000/svg"
   xmlns="http://www.w3.org/2000/svg"
   xmlns:sodipodi="http://sodipodi.sourceforge.net/DTD/sodipodi-0.dtd"
   xmlns:inkscape="http://www.inkscape.org/namespaces/inkscape"
   viewBox="0 0 31.999998 32"
   version="1.1"
   id="svg10"
   sodipodi:docname="icon-github.svg"
   width="32"
   height="32"
   inkscape:version="0.92.2 5c3e80d, 2017-08-06">
  <title
     id="title821">Github</title>
  <metadata
     id="metadata14">
    <rdf:RDF>
      <cc:Work
         rdf:about="">
        <dc:format>image/svg+xml</dc:format>
        <dc:type
           rdf:resource="http://purl.org/dc/dcmitype/StillImage" />
        <dc:title>Github</dc:title>
      </cc:Work>
    </rdf:RDF>
  </metadata>
  <sodipodi:namedview
     pagecolor="#ffffff"
     bordercolor="#666666"
     borderopacity="1"
     objecttolerance="10"
     gridtolerance="10"
     guidetolerance="10"
     inkscape:pageopacity="0"
     inkscape:pageshadow="2"
     inkscape:window-width="1699"
     inkscape:window-height="971"
     id="namedview12"
     showgrid="false"
     fit-margin-top="0"
     fit-margin-left="0"
     fit-margin-right="0"
     fit-margin-bottom="0"
     inkscape:zoom="21.010664"
     inkscape:cx="20.564933"
     inkscape:cy="15.101944"
     inkscape:window-x="0"
     inkscape:window-y="0"
     inkscape:window-maximized="0"
     inkscape:current-layer="svg10" />
  <defs
     id="defs4">
    <style
       id="style2">.a{fill:#191717;fill-rule:evenodd;}</style>
  </defs>
  <circle
     style="fill:#ffffff;fill-opacity:1;stroke:none;stroke-width:8.06951523"
     id="path823"
     cx="16"
     cy="16"
     r="16"
     class="grav-c-icon__secondary-element" />
  <path
     d="M 16.076698,-2.3696815e-4 A 16.060375,16.060375 0 0 0 10.999293,31.302213 c 0.798582,0.147885 1.094353,-0.345067 1.094353,-0.778864 0,-0.433798 0,-1.390125 0,-2.730954 -4.4858622,0.976045 -5.43233,-2.15913 -5.43233,-2.15913 A 4.2492458,4.2492458 0 0 0 4.87683,23.286814 C 3.4176922,22.30091 4.9852794,22.30091 4.9852794,22.30091 a 3.3717914,3.3717914 0 0 1 2.4647598,1.656319 3.4210866,3.4210866 0 0 0 4.6731848,1.33097 3.4309456,3.4309456 0 0 1 0.985903,-2.14927 C 9.5795916,22.754426 5.8331568,21.374161 5.8331568,15.22212 A 6.2111946,6.2111946 0 0 1 7.4894753,10.91372 5.7773969,5.7773969 0 0 1 7.64722,6.6644734 c 0,0 1.3506883,-0.4337977 4.416849,1.6464595 a 15.222356,15.222356 0 0 1 8.044976,0 c 3.066161,-2.0802572 4.41685,-1.6464595 4.41685,-1.6464595 a 5.7675379,5.7675379 0 0 1 0.138026,4.2492466 6.2013356,6.2013356 0 0 1 1.64646,4.3084 c 0,6.171759 -3.756294,7.522447 -7.335125,7.887231 a 3.8351662,3.8351662 0 0 1 1.094353,2.957712 c 0,2.149271 0,3.874602 0,4.406991 0,0.532388 0.285912,0.926749 1.104212,0.769005 A 16.060375,16.060375 0 0 0 16.076698,-2.3696815e-4 Z"
     id="path8"
     inkscape:connector-curvature="0"
     style="fill:#000000;fill-rule:evenodd;stroke-width:0.98590392" />
</svg>
