<?xml version="1.0" encoding="UTF-8" standalone="no"?>
<!-- Created with Inkscape (http://www.inkscape.org/) -->
<svg
   xmlns:svg="http://www.w3.org/2000/svg"
   xmlns="http://www.w3.org/2000/svg"
   version="1.0"
   width="533.28076"
   height="708.66144"
   id="svg2744">
  <defs
     id="defs2746" />
  <g
     transform="translate(13.512262,912.66716)"
     id="layer1">
    <g
       transform="matrix(12.074088,0,0,12.074088,149.63593,2259.1774)"
       id="g2809">
      <path
         d="M 20.550891,-255.85937 C 20.550891,-254.5798 20.100834,-252.81487 18.282956,-252.81487 C 16.103267,-252.81487 16.103267,-255.26812 16.103267,-255.77995 C 16.103267,-256.28296 16.103267,-258.90388 18.344728,-258.90388 C 20.392047,-258.90388 20.550891,-256.64477 20.550891,-255.85937 z M 16.129741,-262.69848 L 14.664849,-262.69848 L 14.664849,-253.26493 L 14.629551,-251.86181 L 16.050319,-251.86181 L 16.085618,-253.05313 C 16.235637,-252.81487 16.41213,-252.55013 16.853363,-252.25009 C 17.524036,-251.80003 18.221183,-251.75591 18.600643,-251.75591 C 19.677251,-251.75591 20.718559,-252.20597 21.345109,-253.09726 C 21.742219,-253.60909 22.095205,-254.4386 22.095205,-255.95644 C 22.095205,-257.67725 21.565726,-258.45382 21.177441,-258.90388 C 20.45382,-259.71574 19.474284,-259.90989 18.68889,-259.90989 C 16.90631,-259.90989 16.332708,-258.92153 16.129741,-258.55972 L 16.129741,-262.69848"
         id="path48"
         style="font-size:34.85100174px;letter-spacing:0;word-spacing:0;fill:#168a44;fill-rule:nonzero;stroke:none" />
      <path
         d="M 24.627879,-255.55051 C 24.627879,-256.25648 24.627879,-258.73621 26.966411,-258.73621 C 28.704868,-258.73621 29.128451,-257.27132 29.128451,-255.85937 C 29.128451,-255.2946 29.049029,-254.17386 28.484251,-253.40612 C 27.990071,-252.7178 27.204677,-252.6472 26.834042,-252.6472 C 24.769074,-252.6472 24.627879,-254.59745 24.627879,-255.55051 z M 23.22476,-248.84378 L 24.672002,-248.84378 L 24.672002,-252.73545 C 25.095586,-252.04712 25.942752,-251.57059 27.081132,-251.57059 C 28.951958,-251.57059 30.655115,-252.85017 30.655115,-255.77113 C 30.655115,-258.67444 29.049029,-259.83047 27.363521,-259.83047 C 26.719321,-259.83047 25.422098,-259.64515 24.689652,-258.4097 L 24.663178,-259.70692 L 23.171812,-259.70692 C 23.207111,-258.95683 23.22476,-258.76268 23.22476,-258.41852 L 23.22476,-248.84378"
         id="path50"
         style="font-size:34.85100174px;letter-spacing:0;word-spacing:0;fill:#168a44;fill-rule:nonzero;stroke:none" />
      <path
         d="M 11.576222,-243.44309 C 10.473141,-246.05519 9.1141445,-248.04956 8.5758409,-248.8526 C 8.0375372,-248.04956 6.6785411,-246.05519 5.5754599,-243.44309 C 6.6520672,-242.27824 7.7198498,-240.90159 8.5758409,-239.34845 C 9.4230073,-240.90159 10.49079,-242.27824 11.576222,-243.44309"
         id="path52"
         style="font-size:34.85100174px;letter-spacing:0;word-spacing:0;fill:#168a44;fill-rule:nonzero;stroke:none" />
      <path
         d="M 5.5754599,-209.41524 C 6.6785411,-206.80314 8.0375372,-204.80877 8.5758409,-204.00573 C 9.1141445,-204.80877 10.473141,-206.80314 11.576222,-209.41524 C 10.49079,-210.58892 9.4230073,-211.95674 8.5758409,-213.50988 C 7.7198498,-211.95674 6.6520672,-210.58892 5.5754599,-209.41524"
         id="path54"
         style="font-size:34.85100174px;letter-spacing:0;word-spacing:0;fill:#168a44;fill-rule:nonzero;stroke:none" />
      <path
         d="M 5.5754599,-243.44309 C 3.6428615,-245.51688 1.6837892,-246.92883 0.90722005,-247.50243 C 0.67777915,-246.55819 0.077702946,-244.21966 -0.063491454,-241.38695 C 1.3484525,-240.66333 2.8221691,-239.73674 4.1546912,-238.57188 C 4.4194307,-240.32799 4.9577344,-241.9782 5.5754599,-243.44309"
         id="path56"
         style="font-size:34.85100174px;letter-spacing:0;word-spacing:0;fill:#168a44;fill-rule:nonzero;stroke:none" />
      <path
         d="M 11.576222,-209.41524 C 13.499996,-207.34145 15.467893,-205.9295 16.244462,-205.3559 C 16.473903,-206.30014 17.065154,-208.63867 17.206349,-211.47138 C 15.794405,-212.195 14.320688,-213.12159 12.988166,-214.28645 C 12.723426,-212.53917 12.193947,-210.88013 11.576222,-209.41524"
         id="path58"
         style="font-size:34.85100174px;letter-spacing:0;word-spacing:0;fill:#168a44;fill-rule:nonzero;stroke:none" />
      <path
         d="M -0.063491454,-241.38695 C -2.5873414,-242.68417 -4.9082243,-243.33719 -5.8348126,-243.61076 C -5.7377414,-242.64005 -5.4906512,-240.23974 -4.6611341,-237.53057 C -3.0815218,-237.33643 -1.3783643,-236.97462 0.27184525,-236.33042 C -0.081140754,-238.06005 -0.1429133,-239.80733 -0.063491454,-241.38695"
         id="path60"
         style="font-size:34.85100174px;letter-spacing:0;word-spacing:0;fill:#168a44;fill-rule:nonzero;stroke:none" />
      <path
         d="M 17.206349,-211.47138 C 19.730198,-210.17416 22.051081,-209.52114 22.986494,-209.2564 C 22.880599,-210.21828 22.642333,-212.61859 21.803991,-215.32776 C 20.233204,-215.5219 18.530046,-215.89253 16.879837,-216.53673 C 17.223998,-214.78945 17.294595,-213.05982 17.206349,-211.47138"
         id="path62"
         style="font-size:34.85100174px;letter-spacing:0;word-spacing:0;fill:#168a44;fill-rule:nonzero;stroke:none" />
      <path
         d="M -2.6138153,-232.88881 C -3.5315789,-234.40665 -4.1934277,-236.01274 -4.6611341,-237.53057 C -7.4673728,-237.88356 -9.8765023,-237.70707 -10.847214,-237.6453 C -10.414806,-236.77165 -9.3646726,-234.60079 -7.6615151,-232.34168 C -6.1083767,-232.69467 -4.38757,-232.93293 -2.6138153,-232.88881"
         id="path64"
         style="font-size:34.85100174px;letter-spacing:0;word-spacing:0;fill:#168a44;fill-rule:nonzero;stroke:none" />
      <path
         d="M 19.756672,-219.96952 C 20.683261,-218.46051 21.336285,-216.8456 21.803991,-215.32776 C 24.619055,-214.97477 27.028184,-215.15126 27.990071,-215.21304 C 27.566488,-216.08668 26.516354,-218.25754 24.804372,-220.52547 C 23.260058,-220.16366 21.539252,-219.9254 19.756672,-219.96952"
         id="path66"
         style="font-size:34.85100174px;letter-spacing:0;word-spacing:0;fill:#168a44;fill-rule:nonzero;stroke:none" />
      <path
         d="M -7.6615151,-232.34168 C -10.423631,-231.70631 -12.620968,-230.71795 -13.512258,-230.32084 C -12.806286,-229.65899 -11.076655,-227.97348 -8.7028238,-226.42917 C -7.3703017,-227.29398 -5.8259879,-228.10585 -4.1493044,-228.67063 C -5.5347745,-229.78253 -6.6996283,-231.07093 -7.6615151,-232.34168"
         id="path68"
         style="font-size:34.85100174px;letter-spacing:0;word-spacing:0;fill:#168a44;fill-rule:nonzero;stroke:none" />
      <path
         d="M 25.845681,-226.42917 C 24.513159,-225.56435 22.97767,-224.75248 21.300986,-224.1877 C 22.677632,-223.0758 23.85131,-221.7874 24.804372,-220.52547 C 27.575312,-221.15202 29.77265,-222.14921 30.655115,-222.53749 C 29.957968,-223.19934 28.228336,-224.89368 25.845681,-226.42917"
         id="path70"
         style="font-size:34.85100174px;letter-spacing:0;word-spacing:0;fill:#168a44;fill-rule:nonzero;stroke:none" />
      <path
         d="M -4.1493044,-224.1877 C -5.8259879,-224.75248 -7.3703017,-225.56435 -8.7028238,-226.42917 C -11.076655,-224.89368 -12.806286,-223.19934 -13.512258,-222.53749 C -12.620968,-222.14921 -10.423631,-221.15202 -7.6615151,-220.52547 C -6.6996283,-221.7874 -5.5347745,-223.0758 -4.1493044,-224.1877"
         id="path72"
         style="font-size:34.85100174px;letter-spacing:0;word-spacing:0;fill:#168a44;fill-rule:nonzero;stroke:none" />
      <path
         d="M 21.300986,-228.67063 C 22.97767,-228.10585 24.513159,-227.29398 25.845681,-226.42917 C 28.228336,-227.97348 29.957968,-229.65899 30.655115,-230.32084 C 29.77265,-230.71795 27.575312,-231.70631 24.804372,-232.34168 C 23.85131,-231.07093 22.677632,-229.78253 21.300986,-228.67063"
         id="path74"
         style="font-size:34.85100174px;letter-spacing:0;word-spacing:0;fill:#168a44;fill-rule:nonzero;stroke:none" />
      <path
         d="M -7.6615151,-220.52547 C -9.3646726,-218.25754 -10.414806,-216.08668 -10.847214,-215.21304 C -9.8765023,-215.15126 -7.4673728,-214.97477 -4.6611341,-215.32776 C -4.1934277,-216.8456 -3.5315789,-218.46051 -2.6138153,-219.96952 C -4.38757,-219.9254 -6.1083767,-220.16366 -7.6615151,-220.52547"
         id="path76"
         style="font-size:34.85100174px;letter-spacing:0;word-spacing:0;fill:#168a44;fill-rule:nonzero;stroke:none" />
      <path
         d="M 24.804372,-232.34168 C 26.516354,-234.60079 27.566488,-236.77165 27.990071,-237.6453 C 27.028184,-237.70707 24.619055,-237.88356 21.803991,-237.53057 C 21.336285,-236.01274 20.683261,-234.40665 19.756672,-232.88881 C 21.539252,-232.93293 23.260058,-232.69467 24.804372,-232.34168"
         id="path78"
         style="font-size:34.85100174px;letter-spacing:0;word-spacing:0;fill:#168a44;fill-rule:nonzero;stroke:none" />
      <path
         d="M 0.27184525,-216.53673 C -1.3783643,-215.89253 -3.0815218,-215.5219 -4.6611341,-215.32776 C -5.4906512,-212.61859 -5.7377414,-210.21828 -5.8348126,-209.2564 C -4.9082243,-209.52114 -2.5873414,-210.17416 -0.063491454,-211.47138 C -0.1429133,-213.05982 -0.081140754,-214.78945 0.27184525,-216.53673"
         id="path80"
         style="font-size:34.85100174px;letter-spacing:0;word-spacing:0;fill:#168a44;fill-rule:nonzero;stroke:none" />
      <path
         d="M 16.879837,-236.33042 C 18.530046,-236.97462 20.233204,-237.33643 21.803991,-237.53057 C 22.642333,-240.23974 22.880599,-242.64005 22.986494,-243.61076 C 22.051081,-243.33719 19.730198,-242.68417 17.206349,-241.38695 C 17.294595,-239.80733 17.223998,-238.06888 16.879837,-236.33042"
         id="path82"
         style="font-size:34.85100174px;letter-spacing:0;word-spacing:0;fill:#168a44;fill-rule:nonzero;stroke:none" />
      <path
         d="M -0.063491454,-211.47138 C 0.077702946,-208.63867 0.67777915,-206.30014 0.90722005,-205.3559 C 1.6837892,-205.9295 3.6428615,-207.34145 5.5754599,-209.41524 C 4.9577344,-210.88013 4.4194307,-212.53917 4.1546912,-214.28645 C 2.8221691,-213.12159 1.3484525,-212.195 -0.063491454,-211.47138"
         id="path84"
         style="font-size:34.85100174px;letter-spacing:0;word-spacing:0;fill:#168a44;fill-rule:nonzero;stroke:none" />
      <path
         d="M 17.206349,-241.38695 C 17.065154,-244.21966 16.473903,-246.55819 16.244462,-247.50243 C 15.467893,-246.92883 13.499996,-245.51688 11.576222,-243.44309 C 12.193947,-241.9782 12.723426,-240.32799 12.988166,-238.57188 C 14.320688,-239.73674 15.794405,-240.66333 17.206349,-241.38695"
         id="path86"
         style="font-size:34.85100174px;letter-spacing:0;word-spacing:0;fill:#168a44;fill-rule:nonzero;stroke:none" />
      <path
         d="M 7.0403518,-235.14792 C 7.3227406,-236.66576 7.8698689,-238.06888 8.5758409,-239.34845 C 7.7198498,-240.90159 6.6520672,-242.27824 5.5754599,-243.44309 C 4.9577344,-241.9782 4.4194307,-240.32799 4.1546912,-238.57188 C 5.2577725,-237.61 6.2549579,-236.47162 7.0403518,-235.14792"
         id="path88"
         style="font-size:34.85100174px;letter-spacing:0;word-spacing:0;fill:#5bb046;fill-rule:nonzero;stroke:none" />
      <path
         d="M 10.11133,-217.71041 C 9.8289412,-216.2014 9.2818129,-214.78945 8.5758409,-213.50988 C 9.4230073,-211.95674 10.49079,-210.58892 11.576222,-209.41524 C 12.193947,-210.88013 12.723426,-212.53917 12.988166,-214.28645 C 11.893909,-215.25716 10.896724,-216.38671 10.11133,-217.71041"
         id="path90"
         style="font-size:34.85100174px;letter-spacing:0;word-spacing:0;fill:#5bb046;fill-rule:nonzero;stroke:none" />
      <path
         d="M 0.27184525,-236.33042 C 1.6308413,-235.79212 2.9545388,-235.07732 4.1458666,-234.09779 C 3.8987764,-235.61563 3.934075,-237.12464 4.1546912,-238.57188 C 2.8221691,-239.73674 1.3484525,-240.66333 -0.063491454,-241.38695 C -0.1429133,-239.80733 -0.081140754,-238.06005 0.27184525,-236.33042"
         id="path92"
         style="font-size:34.85100174px;letter-spacing:0;word-spacing:0;fill:#5bb046;fill-rule:nonzero;stroke:none" />
      <path
         d="M 16.879837,-216.53673 C 15.52084,-217.06621 14.188318,-217.78983 12.996991,-218.76054 C 13.252905,-217.2427 13.208782,-215.73369 12.988166,-214.28645 C 14.320688,-213.12159 15.794405,-212.195 17.206349,-211.47138 C 17.294595,-213.05982 17.223998,-214.78945 16.879837,-216.53673"
         id="path94"
         style="font-size:34.85100174px;letter-spacing:0;word-spacing:0;fill:#5bb046;fill-rule:nonzero;stroke:none" />
      <path
         d="M 1.7985097,-232.12106 C 1.0395898,-233.46241 0.55423405,-234.892 0.27184525,-236.33042 C -1.3783643,-236.97462 -3.0815218,-237.33643 -4.6611341,-237.53057 C -4.1934277,-236.01274 -3.5315789,-234.40665 -2.6138153,-232.88881 C -1.1577481,-232.85351 0.34244245,-232.63289 1.7985097,-232.12106"
         id="path96"
         style="font-size:34.85100174px;letter-spacing:0;word-spacing:0;fill:#5bb046;fill-rule:nonzero;stroke:none" />
      <path
         d="M 15.353172,-220.73727 C 16.112092,-219.39592 16.588623,-217.96633 16.879837,-216.53673 C 18.530046,-215.89253 20.233204,-215.5219 21.803991,-215.32776 C 21.336285,-216.8456 20.683261,-218.46051 19.756672,-219.96952 C 18.300605,-220.00482 16.809239,-220.22544 15.353172,-220.73727"
         id="path98"
         style="font-size:34.85100174px;letter-spacing:0;word-spacing:0;fill:#5bb046;fill-rule:nonzero;stroke:none" />
      <path
         d="M -4.1493044,-228.67063 C -2.7638344,-229.14716 -1.2812932,-229.43837 0.25419595,-229.45602 C -0.91065785,-230.46203 -1.8548954,-231.64453 -2.6138153,-232.88881 C -4.38757,-232.93293 -6.1083767,-232.69467 -7.6615151,-232.34168 C -6.6996283,-231.07093 -5.5347745,-229.78253 -4.1493044,-228.67063"
         id="path100"
         style="font-size:34.85100174px;letter-spacing:0;word-spacing:0;fill:#5bb046;fill-rule:nonzero;stroke:none" />
      <path
         d="M 21.300986,-224.1877 C 19.915516,-223.72 18.432975,-223.41996 16.888661,-223.40231 C 18.06234,-222.40512 19.006577,-221.22262 19.756672,-219.96952 C 21.539252,-219.9254 23.260058,-220.16366 24.804372,-220.52547 C 23.85131,-221.7874 22.677632,-223.0758 21.300986,-224.1877"
         id="path102"
         style="font-size:34.85100174px;letter-spacing:0;word-spacing:0;fill:#5bb046;fill-rule:nonzero;stroke:none" />
      <path
         d="M -0.27528305,-226.42917 C -1.7225257,-226.96747 -3.0109246,-227.76169 -4.1493044,-228.67063 C -5.8259879,-228.10585 -7.3703017,-227.29398 -8.7028238,-226.42917 C -7.3703017,-225.56435 -5.8259879,-224.75248 -4.1493044,-224.1877 C -3.0109246,-225.09664 -1.7225257,-225.89086 -0.27528305,-226.42917"
         id="path104"
         style="font-size:34.85100174px;letter-spacing:0;word-spacing:0;fill:#5bb046;fill-rule:nonzero;stroke:none" />
      <path
         d="M 17.426965,-226.42917 C 18.865383,-225.89086 20.153782,-225.09664 21.300986,-224.1877 C 22.97767,-224.75248 24.513159,-225.56435 25.845681,-226.42917 C 24.513159,-227.29398 22.97767,-228.10585 21.300986,-228.67063 C 20.153782,-227.76169 18.865383,-226.96747 17.426965,-226.42917"
         id="path106"
         style="font-size:34.85100174px;letter-spacing:0;word-spacing:0;fill:#5bb046;fill-rule:nonzero;stroke:none" />
      <path
         d="M -2.6138153,-219.96952 C -1.8548954,-221.22262 -0.91065785,-222.40512 0.25419595,-223.40231 C -1.2812932,-223.41996 -2.7638344,-223.72 -4.1493044,-224.1877 C -5.5347745,-223.0758 -6.6996283,-221.7874 -7.6615151,-220.52547 C -6.1083767,-220.16366 -4.38757,-219.9254 -2.6138153,-219.96952"
         id="path108"
         style="font-size:34.85100174px;letter-spacing:0;word-spacing:0;fill:#5bb046;fill-rule:nonzero;stroke:none" />
      <path
         d="M 19.756672,-232.88881 C 19.006577,-231.64453 18.06234,-230.46203 16.888661,-229.45602 C 18.432975,-229.43837 19.915516,-229.14716 21.300986,-228.67063 C 22.677632,-229.78253 23.85131,-231.07093 24.804372,-232.34168 C 23.260058,-232.69467 21.539252,-232.93293 19.756672,-232.88881"
         id="path110"
         style="font-size:34.85100174px;letter-spacing:0;word-spacing:0;fill:#5bb046;fill-rule:nonzero;stroke:none" />
      <path
         d="M 1.7985097,-220.73727 C 0.34244245,-220.22544 -1.1577481,-220.00482 -2.6138153,-219.96952 C -3.5315789,-218.46051 -4.1934277,-216.8456 -4.6611341,-215.32776 C -3.0815218,-215.5219 -1.3783643,-215.89253 0.27184525,-216.53673 C 0.55423405,-217.96633 1.0395898,-219.39592 1.7985097,-220.73727"
         id="path112"
         style="font-size:34.85100174px;letter-spacing:0;word-spacing:0;fill:#5bb046;fill-rule:nonzero;stroke:none" />
      <path
         d="M 15.353172,-232.12106 C 16.809239,-232.63289 18.300605,-232.85351 19.756672,-232.88881 C 20.683261,-234.40665 21.336285,-236.01274 21.803991,-237.53057 C 20.233204,-237.33643 18.530046,-236.97462 16.879837,-236.33042 C 16.588623,-234.892 16.112092,-233.46241 15.353172,-232.12106"
         id="path114"
         style="font-size:34.85100174px;letter-spacing:0;word-spacing:0;fill:#5bb046;fill-rule:nonzero;stroke:none" />
      <path
         d="M 7.0403518,-217.71041 C 6.2549579,-216.38671 5.2577725,-215.25716 4.1546912,-214.28645 C 4.4194307,-212.53917 4.9577344,-210.88013 5.5754599,-209.41524 C 6.6520672,-210.58892 7.7198498,-211.95674 8.5758409,-213.50988 C 7.8698689,-214.78945 7.3227406,-216.2014 7.0403518,-217.71041"
         id="path116"
         style="font-size:34.85100174px;letter-spacing:0;word-spacing:0;fill:#5bb046;fill-rule:nonzero;stroke:none" />
      <path
         d="M 4.1458666,-218.76054 C 2.9545388,-217.78983 1.6308413,-217.06621 0.27184525,-216.53673 C -0.081140754,-214.78945 -0.1429133,-213.05982 -0.063491454,-211.47138 C 1.3484525,-212.195 2.8221691,-213.12159 4.1546912,-214.28645 C 3.934075,-215.73369 3.8987764,-217.2427 4.1458666,-218.76054"
         id="path118"
         style="font-size:34.85100174px;letter-spacing:0;word-spacing:0;fill:#5bb046;fill-rule:nonzero;stroke:none" />
      <path
         d="M 10.11133,-235.14792 C 10.896724,-236.47162 11.893909,-237.61 12.988166,-238.57188 C 12.723426,-240.32799 12.193947,-241.9782 11.576222,-243.44309 C 10.49079,-242.27824 9.4230073,-240.90159 8.5758409,-239.34845 C 9.2818129,-238.06888 9.8289412,-236.66576 10.11133,-235.14792"
         id="path120"
         style="font-size:34.85100174px;letter-spacing:0;word-spacing:0;fill:#5bb046;fill-rule:nonzero;stroke:none" />
      <path
         d="M 12.996991,-234.09779 C 14.188318,-235.07732 15.52084,-235.79212 16.879837,-236.33042 C 17.223998,-238.06888 17.294595,-239.80733 17.206349,-241.38695 C 15.794405,-240.66333 14.320688,-239.73674 12.988166,-238.57188 C 13.208782,-237.12464 13.252905,-235.61563 12.996991,-234.09779"
         id="path122"
         style="font-size:34.85100174px;letter-spacing:0;word-spacing:0;fill:#5bb046;fill-rule:nonzero;stroke:none" />
      <path
         d="M 7.0403518,-230.6297 C 6.2549579,-232.04164 5.2577725,-233.18002 4.1458666,-234.09779 C 4.3841321,-232.67702 4.8694879,-231.24742 5.699005,-229.86195 C 4.4723786,-230.91209 3.1486811,-231.64453 1.7985097,-232.12106 C 2.495657,-230.86796 3.4487192,-229.69429 4.7018195,-228.67063 C 3.1839797,-229.2354 1.6926139,-229.47367 0.25419595,-229.45602 C 1.3484525,-228.52061 2.6368514,-227.74404 4.1635159,-227.20573 C 2.5486049,-227.22338 1.0660637,-226.94099 -0.27528305,-226.42917 C 1.0660637,-225.92616 2.5486049,-225.63495 4.1635159,-225.6526 C 2.6368514,-225.11429 1.3484525,-224.33772 0.25419595,-223.40231 C 1.6926139,-223.38466 3.1839797,-223.62293 4.7018195,-224.19653 C 3.4487192,-223.16404 2.495657,-221.99919 1.7985097,-220.73727 C 3.1486811,-221.22262 4.4723786,-221.94624 5.699005,-223.0052 C 4.8694879,-221.61091 4.3841321,-220.18131 4.1458666,-218.76054 C 5.2577725,-219.67831 6.2549579,-220.81669 7.0403518,-222.22863 C 6.7403137,-220.64019 6.7756123,-219.13118 7.0403518,-217.71041 C 7.7727977,-218.95469 8.3111014,-220.35781 8.5758409,-221.95507 C 8.8405804,-220.35781 9.378884,-218.95469 10.11133,-217.71041 C 10.376069,-219.13118 10.402543,-220.64019 10.102505,-222.22863 C 10.896724,-220.81669 11.885085,-219.67831 12.996991,-218.76054 C 12.76755,-220.18131 12.273369,-221.61091 11.443852,-223.0052 C 12.679303,-221.94624 13.994176,-221.22262 15.353172,-220.73727 C 14.6472,-221.99919 13.702963,-223.16404 12.449862,-224.19653 C 13.967702,-223.62293 15.450243,-223.38466 16.888661,-223.40231 C 15.794405,-224.33772 14.506006,-225.11429 12.979341,-225.6526 C 14.603077,-225.63495 16.076793,-225.92616 17.426965,-226.42917 C 16.076793,-226.94099 14.603077,-227.22338 12.979341,-227.20573 C 14.506006,-227.74404 15.794405,-228.52061 16.888661,-229.45602 C 15.450243,-229.47367 13.967702,-229.2354 12.449862,-228.67063 C 13.702963,-229.69429 14.6472,-230.86796 15.353172,-232.12106 C 13.994176,-231.64453 12.679303,-230.91209 11.443852,-229.86195 C 12.273369,-231.24742 12.76755,-232.67702 12.996991,-234.09779 C 11.885085,-233.18002 10.896724,-232.04164 10.102505,-230.6297 C 10.402543,-232.22696 10.376069,-233.73598 10.11133,-235.14792 C 9.378884,-233.91247 8.8405804,-232.50052 8.5758409,-230.90326 C 8.3111014,-232.50052 7.7727977,-233.91247 7.0403518,-235.14792 C 6.7756123,-233.73598 6.7403137,-232.22696 7.0403518,-230.6297"
         id="path124"
         style="font-size:34.85100174px;letter-spacing:0;word-spacing:0;fill:#ffffff;fill-rule:nonzero;stroke:none" />
      <path
         d="M 7.0403518,-230.6297 C 6.7403137,-232.22696 6.7756123,-233.73598 7.0403518,-235.14792 C 6.2549579,-236.47162 5.2577725,-237.61 4.1546912,-238.57188 C 3.934075,-237.12464 3.8987764,-235.61563 4.1458666,-234.09779 C 5.2577725,-233.18002 6.2549579,-232.04164 7.0403518,-230.6297"
         id="path126"
         style="font-size:34.85100174px;letter-spacing:0;word-spacing:0;fill:#fedc00;fill-rule:nonzero;stroke:none" />
      <path
         d="M 10.102505,-222.22863 C 10.402543,-220.64019 10.376069,-219.13118 10.11133,-217.71041 C 10.896724,-216.38671 11.893909,-215.25716 12.988166,-214.28645 C 13.208782,-215.73369 13.252905,-217.2427 12.996991,-218.76054 C 11.885085,-219.67831 10.896724,-220.81669 10.102505,-222.22863"
         id="path128"
         style="font-size:34.85100174px;letter-spacing:0;word-spacing:0;fill:#fedc00;fill-rule:nonzero;stroke:none" />
      <path
         d="M 4.1458666,-234.09779 C 2.9545388,-235.07732 1.6308413,-235.79212 0.27184525,-236.33042 C 0.55423405,-234.892 1.0395898,-233.46241 1.7985097,-232.12106 C 3.1486811,-231.64453 4.4723786,-230.91209 5.699005,-229.86195 C 4.8694879,-231.24742 4.3841321,-232.67702 4.1458666,-234.09779"
         id="path130"
         style="font-size:34.85100174px;letter-spacing:0;word-spacing:0;fill:#fedc00;fill-rule:nonzero;stroke:none" />
      <path
         d="M 12.996991,-218.76054 C 14.188318,-217.78983 15.52084,-217.06621 16.879837,-216.53673 C 16.588623,-217.96633 16.112092,-219.39592 15.353172,-220.73727 C 13.994176,-221.22262 12.679303,-221.94624 11.443852,-223.0052 C 12.273369,-221.61091 12.76755,-220.18131 12.996991,-218.76054"
         id="path132"
         style="font-size:34.85100174px;letter-spacing:0;word-spacing:0;fill:#fedc00;fill-rule:nonzero;stroke:none" />
      <path
         d="M 4.7018195,-228.67063 C 3.4487192,-229.69429 2.495657,-230.86796 1.7985097,-232.12106 C 0.34244245,-232.63289 -1.1577481,-232.85351 -2.6138153,-232.88881 C -1.8548954,-231.64453 -0.91065785,-230.46203 0.25419595,-229.45602 C 1.6926139,-229.47367 3.1839797,-229.2354 4.7018195,-228.67063"
         id="path134"
         style="font-size:34.85100174px;letter-spacing:0;word-spacing:0;fill:#fedc00;fill-rule:nonzero;stroke:none" />
      <path
         d="M 12.449862,-224.19653 C 13.702963,-223.16404 14.6472,-221.99919 15.353172,-220.73727 C 16.809239,-220.22544 18.300605,-220.00482 19.756672,-219.96952 C 19.006577,-221.22262 18.06234,-222.40512 16.888661,-223.40231 C 15.450243,-223.38466 13.967702,-223.62293 12.449862,-224.19653"
         id="path136"
         style="font-size:34.85100174px;letter-spacing:0;word-spacing:0;fill:#fedc00;fill-rule:nonzero;stroke:none" />
      <path
         d="M 4.1635159,-227.20573 C 2.6368514,-227.74404 1.3484525,-228.52061 0.25419595,-229.45602 C -1.2812932,-229.43837 -2.7638344,-229.14716 -4.1493044,-228.67063 C -3.0109246,-227.76169 -1.7225257,-226.96747 -0.27528305,-226.42917 C 1.0660637,-226.94099 2.5486049,-227.22338 4.1635159,-227.20573"
         id="path138"
         style="font-size:34.85100174px;letter-spacing:0;word-spacing:0;fill:#fedc00;fill-rule:nonzero;stroke:none" />
      <path
         d="M 12.979341,-225.6526 C 14.506006,-225.11429 15.794405,-224.33772 16.888661,-223.40231 C 18.432975,-223.41996 19.915516,-223.72 21.300986,-224.1877 C 20.153782,-225.09664 18.865383,-225.89086 17.426965,-226.42917 C 16.076793,-225.92616 14.603077,-225.63495 12.979341,-225.6526"
         id="path140"
         style="font-size:34.85100174px;letter-spacing:0;word-spacing:0;fill:#fedc00;fill-rule:nonzero;stroke:none" />
      <path
         d="M -0.27528305,-226.42917 C -1.7225257,-225.89086 -3.0109246,-225.09664 -4.1493044,-224.1877 C -2.7638344,-223.72 -1.2812932,-223.41996 0.25419595,-223.40231 C 1.3484525,-224.33772 2.6368514,-225.11429 4.1635159,-225.6526 C 2.5486049,-225.63495 1.0660637,-225.92616 -0.27528305,-226.42917"
         id="path142"
         style="font-size:34.85100174px;letter-spacing:0;word-spacing:0;fill:#fedc00;fill-rule:nonzero;stroke:none" />
      <path
         d="M 17.426965,-226.42917 C 18.865383,-226.96747 20.153782,-227.76169 21.300986,-228.67063 C 19.915516,-229.14716 18.432975,-229.43837 16.888661,-229.45602 C 15.794405,-228.52061 14.506006,-227.74404 12.979341,-227.20573 C 14.603077,-227.22338 16.076793,-226.94099 17.426965,-226.42917"
         id="path144"
         style="font-size:34.85100174px;letter-spacing:0;word-spacing:0;fill:#fedc00;fill-rule:nonzero;stroke:none" />
      <path
         d="M 4.7018195,-224.19653 C 3.1839797,-223.62293 1.6926139,-223.38466 0.25419595,-223.40231 C -0.91065785,-222.40512 -1.8548954,-221.22262 -2.6138153,-219.96952 C -1.1577481,-220.00482 0.34244245,-220.22544 1.7985097,-220.73727 C 2.495657,-221.99919 3.4487192,-223.16404 4.7018195,-224.19653"
         id="path146"
         style="font-size:34.85100174px;letter-spacing:0;word-spacing:0;fill:#fedc00;fill-rule:nonzero;stroke:none" />
      <path
         d="M 12.449862,-228.67063 C 13.967702,-229.2354 15.450243,-229.47367 16.888661,-229.45602 C 18.06234,-230.46203 19.006577,-231.64453 19.756672,-232.88881 C 18.300605,-232.85351 16.809239,-232.63289 15.353172,-232.12106 C 14.6472,-230.86796 13.702963,-229.69429 12.449862,-228.67063"
         id="path148"
         style="font-size:34.85100174px;letter-spacing:0;word-spacing:0;fill:#fedc00;fill-rule:nonzero;stroke:none" />
      <path
         d="M 7.0403518,-217.71041 C 7.3227406,-216.2014 7.8698689,-214.78945 8.5758409,-213.50988 C 9.2818129,-214.78945 9.8289412,-216.2014 10.11133,-217.71041 C 9.378884,-218.95469 8.8405804,-220.35781 8.5758409,-221.95507 C 8.3111014,-220.35781 7.7727977,-218.95469 7.0403518,-217.71041"
         id="path150"
         style="font-size:34.85100174px;letter-spacing:0;word-spacing:0;fill:#fedc00;fill-rule:nonzero;stroke:none" />
      <path
         d="M 7.0403518,-222.22863 C 6.2549579,-220.81669 5.2577725,-219.67831 4.1458666,-218.76054 C 3.8987764,-217.2427 3.934075,-215.73369 4.1546912,-214.28645 C 5.2577725,-215.25716 6.2549579,-216.38671 7.0403518,-217.71041 C 6.7756123,-219.13118 6.7403137,-220.64019 7.0403518,-222.22863"
         id="path152"
         style="font-size:34.85100174px;letter-spacing:0;word-spacing:0;fill:#fedc00;fill-rule:nonzero;stroke:none" />
      <path
         d="M 1.7985097,-220.73727 C 1.0395898,-219.39592 0.55423405,-217.96633 0.27184525,-216.53673 C 1.6308413,-217.06621 2.9545388,-217.78983 4.1458666,-218.76054 C 4.3841321,-220.18131 4.8694879,-221.61091 5.699005,-223.0052 C 4.4723786,-221.94624 3.1486811,-221.22262 1.7985097,-220.73727"
         id="path154"
         style="font-size:34.85100174px;letter-spacing:0;word-spacing:0;fill:#fedc00;fill-rule:nonzero;stroke:none" />
      <path
         d="M 10.11133,-235.14792 C 9.8289412,-236.66576 9.2818129,-238.06888 8.5758409,-239.34845 C 7.8698689,-238.06888 7.3227406,-236.66576 7.0403518,-235.14792 C 7.7727977,-233.91247 8.3111014,-232.50052 8.5758409,-230.90326 C 8.8405804,-232.50052 9.378884,-233.91247 10.11133,-235.14792"
         id="path156"
         style="font-size:34.85100174px;letter-spacing:0;word-spacing:0;fill:#fedc00;fill-rule:nonzero;stroke:none" />
      <path
         d="M 10.102505,-230.6297 C 10.896724,-232.04164 11.885085,-233.18002 12.996991,-234.09779 C 13.252905,-235.61563 13.208782,-237.12464 12.988166,-238.57188 C 11.893909,-237.61 10.896724,-236.47162 10.11133,-235.14792 C 10.376069,-233.73598 10.402543,-232.22696 10.102505,-230.6297"
         id="path158"
         style="font-size:34.85100174px;letter-spacing:0;word-spacing:0;fill:#fedc00;fill-rule:nonzero;stroke:none" />
      <path
         d="M 15.353172,-232.12106 C 16.112092,-233.46241 16.588623,-234.892 16.879837,-236.33042 C 15.52084,-235.79212 14.188318,-235.07732 12.996991,-234.09779 C 12.76755,-232.67702 12.273369,-231.24742 11.443852,-229.86195 C 12.679303,-230.91209 13.994176,-231.64453 15.353172,-232.12106"
         id="path160"
         style="font-size:34.85100174px;letter-spacing:0;word-spacing:0;fill:#fedc00;fill-rule:nonzero;stroke:none" />
    </g>
  </g>
</svg>
