<?xml version="1.0" encoding="UTF-8" standalone="no"?>
<svg
  xmlns:dc="http://purl.org/dc/elements/1.1/"
  xmlns:cc="http://creativecommons.org/ns#"
  xmlns:rdf="http://www.w3.org/1999/02/22-rdf-syntax-ns#"
  xmlns:svg="http://www.w3.org/2000/svg"
  xmlns="http://www.w3.org/2000/svg"
  xmlns:sodipodi="http://sodipodi.sourceforge.net/DTD/sodipodi-0.dtd"
  xmlns:inkscape="http://www.inkscape.org/namespaces/inkscape"
  version="1.1"
  x="0px"
  y="0px"
  viewBox="0 0 106 106"
  xml:space="preserve"
  inkscape:version="0.91 r13725"
  aria-labelledby="bull-title"
  aria-describedby="bull-desc"
  width="106"
  height="106">
  <metadata>
    <rdf:RDF>
      <cc:Work rdf:about="">
        <dc:format>image/svg+xml</dc:format>
        <dc:type rdf:resource="http://purl.org/dc/dcmitype/StillImage"/>
        <dc:title>No Bull</dc:title>
      </cc:Work>
    </rdf:RDF>
  </metadata>
  <title id="bull-title">No Bull</title>
  <desc id="bull-desc">The stylised head of a bull</desc>
  <path d="m 30.149414,13 c -0.8,0 -1.5,0.7 -1.5,1.5 0,4.9 2.301172,9.40078 6.201172,12.30078 l -0.701172,0 c -3.3,0 -6.398438,1.5 -8.398438,4 -1.4,-4.7 -5.6,-7.9 -10.5,-8 l -7.9003905,0 0,8 c 0,6 4.9003905,10.89844 10.9003905,10.89844 l 4.898438,0 0,16.30078 c 0,4.3 2.601562,8.3 6.601562,10 l 0.199219,0.09961 0.199219,0 c -0.4,1.2 -0.59961,2.39961 -0.59961,3.59961 l 0,10.40039 c 0,5.9 4.7,10.70039 10.5,10.90039 l 25.400391,0 c 6,0 10.90039,-4.90039 10.90039,-10.90039 l 0,-10.29883 c 0,-1.2 -0.19961,-2.4 -0.59961,-3.5 4.2,-1.6 7,-5.70117 7,-10.20117 l 0,-16.59961 2.69922,0 c 6,0 13.19922,-4.90039 13.19922,-10.90039 l 0,-8 -7.89844,0 c -4.9,0 -9.1,3.70117 -10.5,8.20117 -2.1,-2.5 -5.20039,-4 -8.40039,-4 l -0.70117,0 c 3.9,-2.9 6.20117,-7.50078 6.20117,-12.30078 0,-0.8 -0.7,-1.5 -1.5,-1.5 -0.8,0 -1.5,0.7 -1.5,1.5 0,6.3 -4.79961,11.70078 -11.09961,12.30078 l -20.499999,0 c -6.3,-0.6 -11.101562,-6.00078 -11.101562,-12.30078 0,-0.8 -0.7,-1.5 -1.5,-1.5 z m 60.601561,12.59961 4.89844,0 0,5 c 0,4.2 -5.69922,7.90039 -10.19922,7.90039 l -0.80078,0 -1.69922,0 -0.0996,-0.30078 0,-4.69922 c 0,-4.4 3.600391,-7.90039 7.90039,-7.90039 z m -56.701171,4.30078 37.701171,0 c 4.4,0 7.89844,3.60039 7.89844,7.90039 l 0,0.79883 -10.19922,0 c -6,0 -10.90039,4.90039 -10.90039,10.90039 l 0,11.30078 -11.298829,0 0,-11.20117 c 0,-6.1 -4.9,-10.90039 -11,-10.90039 l -10.101562,0 0,-0.89844 c 0,-4.4 3.60039,-7.90039 7.90039,-7.90039 z m -7.90039,11.69922 10.101562,0 c 4.4,0 8,3.50039 8,7.90039 l 0,11.30078 -3.800781,0 c -3.5,0 -6.800781,1.7 -8.800781,4.5 L 30.750976,65.19922 C 27.950976,63.89922 26.149414,61.1 26.149414,58 l 0,-16.40039 z m 9.101562,6.09961 a 4,4 0 0 0 -4,4 4,4 0 0 0 4,4 4,4 0 0 0 4,-4 4,4 0 0 0 -4,-4 z m 35.398439,0 c 2.2,0 4,1.8 4,4 0,2.2 -1.8,4 -4,4 -2.2,0 -4,-1.8 -4,-4 0,-2.2 1.8,-4 4,-4 z m -30.19922,16.20117 25,0 c 2.9,0 5.50078,1.59961 6.80078,4.09961 l 0.59961,1 c 0.3,0.9 0.5,1.80078 0.5,2.80078 l 0,10.29883 c 0,4.4 -3.60039,7.90039 -7.90039,7.90039 l -25,0 c -4.4,0 -7.900391,-3.60039 -7.900391,-7.90039 l 0,-10.29883 c 0,-4.4 3.600391,-7.90039 7.900391,-7.90039 z m 2.699219,8.90039 c -2.8,0 -5,2.2 -5,5 0,2.8 2.2,5 5,5 2.8,0 5,-2.2 5,-5 0,-2.8 -2.2,-5 -5,-5 z m 19.300781,0 c -2.8,0 -5,2.2 -5,5 0,2.8 2.2,5 5,5 2.8,0 5,-2.2 5,-5 0,-2.8 -2.2,-5 -5,-5 z m -19.300781,3 c 1.1,0 2,0.9 2,2 0,1.2 -0.9,2.1 -2,2 -1.1,0 -2,-0.9 -2,-2 0,-1.1 0.9,-2 2,-2 z m 19.300781,0 c 1.1,0 2,0.9 2,2 0,1.2 -0.8,2.1 -2,2 -1.1,0 -2,-0.9 -2,-2 0,-1.1 0.9,-2 2,-2 z"/>
</svg>