<?xml version="1.0" encoding="UTF-8" standalone="no"?>
<svg
  xmlns:dc="http://purl.org/dc/elements/1.1/"
  xmlns:cc="http://creativecommons.org/ns#"
  xmlns:rdf="http://www.w3.org/1999/02/22-rdf-syntax-ns#"
  xmlns:svg="http://www.w3.org/2000/svg"
  xmlns="http://www.w3.org/2000/svg"
  xmlns:sodipodi="http://sodipodi.sourceforge.net/DTD/sodipodi-0.dtd"
  xmlns:inkscape="http://www.inkscape.org/namespaces/inkscape"
  version="1.1"
  x="0px"
  y="0px"
  viewBox="0 0 106 106"
  xml:space="preserve"
  inkscape:version="0.91 r13725"
  aria-labelledby="cube-title"
  aria-describedby="cube-desc"
  width="106"
  height="106">
  <metadata>
    <rdf:RDF>
      <cc:Work rdf:about="">
        <dc:format>image/svg+xml</dc:format>
        <dc:type rdf:resource="http://purl.org/dc/dcmitype/StillImage" />
        <dc:title>Problem Solvers</dc:title>
      </cc:Work>
    </rdf:RDF>
  </metadata>
  <title id="cube-title">Problem Solvers</title>
  <desc id="cube-desc">Cube made of interconnected nodes with one node highlighted.</desc>
  <path d="m 81.98757,53.398546 0,-19.1 c 4.8,-0.8 8.1,-5.4 7.2,-10.2 -0.9,-4.8 -5.4,-8.1 -10.2,-7.2 -3.7,0.6 -6.6,3.5 -7.2,7.2 l -19.1,0 c -0.8,-4.8 -5.4,-8.1 -10.2,-7.3 -4.8,0.8 -8.1,5.4 -7.3,10.2 0.2,1.3 0.7,2.6 1.5,3.7 l -6.1,6.1 c -4,-2.8 -9.5,-1.9 -12.3,2.1 -2.8,4 -1.9,9.5 2.1,12.3 1.1,0.8 2.3,1.3 3.6,1.5 l 0,19.1 c -4.8,0.8 -8,5.4 -7.2,10.2 0.8,4.8 5.4,8 10.2,7.2 3.7,-0.6 6.6,-3.5 7.2,-7.2 l 19.1,0 c 0.7,4.2 4.4,7.3 8.7,7.3 4.6,0.1 8.4,-3.5 8.5,-8.2 0,-0.1 0,-0.2 0,-0.4 0,-1.8 -0.5,-3.6 -1.5,-5.2 l 6.3,-6.3 c 4,2.8 9.5,1.9 12.3,-2.1 2.8,-4 1.9,-9.5 -2.1,-12.3 -1,-0.7 -2.2,-1.2 -3.5,-1.4 l 0,0 z m -1.5,-33.7 c 3.2,0 5.8,2.6 5.8,5.8 0,3.2 -2.6,5.8 -5.8,5.8 -3.2,0 -5.8,-2.6 -5.8,-5.8 0,-3.2 2.6,-5.8 5.8,-5.8 z m -27.8,7.4 19.1,0 c 0.2,1.3 0.7,2.5 1.5,3.6 l -6.1,6.1 c -4,-2.8 -9.5,-1.9 -12.3,2.1 -0.8,1.1 -1.3,2.3 -1.5,3.6 l -7.9,0 0,-8.2 c 3.7,-0.7 6.6,-3.6 7.2,-7.2 z m 8,33.5 -7.9,0 c -0.6,-3.7 -3.5,-6.6 -7.2,-7.2 l 0,-7.9 7.9,0 c 0.6,3.7 3.5,6.5 7.2,7.2 l 0,7.9 z m 1.5,-10.9 c -3.2,0 -5.8,-2.6 -5.8,-5.8 0,-3.2 2.6,-5.8 5.8,-5.8 3.2,0 5.8,2.6 5.8,5.8 l 0,0 c 0,3.2 -2.6,5.8 -5.8,5.8 z m -18.2,-30 c 3.2,0 5.8,2.6 5.8,5.8 0,3.2 -2.6,5.8 -5.8,5.8 -3.2,0 -5.8,-2.6 -5.8,-5.8 l 0,0 c 0,-3.2 2.6,-5.8 5.8,-5.8 z m -5.1,13 c 1.1,0.8 2.3,1.3 3.6,1.5 l 0,8.2 -8.2,0 c -0.2,-1.3 -0.8,-2.5 -1.5,-3.5 l 6.1,-6.2 z m -19.1,11.2 c 0,-3.2 2.6,-5.8 5.8,-5.8 3.2,0 5.8,2.6 5.8,5.8 0,3.2 -2.6,5.8 -5.8,5.8 l 0,0 c -3.2,0.1 -5.8,-2.5 -5.8,-5.8 z m 5.9,42.4 c -3.2,0 -5.8,-2.6 -5.8,-5.8 0,-3.2 2.6,-5.8 5.8,-5.8 3.2,0 5.8,2.6 5.8,5.8 0,3.2 -2.6,5.8 -5.8,5.8 z m 5,-13 c -1.1,-0.8 -2.3,-1.3 -3.6,-1.6 l 0,-19.1 c 3.7,-0.6 6.6,-3.5 7.2,-7.2 l 8.2,0 0,7.9 c -4.8,0.8 -8,5.4 -7.2,10.2 0.2,1.3 0.7,2.6 1.5,3.6 l -6.1,6.2 z m 22.7,5.7 -19,0 c -0.2,-1.3 -0.8,-2.5 -1.5,-3.6 l 6.1,-6.1 c 4,2.8 9.5,1.9 12.3,-2 0.8,-1.1 1.3,-2.4 1.5,-3.7 l 7.9,0 0,8.1 c -3.7,0.6 -6.6,3.5 -7.3,7.3 l 0,0 z m 8.7,7.3 c -3.2,0 -5.8,-2.6 -5.8,-5.8 0,-3.2 2.6,-5.8 5.8,-5.8 3.1,0 5.5,2.7 5.5,6.1 0.1,3 -2.2,5.4 -5.2,5.5 -0.1,0 -0.2,0 -0.3,0 l 0,0 z m 5,-12.9 c -1,-0.8 -2.2,-1.4 -3.5,-1.6 l 0,-8.1 8.2,0 c 0.2,1.3 0.7,2.5 1.5,3.6 l -6.2,6.1 z m 4.7,-12.8 -8.2,0 0,-7.9 c 4.8,-0.8 8,-5.4 7.2,-10.2 -0.2,-1.3 -0.7,-2.5 -1.5,-3.6 l 6.1,-6.1 c 1.1,0.8 2.3,1.3 3.5,1.5 l 0,19.2 c -3.6,0.5 -6.4,3.4 -7.1,7.1 z m 8.7,7.3 c -3.2,0 -5.8,-2.6 -5.8,-5.8 0,-3.2 2.6,-5.8 5.8,-5.8 3.2,0 5.8,2.6 5.8,5.8 l 0,0 c 0,3.2 -2.6,5.8 -5.8,5.8 0,0 0,0 0,0 l 0,0 z"/>
</svg>