<?xml version="1.0" encoding="UTF-8" standalone="no"?>
<svg
  xmlns:dc="http://purl.org/dc/elements/1.1/"
  xmlns:cc="http://creativecommons.org/ns#"
  xmlns:rdf="http://www.w3.org/1999/02/22-rdf-syntax-ns#"
  xmlns:svg="http://www.w3.org/2000/svg"
  xmlns="http://www.w3.org/2000/svg"
  xmlns:sodipodi="http://sodipodi.sourceforge.net/DTD/sodipodi-0.dtd"
  xmlns:inkscape="http://www.inkscape.org/namespaces/inkscape"
  version="1.1"
  x="0px"
  y="0px"
  viewBox="0 0 106 106"
  xml:space="preserve"
  inkscape:version="0.91 r13725"
  aria-labelledby="rd2d-title"
  aria-describedby="rd2d-desc"
  width="106"
  height="106">
  <metadata>
    <rdf:RDF>
      <cc:Work rdf:about="">
        <dc:format>image/svg+xml</dc:format>
        <dc:type rdf:resource="http://purl.org/dc/dcmitype/StillImage"/>
        <dc:title>Battle Tested</dc:title>
      </cc:Work>
    </rdf:RDF>
  </metadata>
  <title id="rd2d-title">Battle Tested</title>
  <desc id="rd2d-desc">Stylised R2-D2 from Star Wars</desc>
  <path d="m 52.950169,22.099611 c -13.2,0 -23.900391,10.799609 -23.900391,24.099609 l 0,2.199219 c -4,-0.9 -8,1.601562 -9,5.601562 -0.1,0.6 -0.199219,1.099219 -0.199219,1.699219 l 0,40.59961 L 17.149387,104 c -0.3,0.8 0.100391,1.59844 0.900391,1.89844 0.2,0.1 0.3,0.10156 0.5,0.10156 l 17.5,0 c 0.8,0 1.5,-0.7 1.5,-1.5 0,-0.2 3.91e-4,-0.3 -0.09961,-0.5 l -2.59961,-7.70117 0,-4.59961 0.699219,0 4.099609,5.90039 c 0.3,0.4 0.701172,0.59961 1.201172,0.59961 l 4,0 -2,5.80078 c -0.3,0.8 0.09844,1.59844 0.898438,1.89844 0.2,0.1 0.3,0.10156 0.5,0.10156 l 17.500002,0 c 0.8,0 1.5,-0.7 1.5,-1.5 0,-0.2 3.9e-4,-0.3 -0.0996,-0.5 l -2,-5.80078 3.20117,0 c 0.5,0 0.89922,-0.19961 1.19922,-0.59961 l 4.80078,-6 0.79883,0 0,4.69922 L 68.450178,104 c -0.3,0.8 0.10039,1.59844 0.90039,1.89844 0.2,0.1 0.3,0.10156 0.5,0.10156 l 17.5,0 c 0.8,0 1.5,-0.6 1.5,-1.5 0.1,-0.1 0.0996,-0.30039 0.0996,-0.40039 l -2.70117,-7.70117 0,-40.69922 c 0,-4.1 -3.3,-7.5 -7.5,-7.5 -0.6,0 -1.19883,0.09922 -1.79883,0.199219 l 0,-2.398438 0,-0.101562 c 0,-13.2 -10.70039,-23.798828 -23.90039,-23.798828 l -0.09961,0 z m 0,3 0.09961,0 c 11.499999,0 20.899999,9.298828 20.999999,20.798828 l 0,2.300781 -41.999999,0 0.09961,-1.300781 0,-0.699219 c -0.1,-11.6 9.200782,-20.999609 20.800782,-21.099609 z m 0.09961,1.699218 c -2.8,0 -5,2.2 -5,5 0,2.8 2.2,5 5,5 2.8,0 5,-2.2 5,-5 0,-2.8 -2.2,-5 -5,-5 z m 0,2.900391 c 1.1,0 2,0.9 2,2 0,1.1 -0.9,2 -2,2 -1.1,0 -2,-0.9 -2,-2 0,-1.1 0.9,-2 2,-2 z m 11.90039,7.5 a 3.2,3.2 0 0 0 -3.20117,3.199219 3.2,3.2 0 0 0 3.20117,3.201172 3.2,3.2 0 0 0 3.19922,-3.201172 3.2,3.2 0 0 0 -3.199221,-3.199219 z m -37.499999,14 c 0.6,0 1.199218,0.100781 1.699218,0.300781 l 0,40.199219 2.800782,0 0,2.69922 -9,0 0,-38.69922 c 0,-2.5 2,-4.5 4.5,-4.5 z m 4.699218,0 41.800781,0 0,37.5 -20.800781,0 -21,0 0,-37.5 z m 46.552731,0.0293 c 1.74844,-0.0047 3.39844,1.046484 4.14844,2.771484 0.2,0.6 0.39844,1.198828 0.39844,1.798828 l 0,38.701168 -9,0 0,-2.80078 2.70117,0 0,-40.099606 c 0.575,-0.25 1.16914,-0.369532 1.75195,-0.371094 z m -35.25195,6.570312 c -0.8,0 -1.5,0.7 -1.5,1.5 0,0.8 0.7,1.5 1.5,1.5 l 19.199219,0 c 0.8,0 1.5,-0.7 1.5,-1.5 0,-0.8 -0.7,-1.5 -1.5,-1.5 l -19.199219,0 z m 0,6.400388 c -0.8,0 -1.5,0.7 -1.5,1.5 0,0.8 0.7,1.5 1.5,1.5 l 19.199219,0 c 0.8,0 1.5,-0.7 1.5,-1.5 0,-0.8 -0.7,-1.5 -1.5,-1.5 l -19.199219,0 z m 0,6.40039 c -0.8,0 -1.5,0.7 -1.5,1.5 0,0.8 0.7,1.5 1.5,1.5 l 19.199219,0 c 0.8,0 1.5,-0.7 1.5,-1.5 0,-0.8 -0.7,-1.5 -1.5,-1.5 l -19.199219,0 z M 22.649387,97.5 l 9.400391,0 2,5.59961 -13.300781,0 1.90039,-5.59961 z m 51.300781,0 9.29883,0 2,5.59961 -13.19922,0 1.90039,-5.59961 z m -25.800781,0.79883 10.000001,0 1.59961,4.80078 -13.298829,0 1.699218,-4.80078 z"/>
</svg>