<?xml version="1.0" encoding="UTF-8" standalone="no"?>
<svg
  xmlns:dc="http://purl.org/dc/elements/1.1/"
  xmlns:cc="http://creativecommons.org/ns#"
  xmlns:rdf="http://www.w3.org/1999/02/22-rdf-syntax-ns#"
  xmlns:svg="http://www.w3.org/2000/svg"
  xmlns="http://www.w3.org/2000/svg"
  xmlns:sodipodi="http://sodipodi.sourceforge.net/DTD/sodipodi-0.dtd"
  xmlns:inkscape="http://www.inkscape.org/namespaces/inkscape"
  version="1.1"
  x="0px"
  y="0px"
  viewBox="0 0 106 106"
  xml:space="preserve"
  inkscape:version="0.91 r13725"
  width="106"
  height="106">
  <metadata>
    <rdf:RDF>
      <cc:Work rdf:about="">
        <dc:format>image/svg+xml</dc:format>
        <dc:type rdf:resource="http://purl.org/dc/dcmitype/StillImage"/>
        <dc:title>Innovative</dc:title>
      </cc:Work>
    </rdf:RDF>
  </metadata>
  <title>Innovative</title>
  <description>A man in a space suit, ideally in space</description>
  <g transform="matrix(0.99795912,0,0,0.99795912,-30.720399,-54.472585)">
    <path d="m 122.5,76.800003 a 2.5,2.5 0 0 1 -2.5,2.5 2.5,2.5 0 0 1 -2.5,-2.5 2.5,2.5 0 0 1 2.5,-2.5 2.5,2.5 0 0 1 2.5,2.5 z" inkscape:connector-curvature="0" />
    <path d="m 127,68.1 c 0,-2.8 2.3,-5 5,-5 2.7,0 5,2.3 5,5 0,2.7 -2.3,5 -5,5 -2.7,0 -5,-2.2 -5,-5 z m 3,0 c 0,1.1 0.9,2 2,2 1.1,0 2,-0.9 2,-2 0,-1.1 -0.9,-2 -2,-2 -1.1,0 -2,0.9 -2,2 z" inkscape:connector-curvature="0"/>
    <path d="m 88.699219,63.599609 c -10.6,0 -19.298828,8.700782 -19.298828,19.300782 0,2.570982 0.520678,5.024982 1.447265,7.27539 -0.275643,-0.135537 -0.556354,-0.264777 -0.847656,-0.375 -0.1,0 -0.09922,-0.0016 -0.199219,-0.101562 -0.3,-0.1 -0.600781,-0.198828 -0.800781,-0.298828 -0.1,0 -0.200781,3.9e-4 -0.300781,-0.09961 -0.3,-0.1 -0.498828,-0.101172 -0.798828,-0.201172 l -0.300782,0 C 67.199609,89.099609 66.9,89 66.5,89 l -0.09961,0 -8.201172,0 c -0.8,0 -1.5,0.7 -1.5,1.5 l 0,10.19922 0,6.20117 0,11.69922 c 0,0.8 0.7,1.5 1.5,1.5 l 8.201172,0 0.09961,0 c 0.4,0 0.799609,3.9e-4 1.099609,-0.0996 l 0.300782,0 c 0.3,0 0.498828,-0.0992 0.798828,-0.19922 0.06683,0 0.134344,-0.0131 0.201172,-0.043 l 0,2.04297 c 0,4.91952 2.42135,9.24978 6.099609,11.9375 l 0,16.15039 c -0.122508,0.21504 -0.199219,0.45628 -0.199219,0.71094 l 0,8.70117 c 0,0.8 0.7,1.5 1.5,1.5 l 15.59961,0 1.699218,0 c 0.5,0 0.901172,-0.20156 1.201172,-0.60156 0.3,-0.4 0.299219,-0.89844 0.199219,-1.39844 l -3,-8.70117 c -0.2,-0.6 -0.800391,-1 -1.400391,-1 l -0.599609,0 0,-13.94336 c 2.150917,-1.0282 4.009121,-2.57123 5.441406,-4.46289 2.607852,0.85093 5.606754,0.25848 7.658204,-1.79297 2.9,-2.9 2.9,-7.69961 0,-10.59961 L 98.5,113.70117 l 0,-5.90039 c 0,-2.6653 -0.713891,-5.1509 -1.939453,-7.30469 C 103.27763,97.465123 108,90.70392 108,82.900391 c 0,-10.7 -8.700781,-19.300782 -19.300781,-19.300782 z m 0,3 c 1.812991,0 3.550393,0.308735 5.179687,0.855469 l -8.36914,17.751953 c -0.231356,-0.04932 -0.465972,-0.09006 -0.708985,-0.107422 -2.8,-0.3 -5.10039,1.79961 -5.40039,4.59961 -0.3,2.8 1.799609,5.20039 4.599609,5.40039 1.999409,0.142815 3.778752,-0.896716 4.714844,-2.480468 l 9.308594,3.638671 c -2.643618,1.848833 -5.854558,2.941407 -9.324219,2.941407 -9,0 -16.298828,-7.298828 -16.298828,-16.298828 0,-9 7.298828,-16.300782 16.298828,-16.300782 z m 8.634765,2.966797 c 0.299414,0.0041 0.602735,0.08437 0.865235,0.234375 2.600001,1.8 4.501561,4.298828 5.601561,7.298828 0.3,0.8 -0.10039,1.600391 -0.90039,1.900391 -0.2,0.1 -0.39961,0.09961 -0.59961,0.09961 -0.6,0 -1.10078,-0.4 -1.30078,-1 -0.9,-2.4 -2.4,-4.398828 -4.5,-5.798828 -0.7,-0.5 -0.800391,-1.401562 -0.400391,-2.101562 0.25,-0.4375 0.735352,-0.639649 1.234375,-0.632813 z M 84.599609,88 c 1.1,0.1 2.000391,1.099219 1.900391,2.199219 -0.1,1.1 -1.099219,2.00039 -2.199219,1.90039 -1.1,-0.1 -2.00039,-1.099218 -1.90039,-2.199218 0.1,-1.1 1.099218,-2.000391 2.199218,-1.900391 z m -24.90039,3.800781 6.701172,0 0.298828,0 c 0.4,0 0.801562,0.09961 1.101562,0.09961 l 0.09961,0 c 0.4,0.1 0.7,0.198828 1,0.298828 l 0.09961,0 c 0.3,0.1 0.7,0.3 1,0.5 0.3,0.2 0.600391,0.401172 0.900391,0.701172 1.4,1.2 2.298828,3 2.298828,5 l 0,1.900389 0,6.59961 0,3.40039 c 0,2 -0.898828,3.8 -2.298828,5 C 70.600391,115.60078 70.3,115.8 70,116 c -0.3,0.2 -0.6,0.4 -1,0.5 l -0.09961,0 c -0.3,0.1 -0.7,0.20078 -1,0.30078 l -0.09961,0 c -0.4,0.1 -0.801562,0.0996 -1.101562,0.0996 l -0.298828,0 -6.701172,0 0,-10.20117 0,-6.19922 0,-8.699219 z m 17.332031,6.410157 c 3.250524,2.488632 7.290404,3.988282 11.667969,3.988282 1.683251,0 3.310896,-0.24081 4.871093,-0.65234 1.183375,1.83679 1.893674,4.01261 1.929688,6.35351 l 0,2.79883 -4.599609,-4.59961 c -2.9,-2.9 -7.69961,-2.9 -10.59961,0 -2.9,2.9 -2.9,7.69961 0,10.59961 L 92.5,128.90039 c 0.127522,0.12752 0.261937,0.24307 0.396484,0.35938 -2.163524,2.70103 -5.479995,4.43945 -9.197265,4.43945 -6.5,0 -11.798828,-5.29883 -11.798828,-11.79883 l 0,-3.60351 c 2.579079,-1.7585 4.298828,-4.76294 4.298828,-8.09766 l 0,-3.39844 0,-6.20117 0,-1.775391 c 0.265125,-0.220005 0.547714,-0.417755 0.832031,-0.613281 z m 8.568359,8.714842 c 1.15,0 2.301172,0.42344 3.201172,1.27344 L 101,120.40039 c 1.8,1.8 1.8,4.60039 0,6.40039 -1.8,1.8 -4.600391,1.8 -6.400391,0 L 82.400391,114.59961 c -1.8,-1.8 -1.8,-4.60039 0,-6.40039 0.9,-0.85 2.049218,-1.27344 3.199218,-1.27344 z M 78,135.45117 c 1.758833,0.73862 3.685904,1.14844 5.699219,1.14844 1.13601,0 2.237546,-0.14091 3.300781,-0.38672 l 0,12.88672 -9,0 0,-13.64844 z m -0.199219,16.64844 11.699219,0 2,5.70117 -12,0 -1.699219,0 0,-5.70117 z" inkscape:connector-curvature="0" />
    <path d="m 115.98438,54.583984 a 1.50015,1.50015 0 0 0 -1.04493,2.576172 l 1.43946,1.439453 -1.43946,1.439453 a 1.50015,1.50015 0 1 0 2.1211,2.121094 l 1.43945,-1.439453 1.43945,1.439453 a 1.50015,1.50015 0 1 0 2.1211,-2.121094 l -1.43946,-1.439453 1.43946,-1.439453 a 1.50015,1.50015 0 0 0 -1.08985,-2.574218 1.50015,1.50015 0 0 0 -1.03125,0.453124 L 118.5,56.478516 117.06055,55.039062 a 1.50015,1.50015 0 0 0 -1.07617,-0.455078 z" inkscape:connector-curvature="0" />
    <path d="M 49.476562,71.578125 A 1.50015,1.50015 0 0 0 48,73.099609 l 0,2 -2,0 a 1.50015,1.50015 0 1 0 0,3 l 2,0 0,2 a 1.50015,1.50015 0 1 0 3,0 l 0,-2 2,0 a 1.50015,1.50015 0 1 0 0,-3 l -2,0 0,-2 a 1.50015,1.50015 0 0 0 -1.523438,-1.521484 z" inkscape:connector-curvature="0" />
  </g>
</svg>