<?xml version="1.0" encoding="UTF-8" standalone="no"?>
<svg
   xmlns:dc="http://purl.org/dc/elements/1.1/"
   xmlns:cc="http://creativecommons.org/ns#"
   xmlns:rdf="http://www.w3.org/1999/02/22-rdf-syntax-ns#"
   xmlns:svg="http://www.w3.org/2000/svg"
   xmlns="http://www.w3.org/2000/svg"
   fill="#000000"
   height="33"
   width="300"
   aria-labelledby="buildit-title"
   aria-describedby="buildit-desc"
   viewBox="0 0 501.3 54.6"
   y="0px"
   x="0px"
   id="buildit-logo"
   version="1.1">
  <metadata
     id="metadata3448">
    <rdf:RDF>
      <cc:Work
         rdf:about="">
        <dc:format>image/svg+xml</dc:format>
        <dc:type
           rdf:resource="http://purl.org/dc/dcmitype/StillImage" />
        <dc:title>buildit @ wipro digital</dc:title>
      </cc:Work>
    </rdf:RDF>
  </metadata>
  <defs
     id="defs3446" />
  <desc
     id="buildit-desc">Logo</desc>
  <title
     id="buildit-title">buildit @ wipro digital</title>
  <path
     style="fill:#f7f5f5;fill-opacity:1"
     id="path3436"
     d="M 100.5 40.2 L 100.2 36.8 C 99.5 38.1 98.3 39.1 96.9 39.8 C 95.4 40.5 94 40.8 92.5 40.8 C 90.9 40.8 89.5 40.6 88.3 40.1 C 87 39.6 86 38.9 85.2 38 C 84 36.7 83 35.2 82.4 33.3 C 81.8 31.4 81.5 29.4 81.5 27.3 C 81.5 25.1 81.8 23 82.5 21.1 C 83.2 19.2 84.1 17.6 85.4 16.3 C 86.2 15.5 87.3 14.9 88.4 14.4 C 89.6 13.9 90.9 13.7 92.5 13.7 C 93.2 13.7 93.9 13.8 94.7 14 C 95.4 14.2 96.1 14.4 96.8 14.7 C 97.5 15 98.1 15.4 98.7 15.8 C 99.3 16.3 99.7 16.8 100.1 17.4 L 100.1 3.4 L 104.4 3.4 L 104.4 40.2 Z M 100.2 27.3 C 100.2 25.7 100 24.1 99.6 22.7 C 99.2 21.3 98.4 20.1 97.4 19.1 C 96.9 18.6 96.3 18.2 95.6 17.9 C 94.9 17.6 94.1 17.4 93.2 17.4 C 91.8 17.4 90.6 17.7 89.6 18.3 C 88.6 18.9 87.9 19.6 87.4 20.6 C 86.9 21.6 86.5 22.6 86.3 23.8 C 86.1 25 86 26.2 86 27.3 C 86 28.5 86.1 29.7 86.3 30.8 C 86.5 32 86.9 33 87.4 34 C 87.9 35 88.7 35.7 89.6 36.3 C 90.6 36.9 91.7 37.2 93.2 37.2 C 94.2 37.2 95 37 95.6 36.7 C 96.3 36.4 96.8 36 97.4 35.5 C 98.5 34.5 99.2 33.4 99.6 31.9 C 100 30.4 100.2 28.9 100.2 27.3 Z M 57.2 8.4 L 57.2 3.3 L 62.2 3.3 L 62.2 8.4 Z M 57.5 40.2 L 57.5 14.4 L 61.9 14.4 L 61.9 40.2 Z M 22.8 27.3 C 22.8 29.4 22.5 31.4 21.9 33.3 C 21.3 35.2 20.3 36.7 19.1 38 C 18.2 38.9 17.2 39.6 16 40.1 C 14.8 40.6 13.4 40.8 11.8 40.8 C 10.3 40.8 8.9 40.5 7.4 39.8 C 5.9 39.1 4.8 38.1 4.1 36.8 L 3.8 40.2 L 0 40.2 L 0 3.3 L 4.3 3.3 L 4.3 17.3 C 4.6 16.7 5.1 16.2 5.7 15.7 C 6.3 15.2 6.9 14.9 7.6 14.6 C 8.3 14.3 9 14.1 9.7 13.9 C 10.4 13.7 11.2 13.6 11.9 13.6 C 13.4 13.6 14.8 13.8 16 14.3 C 17.2 14.8 18.2 15.4 19 16.2 C 20.3 17.5 21.3 19 21.9 21 C 22.5 23 22.8 25.1 22.8 27.3 Z M 18.4 27.3 C 18.4 26.1 18.3 24.9 18.1 23.8 C 17.9 22.6 17.5 21.6 17 20.6 C 16.5 19.6 15.7 18.9 14.8 18.3 C 13.8 17.7 12.7 17.4 11.2 17.4 C 10.2 17.4 9.4 17.6 8.8 17.9 C 8.1 18.2 7.6 18.6 7 19.1 C 5.9 20.1 5.2 21.3 4.8 22.7 C 4.4 24.1 4.2 25.7 4.2 27.3 C 4.2 28.9 4.4 30.5 4.8 31.9 C 5.2 33.3 6 34.5 7 35.5 C 7.4 36 8 36.4 8.7 36.7 C 9.4 37 10.2 37.2 11.1 37.2 C 12.5 37.2 13.7 36.9 14.7 36.3 C 15.7 35.7 16.4 35 16.9 34 C 17.4 33 17.8 32 18 30.8 C 18.3 29.6 18.4 28.5 18.4 27.3 Z M 45.5 40.2 L 45.1 36.3 C 44.4 37.8 43.4 38.9 41.9 39.7 C 40.5 40.5 39 40.8 37.4 40.8 C 34.4 40.8 32.2 40 30.8 38.3 C 29.3 36.6 28.6 34.3 28.6 31.3 L 28.6 14.4 L 33 14.4 L 33 30.7 C 33 32.6 33.4 34.2 34.2 35.2 C 35 36.3 36.4 36.8 38.5 36.8 C 39.4 36.8 40.2 36.6 40.9 36.3 C 41.6 35.9 42.2 35.5 42.8 34.9 C 43.6 34.1 44.2 33 44.5 31.7 C 44.8 30.4 45 29.1 45 27.8 L 45 14.4 L 49.3 14.4 L 49.3 40.2 Z M 78.4 40.2 C 78.2 40.3 77.9 40.3 77.6 40.4 C 77.1 40.5 76.3 40.6 75.3 40.6 C 73.4 40.6 72 40.1 71.2 39 C 70.3 37.9 69.9 36.3 69.9 34.3 L 69.9 3.3 L 74.2 3.3 L 74.2 33.8 C 74.2 34.7 74.4 35.3 74.7 35.8 C 75 36.2 75.7 36.5 76.5 36.5 L 77.9 36.5 C 78 36.5 78.2 36.5 78.3 36.4 L 78.3 40.2 Z M 112.2 8.4 L 112.2 3.3 L 117.2 3.3 L 117.2 8.4 Z M 112.5 40.2 L 112.5 14.4 L 116.9 14.4 L 116.9 40.2 Z M 138.5 39.8 C 137.9 40 137.2 40.1 136.4 40.3 C 135.6 40.5 134.6 40.5 133.4 40.5 C 132 40.5 130.9 40.3 129.9 39.9 C 128.9 39.5 128.3 39 127.7 38.3 C 127.2 37.7 126.8 36.9 126.6 36.1 C 126.4 35.3 126.3 34.4 126.3 33.5 L 126.3 18.1 L 121.3 18.1 L 121.3 14.4 L 126.3 14.4 L 126.3 7.8 L 130.6 6.8 L 130.6 14.4 L 138.2 14.4 L 138.2 18.1 L 130.6 18.1 L 130.6 33 C 130.6 34.3 130.9 35.2 131.4 35.7 C 132 36.2 132.8 36.5 134 36.5 C 134.5 36.5 135 36.5 135.5 36.4 C 136 36.4 136.5 36.3 136.9 36.2 C 137.4 36.1 137.9 36 138.4 35.9 L 138.4 39.8 Z" />
  <path
     style="fill:#f7f5f5;fill-opacity:1"
     id="path3438"
     d="M 193.3 20.8 C 193.3 22.3 193.1 23.9 192.7 25.5 C 192.3 27.1 191.7 28.6 190.9 29.9 C 190.1 31.2 189 32.3 187.7 33.2 C 186.4 34.1 184.8 34.5 182.9 34.5 C 181.6 34.5 180.5 34.2 179.6 33.6 C 178.7 33 178.1 32 177.9 30.7 C 177.4 31.9 176.6 32.8 175.4 33.5 C 174.2 34.2 173 34.5 171.8 34.5 C 170.5 34.5 169.3 34.3 168.3 33.8 C 167.3 33.3 166.5 32.6 165.8 31.8 C 165.1 30.9 164.6 29.9 164.3 28.7 C 164 27.5 163.8 26.2 163.8 24.8 C 163.8 23.4 164 22 164.4 20.7 C 164.8 19.4 165.4 18.3 166.2 17.4 C 167 16.5 168 15.7 169.1 15.2 C 170.3 14.6 171.6 14.4 173.1 14.4 C 174.1 14.4 175 14.6 175.9 15.1 C 176.8 15.6 177.5 16.2 178 17.1 L 178.6 15 L 182 15 L 181.1 27.9 C 181.1 28.3 181.1 28.7 181.1 29 C 181.1 29.4 181.2 29.7 181.4 30 C 181.6 30.3 181.8 30.6 182.1 30.7 C 182.4 30.9 182.8 31 183.2 31 C 184.3 31 185.3 30.6 186 29.9 C 186.7 29.2 187.4 28.3 187.8 27.2 C 188.2 26.1 188.6 25.1 188.8 23.9 C 189 22.7 189.1 21.7 189.1 20.9 C 189.1 18.8 188.8 16.9 188.1 15.4 C 187.5 13.8 186.6 12.5 185.4 11.3 C 184.1 10 182.5 9 180.6 8.3 C 178.7 7.6 176.6 7.3 174.2 7.3 C 171.8 7.3 169.7 7.7 167.7 8.4 C 165.8 9.1 164.1 10.1 162.7 11.4 C 161 12.9 159.6 14.8 158.7 17 C 157.8 19.2 157.3 21.8 157.3 24.6 C 157.3 27 157.7 29.2 158.5 31.2 C 159.3 33.2 160.4 35 161.8 36.5 C 163.2 37.9 164.8 39 166.6 39.7 C 168.5 40.5 170.5 40.8 172.8 40.8 C 175.1 40.8 177.3 40.6 179.3 40.3 C 181.3 39.9 183.4 39.3 185.6 38.4 L 185.6 42 C 183.6 43 181.5 43.7 179.3 44 C 177.2 44.4 175 44.5 172.7 44.5 C 169.9 44.5 167.4 44.1 165.1 43.2 C 162.8 42.3 160.8 41.1 159.1 39.6 C 157.1 37.8 155.5 35.5 154.5 32.8 C 153.5 30.1 153 27.3 153 24 C 153 20.8 153.5 18 154.6 15.6 C 155.6 13.1 157.1 11 159 9.2 C 160.9 7.4 163.1 5.9 165.7 4.9 C 168.3 3.9 171.1 3.4 174.3 3.4 C 177.2 3.4 179.9 3.9 182.4 4.8 C 184.8 5.7 186.9 7 188.7 8.8 C 190.2 10.3 191.4 12 192.2 14 C 192.9 15.9 193.3 18.2 193.3 20.8 Z M 177.7 23.6 C 177.7 22.9 177.6 22.1 177.5 21.4 C 177.3 20.7 177.1 20.1 176.7 19.5 C 176.3 19 175.9 18.5 175.3 18.2 C 174.7 17.9 174 17.7 173.1 17.7 C 172.2 17.7 171.4 17.9 170.8 18.4 C 170.2 18.8 169.7 19.4 169.3 20.1 C 168.9 20.8 168.6 21.5 168.5 22.3 C 168.3 23.1 168.3 23.9 168.3 24.7 C 168.3 25.4 168.4 26.1 168.5 26.8 C 168.6 27.5 168.9 28.2 169.2 28.7 C 169.5 29.3 170 29.7 170.5 30.1 C 171.1 30.5 171.8 30.6 172.6 30.6 C 173.6 30.6 174.5 30.4 175.1 30 C 175.7 29.6 176.3 29 176.7 28.3 C 177.1 27.6 177.4 26.9 177.5 26 C 177.6 25.3 177.7 24.4 177.7 23.6 Z" />
  <path
     style="fill:#f7f5f5;fill-opacity:1"
     id="path3440"
     d="M 392.9 3.3 L 398 3.3 L 398 8.4 L 392.9 8.4 Z M 392.9 40.2 L 392.9 14.3 L 398 14.3 L 398 40.2 Z M 432.4 3.3 L 437.5 3.3 L 437.5 8.4 L 432.4 8.4 Z M 432.4 40.2 L 432.4 14.3 L 437.5 14.3 L 437.5 40.2 Z M 382.1 36.8 C 381.3 38.1 380.2 39.1 378.8 39.8 C 377.3 40.5 375.9 40.8 374.4 40.8 C 372.8 40.8 371.4 40.6 370.2 40.1 C 369 39.6 368 38.9 367.1 38 C 365.9 36.7 364.9 35.2 364.3 33.3 C 363.7 31.4 363.4 29.4 363.4 27.3 C 363.4 25 363.7 23 364.4 21 C 365.1 19.1 366 17.5 367.3 16.2 C 368.2 15.4 369.2 14.8 370.3 14.3 C 371.5 13.8 372.8 13.6 374.4 13.6 C 375.1 13.6 375.8 13.7 376.6 13.9 C 377.3 14.1 378 14.3 378.7 14.6 C 379.4 14.9 380 15.3 380.6 15.8 C 381.2 16.3 381.6 16.8 382 17.4 L 382 3.3 L 386.4 3.3 L 386.4 40.3 L 382.4 40.2 Z M 382.1 27.3 C 382.1 25.7 381.9 24.1 381.5 22.7 C 381.1 21.2 380.3 20 379.2 19.1 C 378.7 18.6 378.1 18.2 377.4 17.9 C 376.7 17.6 375.9 17.4 375 17.4 C 373.6 17.4 372.4 17.7 371.4 18.3 C 370.4 18.9 369.7 19.6 369.1 20.6 C 368.6 21.6 368.2 22.6 367.9 23.8 C 367.7 25 367.6 26.2 367.6 27.4 C 367.6 28.6 367.7 29.8 367.9 31 C 368.1 32.2 368.5 33.2 369.1 34.2 C 369.6 35.2 370.4 35.9 371.4 36.5 C 372.4 37.1 373.6 37.4 375 37.4 C 376 37.4 376.8 37.2 377.4 36.9 C 378.1 36.6 378.7 36.2 379.2 35.7 C 380.3 34.7 381 33.5 381.5 32.1 C 381.9 30.5 382.1 28.9 382.1 27.3 Z M 427.3 44.1 C 427.3 45.2 427.1 46.2 426.7 47.1 C 426.3 48 425.8 48.7 425.1 49.3 C 424.5 49.9 423.8 50.4 422.9 50.8 C 422.1 51.2 421.2 51.5 420.3 51.7 C 419.4 51.9 418.4 52.1 417.5 52.2 C 416.5 52.3 415.6 52.3 414.7 52.3 C 413.8 52.3 413 52.3 412.1 52.2 C 411.2 52.1 410.3 52 409.5 51.7 C 408.6 51.5 407.8 51.2 407 50.8 C 406.2 50.4 405.5 49.9 404.9 49.3 C 404.4 48.8 403.9 48.1 403.6 47.4 C 403.3 46.6 403.1 45.8 403.1 44.7 C 403.1 43.3 403.5 42.2 404.2 41.2 C 404.9 40.2 405.8 39.5 406.8 39 C 405.9 38.7 405.2 38.1 404.6 37.3 C 404 36.5 403.8 35.6 403.8 34.6 C 403.8 33.4 404.1 32.4 404.8 31.6 C 405.4 30.7 406.3 30.1 407.3 29.6 C 406.3 28.7 405.6 27.7 405.1 26.5 C 404.6 25.3 404.3 24.1 404.3 22.9 C 404.3 21.5 404.5 20.3 405 19.3 C 405.4 18.3 406 17.4 406.8 16.6 C 407.7 15.7 408.8 15 410 14.4 C 411.2 13.9 412.7 13.6 414.5 13.6 C 415.7 13.6 416.8 13.7 417.8 14 C 418.8 14.3 419.7 14.6 420.4 15.1 C 420.8 13.9 421.5 13 422.5 12.4 C 423.4 11.8 424.5 11.5 425.8 11.5 C 426 11.5 426.2 11.5 426.4 11.5 C 426.6 11.5 426.8 11.5 427 11.6 L 427 15.1 C 426.9 15.1 426.7 15 426.5 15 L 426 15 C 425.1 15 424.4 15.2 423.9 15.6 C 423.3 16 423 16.6 422.9 17.3 C 423.4 18 423.9 18.8 424.2 19.6 C 424.5 20.5 424.6 21.5 424.6 22.6 C 424.6 23.8 424.4 25 424 26 C 423.6 27.1 423 28 422.3 28.8 C 421.4 29.7 420.4 30.5 419.1 31 C 417.8 31.6 416.3 31.8 414.6 31.8 C 413.7 31.8 413 31.7 412.4 31.6 C 411.8 31.5 411.1 31.3 410.3 31 C 409.8 31.2 409.3 31.4 408.8 31.8 C 408.3 32.2 408.1 32.7 408.1 33.3 C 408.1 33.9 408.2 34.3 408.5 34.7 C 408.8 35 409.1 35.3 409.4 35.5 C 409.8 35.7 410.2 35.8 410.7 35.9 C 411.2 36 411.6 36 412 36 L 417.1 36 C 418.6 36 420.2 36.2 421.8 36.6 C 423.4 37 424.7 37.7 425.7 38.8 C 426.3 39.4 426.8 40.1 427.2 41 C 427.1 42 427.3 43 427.3 44.1 Z M 423 44.1 C 423 43.1 422.8 42.4 422.4 41.8 C 422 41.3 421.4 40.8 420.8 40.6 C 420.1 40.3 419.4 40.2 418.6 40.1 C 417.8 40 417 40 416.2 40 L 410.2 40 C 409.3 40.3 408.5 40.8 407.9 41.5 C 407.3 42.2 406.9 43.1 406.9 44.1 C 406.9 45.2 407.3 46.1 408 46.8 C 408.4 47.2 408.9 47.5 409.5 47.8 C 410.1 48 410.7 48.2 411.3 48.3 C 411.9 48.4 412.5 48.5 413.2 48.5 C 413.8 48.5 414.4 48.6 415 48.6 C 415.5 48.6 416.1 48.6 416.8 48.5 C 417.4 48.5 418.1 48.4 418.7 48.2 C 419.3 48.1 420 47.9 420.5 47.6 C 421.1 47.4 421.6 47 422 46.6 C 422.7 46 423 45.1 423 44.1 Z M 420 22.9 C 420 21.3 419.5 19.9 418.4 18.8 C 417.4 17.7 415.9 17.2 414.1 17.2 C 412.3 17.2 410.9 17.7 409.8 18.8 C 408.7 19.9 408.2 21.2 408.2 22.9 C 408.2 24.5 408.7 25.9 409.8 27 C 410.8 28.1 412.3 28.7 414.1 28.7 C 415.9 28.7 417.3 28.1 418.4 27 C 419.5 25.9 420 24.5 420 22.9 Z M 458.5 40.4 C 457.7 40.6 456.6 40.6 455.5 40.6 C 454.1 40.6 452.9 40.4 452 40 C 451.1 39.6 450.4 39.1 449.8 38.4 C 449.3 37.8 448.9 37 448.7 36.2 C 448.5 35.4 448.4 34.5 448.4 33.6 L 448.4 18.1 L 443.4 18.1 L 443.4 14.4 L 448.4 14.4 L 448.4 7.7 L 452.8 6.7 L 452.8 14.3 L 460.5 14.3 L 460.5 18 L 452.8 18 L 452.8 33 C 452.8 34.3 453.1 35.2 453.6 35.7 C 454.2 36.2 455 36.5 456.2 36.5 C 456.7 36.5 457.2 36.5 457.7 36.4 C 458.2 36.4 458.7 36.3 459.1 36.2 C 459.6 36.1 460.1 36 460.6 35.9 L 460.6 39.9 C 460 40.1 459.3 40.2 458.5 40.4 Z M 489.7 40 C 489.2 40.2 488.8 40.4 488.3 40.5 C 487.9 40.6 487.4 40.6 486.8 40.6 C 485.6 40.6 484.7 40.2 484.1 39.4 C 483.4 38.6 483.1 37.7 483.1 36.6 L 483 36.6 C 482.2 37.9 481.1 38.9 479.6 39.7 C 478.1 40.5 476.5 40.9 474.6 40.9 C 473.1 40.9 471.8 40.7 470.7 40.2 C 469.6 39.7 468.7 39.1 467.9 38.4 C 467.2 37.6 466.6 36.8 466.2 35.8 C 465.8 34.8 465.6 33.9 465.6 32.9 C 465.6 32.1 465.7 31.2 466 30.3 C 466.3 29.4 466.8 28.5 467.5 27.8 C 468.2 27 469.2 26.4 470.3 25.8 C 471.5 25.3 473 24.9 474.7 24.8 L 482.6 24.3 L 482.6 22.4 C 482.6 21.8 482.5 21.1 482.4 20.4 C 482.2 19.7 481.9 19.1 481.3 18.5 C 480.9 18.1 480.3 17.8 479.6 17.5 C 478.9 17.3 478.1 17.1 477 17.1 C 475.8 17.1 474.8 17.2 474.1 17.5 C 473.3 17.8 472.8 18.2 472.3 18.6 C 471.4 19.5 471 20.5 471 21.7 L 466.7 21.7 C 466.7 20.5 466.9 19.5 467.3 18.6 C 467.7 17.7 468.2 17 468.9 16.3 C 469.8 15.4 470.9 14.7 472.4 14.2 C 473.8 13.7 475.3 13.5 476.9 13.5 C 479.4 13.5 481.4 14 482.9 14.9 C 484.4 15.8 485.4 17 486 18.5 C 486.5 19.7 486.8 21 486.8 22.5 L 486.8 35 C 486.8 35.7 486.9 36.1 487.2 36.4 C 487.5 36.6 487.8 36.8 488.2 36.8 L 488.6 36.8 C 488.7 36.8 488.9 36.8 489 36.7 L 489.4 36.6 L 489.4 40 Z M 475.8 28.1 C 475.2 28.1 474.5 28.2 473.8 28.4 C 473.1 28.6 472.5 28.9 472 29.2 C 471.5 29.6 471 30 470.7 30.6 C 470.4 31.2 470.2 31.9 470.2 32.7 C 470.2 33.9 470.6 34.9 471.4 35.8 C 472.2 36.7 473.5 37.2 475.3 37.2 C 476.3 37.2 477.3 37 478.2 36.7 C 479.1 36.4 479.9 35.8 480.6 35.1 C 481.4 34.3 481.9 33.4 482.3 32.4 C 482.6 31.4 482.8 30.3 482.8 29.2 L 482.8 27.7 Z M 501.3 40.2 C 501.1 40.3 500.8 40.3 500.5 40.4 C 500 40.5 499.2 40.6 498.2 40.6 C 496.3 40.6 494.9 40.1 494.1 39 C 493.2 37.9 492.8 36.3 492.8 34.3 L 492.8 3.3 L 497.2 3.3 L 497.2 34 C 497.2 34.9 497.4 35.6 497.7 36 C 498 36.4 498.7 36.7 499.5 36.7 L 500.9 36.7 C 501 36.7 501.2 36.7 501.3 36.6 Z" />
  <path
     style="fill:#f7f5f5;fill-opacity:1"
     id="path3442"
     d="M 334.4 12.1 C 326.7 12.1 320.4 18.6 320.4 26.5 C 320.4 34.5 326.7 40.9 334.4 40.9 C 342.1 40.9 348.4 34.4 348.4 26.5 C 348.5 18.6 342.2 12.1 334.4 12.1 M 334.4 34.2 C 330.4 34.2 327.2 30.8 327.2 26.6 C 327.2 22.4 330.4 19 334.4 19 C 338.4 19 341.6 22.4 341.6 26.6 C 341.6 30.8 338.4 34.2 334.4 34.2 M 246.4 12.9 L 241.2 12.9 C 240.8 12.9 240.3 13.2 240.2 13.7 L 235.9 26.9 L 228.6 12.8 C 228.4 12.4 227.9 12.1 227.4 12.1 L 226.9 12.1 C 226.5 12.1 225.9 12.4 225.7 12.8 L 218.4 26.9 L 214.1 13.7 C 214 13.3 213.5 12.9 213.1 12.9 L 207.9 12.9 C 207.2 12.9 206.9 13.4 207.1 14 L 215.5 40.2 C 215.6 40.6 216.1 41 216.5 41 L 217.3 41 C 217.7 41 218.3 40.7 218.5 40.3 L 227.1 23.7 L 235.7 40.3 C 235.9 40.7 236.4 41 236.9 41 L 237.7 41 C 238.1 41 238.6 40.7 238.7 40.2 L 247.1 14 C 247.4 13.5 247 12.9 246.4 12.9 M 258.4 12.9 L 253.2 12.9 C 252.5 12.9 252 13.4 252 14.1 L 252 39 C 252 39.7 252.5 40.2 253.2 40.2 L 258.4 40.2 C 259.1 40.2 259.6 39.7 259.6 39 L 259.6 14.1 C 259.6 13.5 259.1 12.9 258.4 12.9 M 281.2 12.1 C 277.6 12.1 274.4 13.7 272 16.2 L 272 16.2 L 271.1 13.7 C 270.9 13.3 270.5 12.9 270 12.9 L 267.6 12.9 C 266.9 12.9 266.4 13.4 266.4 14.1 L 266.4 53.4 C 266.4 54.1 266.9 54.6 267.6 54.6 L 272.8 54.6 C 273.5 54.6 274 54.1 274 53.4 L 274 39.8 C 276.2 40.6 278.6 41 281.2 41 C 288.5 41 294.4 34.5 294.4 26.6 C 294.4 18.6 288.5 12.1 281.2 12.1 M 279.8 34.2 C 277.6 34.2 275.6 33.6 274 32.7 L 274 22.3 C 275.3 20.3 277.4 18.9 279.8 18.9 C 283.7 18.9 286.8 22.3 286.8 26.5 C 286.8 30.8 283.7 34.2 279.8 34.2 M 313.7 12.1 C 308.7 12.1 305.8 16.2 305.8 16.2 L 304.9 13.7 C 304.7 13.3 304.3 12.9 303.8 12.9 L 301.3 12.9 C 300.6 12.9 300.1 13.4 300.1 14.1 L 300.1 39 C 300.1 39.7 300.6 40.2 301.3 40.2 L 306.5 40.2 C 307.2 40.2 307.7 39.7 307.7 39 L 307.7 21.6 C 310.7 17.9 314.6 19.2 315.4 19.5 C 316.2 19.8 316.8 19.4 317 18.9 C 317.2 18.4 318.4 15.8 318.8 14.8 C 319.3 13.9 318.7 12.1 313.7 12.1 M 256.9 0.1 C 254.7 -0.5 252.3 0.8 251.7 3.1 C 251.1 5.3 252.4 7.7 254.7 8.3 C 256.9 8.9 259.3 7.6 259.9 5.3 C 260.5 3.1 259.2 0.7 256.9 0.1" />
</svg>
