<?xml version="1.0" encoding="utf-8"?>
<!-- Generator: Adobe Illustrator 23.0.6, SVG Export Plug-In . SVG Version: 6.00 Build 0)  -->
<svg version="1.1" id="Layer_1" xmlns="http://www.w3.org/2000/svg" xmlns:xlink="http://www.w3.org/1999/xlink" x="0px" y="0px"
	 viewBox="0 0 32 32" style="enable-background:new 0 0 32 32;" xml:space="preserve">
<style type="text/css">
	.st0{fill:#FFFFFF;}
	.st1{fill:#4D4848;}
	.st2{fill:#3D3A3A;}
	.st3{fill:#008D7C;}
</style>
<circle class="st0" cx="16" cy="16" r="16"/>
<path class="st1" d="M5.9,19.9c0.2,0.5,1.1,0.7,2.5,0.6c0.3,0.5,0.7,1,1.1,1.5c-4,1.1-6.8,1.1-7.4,0C1.2,20,6.6,15.6,14.3,12
	c3.6-1.8,7.5-3.1,11.5-3.7c-0.4,0.6-0.6,1.4-0.4,2.1c-1.3-0.8-5.8,0.2-10.7,2.5C9.2,15.4,5.3,18.5,5.9,19.9z M25.7,11.2
	c-0.2,0.7-0.6,1.3-1.2,1.8c0.2,0.6,0.3,1.2,0.4,1.8c1-0.7,1.9-1.4,2.8-2.2C26.9,12.4,26.1,12,25.7,11.2z"/>
<circle class="st2" cx="28.2" cy="9.7" r="1.9"/>
<path class="st3" d="M13.6,10.6c1.9-0.9,3.7-1.6,5.5-2.2C14.9,6.8,10.2,8.8,8.5,13c0,0.1-0.1,0.2-0.1,0.4
	C10.1,12.4,11.8,11.5,13.6,10.6z"/>
<path class="st3" d="M23,11.7c-2.7,0.5-5.3,1.3-7.7,2.6c-2.5,1.1-4.8,2.5-6.9,4.3c0.1,0.3,0.2,0.6,0.4,0.9c1.9,4.1,6.7,5.8,10.8,3.9
	s5.8-6.7,3.9-10.8C23.4,12.3,23.2,12,23,11.7z"/>
<title>Gravity Logo Primary 32px</title>
</svg>
