<?xml version="1.0" encoding="UTF-8" standalone="no"?>
<svg
   xmlns:dc="http://purl.org/dc/elements/1.1/"
   xmlns:cc="http://creativecommons.org/ns#"
   xmlns:rdf="http://www.w3.org/1999/02/22-rdf-syntax-ns#"
   xmlns:svg="http://www.w3.org/2000/svg"
   xmlns="http://www.w3.org/2000/svg"
   style="fill:#000000"
   height="33"
   width="329"
   aria-labelledby="buildit-title"
   aria-describedby="buildit-desc"
   viewBox="0 0 329 33"
   y="0px"
   x="0px"
   id="buildit-logo"
   version="1.1">
  <metadata
     id="metadata3448">
    <rdf:RDF>
      <cc:Work
         rdf:about="">
        <dc:format>image/svg+xml</dc:format>
        <dc:type
           rdf:resource="http://purl.org/dc/dcmitype/StillImage" />
        <dc:title>buildit @ wipro digital</dc:title>
      </cc:Work>
    </rdf:RDF>
  </metadata>
  <defs
     id="defs3446" />
  <desc
     id="buildit-desc">Logo</desc>
  <title
     id="buildit-title">buildit @ wipro digital</title>
  <path
     id="path3436"
     d="m 88.704638,24.382535 -0.179533,-2.034679 c -0.418911,0.777965 -1.137044,1.376401 -1.974866,1.795305 -0.897666,0.418905 -1.735487,0.598435 -2.633153,0.598435 -0.957511,0 -1.795333,-0.119687 -2.513465,-0.418904 -0.777978,-0.299218 -1.376422,-0.718122 -1.855177,-1.256714 -0.718133,-0.777966 -1.316577,-1.675618 -1.675643,-2.812645 -0.359067,-1.137026 -0.5386,-2.333896 -0.5386,-3.59061 0,-1.316557 0.179533,-2.573271 0.598444,-3.710297 0.418911,-1.137027 0.957511,-2.094523 1.735488,-2.872489 0.478755,-0.4787473 1.137044,-0.8378084 1.795332,-1.1370259 0.718133,-0.2992175 1.49611,-0.4189045 2.453621,-0.4189045 0.41891,0 0.837821,0.059843 1.316577,0.1795305 0.41891,0.119687 0.837821,0.239374 1.256732,0.4189045 0.418911,0.1795305 0.777977,0.4189045 1.137044,0.6582786 0.359066,0.2992168 0.598444,0.5984348 0.837821,0.9574958 l 0,-8.3780905 2.57331,0 0,22.0224095 z m -0.179533,-7.719812 c 0,-0.957496 -0.119689,-1.914992 -0.359067,-2.752801 -0.239377,-0.837809 -0.718132,-1.555931 -1.316577,-2.154366 -0.299222,-0.299218 -0.658288,-0.538592 -1.077199,-0.718123 -0.418911,-0.17953 -0.897666,-0.299217 -1.436266,-0.299217 -0.837821,0 -1.555954,0.17953 -2.154398,0.538591 -0.598444,0.359062 -1.017355,0.777966 -1.316577,1.376401 -0.299222,0.598435 -0.5386,1.19687 -0.658288,1.914992 -0.119689,0.718122 -0.179534,1.436244 -0.179534,2.094523 0,0.718122 0.05984,1.436244 0.179534,2.094523 0.119688,0.718122 0.359066,1.316557 0.658288,1.914992 0.299222,0.598435 0.777977,1.017339 1.316577,1.3764 0.598444,0.359061 1.256732,0.538592 2.154398,0.538592 0.598445,0 1.0772,-0.119687 1.436266,-0.299218 0.418911,-0.17953 0.718133,-0.418904 1.077199,-0.718122 0.658289,-0.598435 1.0772,-1.256713 1.316577,-2.154366 0.239378,-0.897652 0.359067,-1.795305 0.359067,-2.752801 z M 62.792011,5.3523008 l 0,-3.0520188 2.99222,0 0,3.0520188 z m 0.179533,19.0302342 0,-15.4396239 2.633154,0 0,15.4396239 z M 42.205535,16.662723 c 0,1.256714 -0.179533,2.453584 -0.538599,3.59061 -0.359067,1.137027 -0.957511,2.034679 -1.675644,2.812645 -0.538599,0.538592 -1.137043,0.957496 -1.855176,1.256714 -0.718133,0.299217 -1.555955,0.418904 -2.513465,0.418904 -0.897666,0 -1.735488,-0.17953 -2.633154,-0.598435 -0.897666,-0.418904 -1.555955,-1.01734 -1.974865,-1.795305 l -0.179534,2.034679 -2.274087,0 0,-22.082253 2.573309,0 0,8.37809 c 0.179534,-0.359061 0.478756,-0.658278 0.837822,-0.9574953 0.359067,-0.2992176 0.718133,-0.4787481 1.137044,-0.6582786 0.418911,-0.1795305 0.837821,-0.2992175 1.256732,-0.4189045 0.418911,-0.119687 0.897666,-0.1795305 1.316577,-0.1795305 0.897666,0 1.735488,0.119687 2.453621,0.4189045 0.718133,0.2992175 1.316577,0.6582786 1.795332,1.1370264 0.777977,0.777965 1.376421,1.675618 1.735488,2.872488 0.359066,1.19687 0.538599,2.453584 0.538599,3.770141 z m -2.633153,0 c 0,-0.718122 -0.05985,-1.436244 -0.179534,-2.094523 -0.119689,-0.718122 -0.359066,-1.316557 -0.658288,-1.914992 -0.299222,-0.598435 -0.777977,-1.017339 -1.316577,-1.376401 -0.598444,-0.359061 -1.256733,-0.538591 -2.154399,-0.538591 -0.598444,0 -1.077199,0.119687 -1.436265,0.299217 -0.418911,0.179531 -0.718133,0.418905 -1.0772,0.718123 -0.658288,0.598435 -1.077199,1.316557 -1.316577,2.154366 -0.239377,0.837809 -0.359066,1.795305 -0.359066,2.752801 0,0.957496 0.119689,1.914992 0.359066,2.752801 0.239378,0.837809 0.718133,1.555931 1.316577,2.154366 0.239378,0.299218 0.598444,0.538592 1.017355,0.718122 0.418911,0.179531 0.897666,0.299218 1.436266,0.299218 0.837822,0 1.555955,-0.179531 2.154399,-0.538592 0.598444,-0.359061 1.017354,-0.777965 1.316576,-1.3764 0.299222,-0.598435 0.5386,-1.19687 0.658289,-1.914992 0.179533,-0.718122 0.239378,-1.376401 0.239378,-2.094523 z m 16.217833,7.719812 -0.239377,-2.333897 c -0.418911,0.897653 -1.017355,1.555932 -1.915021,2.03468 -0.837822,0.478748 -1.735488,0.658278 -2.692999,0.658278 -1.795332,0 -3.111909,-0.478748 -3.94973,-1.496088 -0.897666,-1.017339 -1.316577,-2.39374 -1.316577,-4.189045 l 0,-10.1135519 2.633154,0 0,9.7544909 c 0,1.137027 0.239377,2.094523 0.718133,2.692958 0.478755,0.658278 1.316576,0.957496 2.573309,0.957496 0.5386,0 1.017355,-0.119687 1.436266,-0.299218 0.41891,-0.239374 0.777977,-0.478748 1.137043,-0.837809 0.478756,-0.478748 0.837822,-1.137026 1.017355,-1.914992 0.179533,-0.777965 0.299222,-1.555931 0.299222,-2.333897 l 0,-8.0190289 2.57331,0 0,15.4396239 z m 19.68881,0 c -0.119689,0.05984 -0.299223,0.05984 -0.478756,0.119687 -0.299222,0.05984 -0.777977,0.119687 -1.376421,0.119687 -1.137044,0 -1.974865,-0.299217 -2.453621,-0.957496 -0.538599,-0.658279 -0.777977,-1.615775 -0.777977,-2.812645 l 0,-18.551486 2.57331,0 0,18.252269 c 0,0.538591 0.119688,0.897652 0.299222,1.19687 0.179533,0.239374 0.598444,0.418904 1.077199,0.418904 l 0.837821,0 c 0.05984,0 0.179534,0 0.239378,-0.05984 l 0,2.274053 z m 20.227408,-19.0302342 0,-3.0520188 2.992221,0 0,3.0520188 z m 0.179534,19.0302342 0,-15.4396239 2.633153,0 0,15.4396239 z m 15.559543,-0.239374 c -0.35907,0.119687 -0.77798,0.179531 -1.25673,0.299218 -0.47876,0.119687 -1.0772,0.119687 -1.79533,0.119687 -0.83782,0 -1.49611,-0.119687 -2.09456,-0.359061 -0.59844,-0.239374 -0.95751,-0.538592 -1.31657,-0.957497 -0.29923,-0.359061 -0.5386,-0.837809 -0.65829,-1.316557 -0.11969,-0.478748 -0.17953,-1.017339 -0.17953,-1.555931 l 0,-9.2159 -2.99223,0 0,-2.2142089 2.99223,0 0,-3.9496713 2.5733,-0.5984351 0,4.5481064 4.54818,0 0,2.2142089 -4.54818,0 0,8.916683 c 0,0.777965 0.17954,1.316557 0.47876,1.615774 0.35907,0.299218 0.83782,0.478748 1.55595,0.478748 0.29923,0 0.59845,0 0.89767,-0.05984 0.29922,0 0.59844,-0.05984 0.83782,-0.119687 0.29922,-0.05984 0.59844,-0.119687 0.89767,-0.179531 l 0,2.333897 z" />
  <path
     id="path3438"
     d="m 144.24024,12.772895 c 0,0.897653 -0.11968,1.855149 -0.35906,2.812645 -0.23938,0.957496 -0.59845,1.855149 -1.0772,2.633114 -0.47876,0.777966 -1.13704,1.436244 -1.91502,1.974836 -0.77798,0.538591 -1.73549,0.777965 -2.87253,0.777965 -0.77798,0 -1.43627,-0.17953 -1.97487,-0.538591 -0.5386,-0.359061 -0.89766,-0.957496 -1.01735,-1.735462 -0.29923,0.718122 -0.77798,1.256714 -1.49611,1.675618 -0.71814,0.418905 -1.43627,0.598435 -2.1544,0.598435 -0.77798,0 -1.49611,-0.119687 -2.09456,-0.418904 -0.59844,-0.299218 -1.07719,-0.718122 -1.49611,-1.19687 -0.41891,-0.538592 -0.71813,-1.137027 -0.89766,-1.855149 -0.17953,-0.718122 -0.29922,-1.496088 -0.29922,-2.333897 0,-0.837809 0.11969,-1.675618 0.35906,-2.453583 0.23938,-0.777966 0.59845,-1.436245 1.0772,-1.974836 0.47876,-0.538592 1.0772,-1.0173393 1.73549,-1.3165569 0.71813,-0.359061 1.49611,-0.478748 2.39378,-0.478748 0.59844,0 1.13704,0.119687 1.67564,0.4189045 0.5386,0.2992176 0.95751,0.6582784 1.25673,1.1968694 l 0.35907,-1.2567129 2.03471,0 -0.5386,7.7198119 c 0,0.239374 0,0.478748 0,0.658279 0,0.239374 0.0598,0.418904 0.17953,0.598435 0.11969,0.17953 0.23938,0.359061 0.41891,0.418904 0.17953,0.119687 0.41891,0.179531 0.65829,0.179531 0.65829,0 1.25673,-0.239374 1.67564,-0.658279 0.41891,-0.418904 0.83782,-0.957496 1.0772,-1.615775 0.23938,-0.658278 0.47876,-1.256713 0.59845,-1.974835 0.11969,-0.718122 0.17953,-1.316557 0.17953,-1.795305 0,-1.256714 -0.17953,-2.393741 -0.59844,-3.2913929 -0.35907,-0.957496 -0.89767,-1.7354616 -1.6158,-2.4535837 -0.77798,-0.7779655 -1.73549,-1.3764006 -2.87253,-1.7953051 -1.13705,-0.4189045 -2.39378,-0.5984351 -3.83005,-0.5984351 -1.43626,0 -2.69299,0.2393741 -3.88988,0.6582786 -1.13705,0.4189045 -2.1544,1.0173396 -2.99222,1.7953051 -1.01736,0.8976526 -1.85518,2.0346792 -2.39378,3.3512361 -0.5386,1.316557 -0.83782,2.872488 -0.83782,4.548106 0,1.436244 0.23938,2.752802 0.71813,3.949672 0.47876,1.19687 1.13705,2.274053 1.97487,3.171705 0.83782,0.837809 1.79533,1.496088 2.87253,1.914993 1.13704,0.478748 2.33393,0.658278 3.71035,0.658278 1.37642,0 2.693,-0.119687 3.88989,-0.299217 1.19689,-0.239374 2.45362,-0.598435 3.7702,-1.137027 l 0,2.154366 c -1.19689,0.598435 -2.45362,1.01734 -3.7702,1.19687 -1.25673,0.239374 -2.57331,0.299218 -3.94973,0.299218 -1.67565,0 -3.17176,-0.239374 -4.54818,-0.777966 -1.37642,-0.538591 -2.57331,-1.256713 -3.59066,-2.154366 -1.19689,-1.077183 -2.1544,-2.453584 -2.75284,-4.069358 -0.59845,-1.615775 -0.89767,-3.291393 -0.89767,-5.266229 0,-1.914992 0.29922,-3.59061 0.95751,-5.0268538 0.59845,-1.4960877 1.49611,-2.7528013 2.63316,-3.8299844 1.13704,-1.0771831 2.45362,-1.9748356 4.00957,-2.5732707 1.55595,-0.598435 3.2316,-0.8976526 5.14662,-0.8976526 1.73549,0 3.35128,0.2992176 4.84739,0.8378091 1.43627,0.5385916 2.693,1.3165571 3.7702,2.3937402 0.89767,0.8976526 1.6158,1.9149922 2.09456,3.1118623 0.41891,1.1370266 0.65828,2.5134269 0.65828,4.0693579 z m -9.33572,1.675618 c 0,-0.418904 -0.0598,-0.897652 -0.11969,-1.316557 -0.11969,-0.418904 -0.23938,-0.777965 -0.47876,-1.137026 -0.23937,-0.299218 -0.47875,-0.598435 -0.83782,-0.777966 -0.35906,-0.179531 -0.77798,-0.299218 -1.31657,-0.299218 -0.5386,0 -1.01736,0.119687 -1.37643,0.418905 -0.35906,0.239374 -0.65828,0.598435 -0.89766,1.01734 -0.23938,0.418904 -0.41891,0.837809 -0.47876,1.316557 -0.11969,0.478748 -0.11969,0.957496 -0.11969,1.436244 0,0.418904 0.0598,0.837809 0.11969,1.256713 0.0599,0.418905 0.23938,0.837809 0.41891,1.137027 0.17954,0.359061 0.47876,0.598435 0.77798,0.837809 0.35907,0.239374 0.77798,0.299218 1.25673,0.299218 0.59845,0 1.13705,-0.119687 1.49611,-0.359061 0.35907,-0.239374 0.71814,-0.598435 0.95751,-1.01734 0.23938,-0.418905 0.41891,-0.837809 0.47876,-1.376401 0.0598,-0.418904 0.11969,-0.957496 0.11969,-1.436244 z" />
  <path
     id="path3440"
     d="m 263.68968,2.300282 3.05206,0 0,3.0520188 -3.05206,0 z m 0,22.082253 0,-15.4994674 3.05206,0 0,15.4994674 z m 23.63854,-22.082253 3.05206,0 0,3.0520188 -3.05206,0 z m 0,22.082253 0,-15.4994674 3.05206,0 0,15.4994674 z m -30.10174,-2.034679 c -0.47875,0.777965 -1.13704,1.376401 -1.97486,1.795305 -0.89767,0.418905 -1.73549,0.598435 -2.63316,0.598435 -0.95751,0 -1.79533,-0.119687 -2.51346,-0.418904 -0.71814,-0.299218 -1.31658,-0.718122 -1.85518,-1.256714 -0.71813,-0.777966 -1.31658,-1.675618 -1.67564,-2.812645 -0.35907,-1.137026 -0.5386,-2.333896 -0.5386,-3.59061 0,-1.376401 0.17953,-2.573271 0.59844,-3.770141 0.41891,-1.137026 0.95751,-2.094523 1.73549,-2.872488 0.5386,-0.4787479 1.13704,-0.8378089 1.79533,-1.1370264 0.71813,-0.2992175 1.49611,-0.4189045 2.45362,-0.4189045 0.41891,0 0.83782,0.059843 1.31658,0.1795305 0.41891,0.119687 0.83782,0.239374 1.25673,0.4189045 0.41891,0.1795305 0.77798,0.4189045 1.13705,0.7181221 0.35906,0.2992168 0.59844,0.5984348 0.83782,0.9574958 l 0,-8.437934 2.63315,0 0,22.142097 -2.39378,-0.05984 z m 0,-5.685133 c 0,-0.957496 -0.11969,-1.914992 -0.35906,-2.752801 -0.23938,-0.897653 -0.71814,-1.615775 -1.37643,-2.154366 -0.29922,-0.299218 -0.65828,-0.538592 -1.0772,-0.718123 -0.41891,-0.17953 -0.89766,-0.299217 -1.43626,-0.299217 -0.83782,0 -1.55596,0.17953 -2.1544,0.538591 -0.59844,0.359062 -1.01735,0.777966 -1.37642,1.376401 -0.29922,0.598435 -0.5386,1.19687 -0.71813,1.914992 -0.11969,0.718122 -0.17954,1.436244 -0.17954,2.154366 0,0.718123 0.0598,1.436245 0.17954,2.154367 0.11968,0.718122 0.35906,1.316557 0.71813,1.914992 0.29922,0.598435 0.77798,1.017339 1.37642,1.3764 0.59844,0.359061 1.31658,0.538592 2.1544,0.538592 0.59844,0 1.0772,-0.119687 1.43626,-0.299218 0.41892,-0.17953 0.77798,-0.418904 1.0772,-0.718122 0.65829,-0.598435 1.0772,-1.316557 1.37643,-2.154366 0.23937,-0.957496 0.35906,-1.914992 0.35906,-2.872488 z m 27.04967,10.053709 c 0,0.658278 -0.11969,1.256713 -0.35906,1.795305 -0.23938,0.538591 -0.5386,0.957496 -0.95751,1.316557 -0.35907,0.359061 -0.77798,0.658279 -1.31658,0.897653 -0.47876,0.239374 -1.01736,0.418904 -1.55596,0.538591 -0.5386,0.119687 -1.13704,0.239374 -1.67564,0.299218 -0.59844,0.05984 -1.13704,0.05984 -1.67564,0.05984 -0.5386,0 -1.01736,0 -1.55596,-0.05984 -0.5386,-0.05984 -1.0772,-0.119687 -1.55595,-0.299218 -0.5386,-0.119687 -1.01736,-0.299217 -1.49611,-0.538591 -0.47876,-0.239374 -0.89767,-0.538592 -1.25673,-0.897653 -0.29923,-0.299217 -0.59845,-0.718122 -0.77798,-1.137027 -0.17953,-0.478748 -0.29922,-0.957496 -0.29922,-1.615774 0,-0.837809 0.23937,-1.496088 0.65829,-2.094523 0.41891,-0.598435 0.95751,-1.017339 1.55595,-1.316557 -0.5386,-0.17953 -0.95751,-0.538592 -1.31658,-1.01734 -0.35906,-0.478748 -0.47875,-1.017339 -0.47875,-1.615774 0,-0.718122 0.17953,-1.316557 0.59844,-1.795305 0.35907,-0.538592 0.89767,-0.897653 1.49611,-1.19687 -0.59844,-0.538592 -1.01735,-1.137027 -1.31658,-1.855149 -0.29922,-0.718122 -0.47875,-1.436244 -0.47875,-2.154366 0,-0.837809 0.11969,-1.555931 0.41891,-2.154366 0.23938,-0.598436 0.59844,-1.137027 1.0772,-1.615775 0.5386,-0.5385913 1.19689,-0.9574959 1.91502,-1.3165569 0.71813,-0.2992175 1.6158,-0.478748 2.693,-0.478748 0.71813,0 1.37642,0.059843 1.97486,0.239374 0.59845,0.1795305 1.13705,0.359061 1.55596,0.6582785 0.23938,-0.718122 0.65829,-1.2567136 1.25673,-1.6157746 0.5386,-0.359061 1.19689,-0.5385915 1.97487,-0.5385915 0.11969,0 0.23937,0 0.35906,0 0.11969,0 0.23938,0 0.35907,0.059843 l 0,2.0945226 c -0.0598,0 -0.17953,-0.059843 -0.29922,-0.059843 l -0.29922,0 c -0.5386,0 -0.95752,0.119687 -1.25674,0.3590611 -0.35906,0.239374 -0.5386,0.5984348 -0.59844,1.0173388 0.29922,0.418905 0.59844,0.897653 0.77798,1.376401 0.17953,0.538592 0.23937,1.137027 0.23937,1.795305 0,0.718122 -0.11969,1.436244 -0.35906,2.034679 -0.23938,0.658279 -0.59845,1.19687 -1.01736,1.675619 -0.5386,0.538591 -1.13704,1.017339 -1.91502,1.316557 -0.77798,0.359061 -1.67564,0.478748 -2.693,0.478748 -0.5386,0 -0.95751,-0.05984 -1.31657,-0.119687 -0.35907,-0.05984 -0.77798,-0.179531 -1.25674,-0.359061 -0.29922,0.119687 -0.59844,0.239374 -0.89766,0.478748 -0.29922,0.239374 -0.41891,0.538591 -0.41891,0.897652 0,0.359061 0.0598,0.598435 0.23937,0.837809 0.17954,0.179531 0.35907,0.359061 0.5386,0.478748 0.23938,0.119687 0.47876,0.179531 0.77798,0.239374 0.29922,0.05984 0.5386,0.05984 0.77798,0.05984 l 3.05206,0 c 0.89767,0 1.85518,0.119687 2.81269,0.359061 0.95751,0.239374 1.73549,0.658278 2.33393,1.316557 0.35907,0.359061 0.65829,0.777966 0.89767,1.316557 -0.0599,0.598435 0.0598,1.19687 0.0598,1.855149 z m -2.57331,0 c 0,-0.598435 -0.11969,-1.01734 -0.35906,-1.376401 -0.23938,-0.299217 -0.59845,-0.598435 -0.95751,-0.718122 -0.41891,-0.17953 -0.83783,-0.239374 -1.31658,-0.299217 -0.47876,-0.05984 -0.95751,-0.05984 -1.43627,-0.05984 l -3.59066,0 c -0.5386,0.179531 -1.01736,0.478748 -1.37642,0.897653 -0.35907,0.418904 -0.59845,0.957496 -0.59845,1.555931 0,0.658278 0.23938,1.19687 0.65829,1.615774 0.23938,0.239374 0.5386,0.418905 0.89767,0.598435 0.35906,0.119687 0.71813,0.239374 1.0772,0.299218 0.35906,0.05984 0.71813,0.119687 1.13704,0.119687 0.35907,0 0.71813,0.05984 1.0772,0.05984 0.29922,0 0.65829,0 1.0772,-0.05984 0.35907,0 0.77798,-0.05984 1.13704,-0.179531 0.35907,-0.05984 0.77798,-0.17953 1.0772,-0.359061 0.35907,-0.119687 0.65829,-0.359061 0.89767,-0.598435 0.41891,-0.359061 0.59844,-0.897652 0.59844,-1.496087 z m -1.79533,-12.686823 c 0,-0.957496 -0.29922,-1.795305 -0.95751,-2.453584 -0.59844,-0.658279 -1.49611,-0.957496 -2.57331,-0.957496 -1.0772,0 -1.91502,0.299217 -2.57331,0.957496 -0.65829,0.658279 -0.95751,1.436244 -0.95751,2.453584 0,0.957496 0.29922,1.795305 0.95751,2.453583 0.59845,0.658279 1.49611,1.01734 2.57331,1.01734 1.0772,0 1.91502,-0.359061 2.57331,-1.01734 0.65829,-0.658278 0.95751,-1.496087 0.95751,-2.453583 z m 23.0401,10.472613 c -0.47876,0.119687 -1.13705,0.119687 -1.79534,0.119687 -0.83782,0 -1.55595,-0.119687 -2.09455,-0.359061 -0.5386,-0.239374 -0.95751,-0.538591 -1.31658,-0.957496 -0.29922,-0.359061 -0.5386,-0.837809 -0.65828,-1.316557 -0.11969,-0.478748 -0.17954,-1.01734 -0.17954,-1.555931 l 0,-9.275744 -2.99222,0 0,-2.2142089 2.99222,0 0,-4.0095148 2.63316,-0.5984351 0,4.5481064 4.60802,0 0,2.2142094 -4.60802,0 0,8.976526 c 0,0.777965 0.17953,1.316557 0.47875,1.615774 0.35907,0.299218 0.83782,0.478748 1.55596,0.478748 0.29922,0 0.59844,0 0.89766,-0.05984 0.29922,0 0.59845,-0.05984 0.83782,-0.119687 0.29923,-0.05984 0.59845,-0.119687 0.89767,-0.179531 l 0,2.393741 c -0.35907,0.119687 -0.77798,0.17953 -1.25673,0.299217 z m 18.67145,-0.239374 c -0.29922,0.119687 -0.5386,0.239374 -0.83782,0.299218 -0.23938,0.05984 -0.5386,0.05984 -0.89767,0.05984 -0.71813,0 -1.25673,-0.239374 -1.6158,-0.718122 -0.41891,-0.478748 -0.59844,-1.01734 -0.59844,-1.675618 l -0.0598,0 c -0.47876,0.777965 -1.13705,1.376401 -2.03471,1.855149 -0.89767,0.478748 -1.85518,0.718122 -2.99222,0.718122 -0.89767,0 -1.67565,-0.119687 -2.33394,-0.418905 -0.65828,-0.299217 -1.19688,-0.658278 -1.67564,-1.077183 -0.41891,-0.478748 -0.77798,-0.957496 -1.01735,-1.555931 -0.23938,-0.598435 -0.35907,-1.137027 -0.35907,-1.735462 0,-0.478748 0.0598,-1.017339 0.23938,-1.555931 0.17953,-0.538591 0.47875,-1.077183 0.89766,-1.496088 0.41891,-0.478748 1.01736,-0.837809 1.67565,-1.19687 0.71813,-0.299217 1.6158,-0.538591 2.63315,-0.598435 l 4.72771,-0.299217 0,-1.137027 c 0,-0.359061 -0.0598,-0.777965 -0.11969,-1.19687 -0.11969,-0.418904 -0.29922,-0.777965 -0.65829,-1.137026 -0.23938,-0.239375 -0.59844,-0.418905 -1.01735,-0.598436 -0.41891,-0.119687 -0.89767,-0.239374 -1.55596,-0.239374 -0.71813,0 -1.31658,0.05984 -1.73549,0.239374 -0.47875,0.179531 -0.77797,0.418905 -1.0772,0.658279 -0.53859,0.538592 -0.77797,1.137027 -0.77797,1.855149 l -2.57331,0 c 0,-0.718122 0.11969,-1.316557 0.35906,-1.855149 0.23938,-0.538592 0.5386,-0.957496 0.95752,-1.376401 0.53859,-0.5385908 1.19688,-0.9574954 2.09455,-1.2567129 0.83782,-0.2992175 1.73549,-0.4189045 2.693,-0.4189045 1.49611,0 2.693,0.2992175 3.59066,0.837809 0.89767,0.5385916 1.49611,1.2567134 1.85518,2.1543664 0.29922,0.718122 0.47875,1.496087 0.47875,2.39374 l 0,7.480438 c 0,0.418904 0.0598,0.658278 0.23938,0.837809 0.17953,0.119687 0.35907,0.239374 0.59845,0.239374 l 0.23937,0 c 0.0598,0 0.17954,0 0.23938,-0.05984 l 0.23938,-0.05984 0,2.034679 z m -8.31837,-7.121377 c -0.35907,0 -0.77798,0.05984 -1.19689,0.17953 -0.41891,0.119688 -0.77798,0.299218 -1.0772,0.478749 -0.29922,0.239374 -0.59844,0.478748 -0.77798,0.837809 -0.17953,0.359061 -0.29922,0.777965 -0.29922,1.256713 0,0.718122 0.23938,1.316557 0.71814,1.855149 0.47875,0.538591 1.25673,0.837809 2.33393,0.837809 0.59844,0 1.19689,-0.119687 1.73548,-0.299218 0.5386,-0.17953 1.01736,-0.538591 1.43627,-0.957496 0.47876,-0.478748 0.77798,-1.017339 1.01736,-1.615774 0.17953,-0.598435 0.29922,-1.256714 0.29922,-1.914992 l 0,-0.897653 z m 15.26032,7.241064 c -0.11969,0.05984 -0.29922,0.05984 -0.47875,0.119687 -0.29922,0.05984 -0.77798,0.119687 -1.37642,0.119687 -1.13705,0 -1.97487,-0.299217 -2.45362,-0.957496 -0.5386,-0.658279 -0.77798,-1.615775 -0.77798,-2.812645 l 0,-18.551486 2.63315,0 0,18.371956 c 0,0.538591 0.11969,0.957496 0.29922,1.19687 0.17954,0.239374 0.59845,0.418904 1.0772,0.418904 l 0.83782,0 c 0.0598,0 0.17954,0 0.23938,-0.05984 z" />
  <path
     id="path3442"
     d="m 228.6807,7.5665105 c -4.60802,0 -8.37822,3.8898275 -8.37822,8.6174645 0,4.78748 3.7702,8.617465 8.37822,8.617465 4.60802,0 8.37822,-3.889828 8.37822,-8.617465 0.0598,-4.727637 -3.71036,-8.6174645 -8.37822,-8.6174645 m 0,13.2254145 c -2.39378,0 -4.3088,-2.034679 -4.3088,-4.548107 0,-2.513427 1.91502,-4.548106 4.3088,-4.548106 2.39378,0 4.3088,2.034679 4.3088,4.548106 0,2.513428 -1.91502,4.548107 -4.3088,4.548107 m -52.66308,-12.7466665 -3.11191,0 c -0.23937,0 -0.53859,0.1795305 -0.59844,0.4787481 l -2.57331,7.8993424 -4.36864,-8.437934 c -0.11969,-0.239374 -0.41891,-0.4189045 -0.71813,-0.4189045 l -0.29923,0 c -0.23937,0 -0.59844,0.1795305 -0.71813,0.4189045 l -4.36864,8.437934 -2.57331,-7.8993424 c -0.0598,-0.2393741 -0.35907,-0.4787481 -0.59844,-0.4787481 l -3.11191,0 c -0.41891,0 -0.59845,0.2992176 -0.47876,0.6582786 l 5.02693,15.6789979 c 0.0599,0.239374 0.35907,0.478748 0.59845,0.478748 l 0.47875,0 c 0.23938,0 0.59845,-0.17953 0.71813,-0.418904 l 5.14662,-9.934022 5.14662,9.934022 c 0.11969,0.239374 0.41891,0.418904 0.71814,0.418904 l 0.47875,0 c 0.23938,0 0.5386,-0.17953 0.59844,-0.478748 l 5.02693,-15.6789979 c 0.17954,-0.2992175 -0.0598,-0.6582786 -0.41891,-0.6582786 m 7.18133,0 -3.11191,0 c -0.41891,0 -0.71813,0.2992176 -0.71813,0.7181221 l 0,14.9010324 c 0,0.418905 0.29922,0.718122 0.71813,0.718122 l 3.11191,0 c 0.41891,0 0.71814,-0.299217 0.71814,-0.718122 l 0,-14.9010324 c 0,-0.359061 -0.29923,-0.7181221 -0.71814,-0.7181221 m 13.64453,-0.478748 c -2.1544,0 -4.06942,0.9574961 -5.50569,2.4535835 l 0,0 -0.5386,-1.4960874 C 190.6795,8.2846325 190.44013,8.0452585 190.1409,8.0452585 l -1.43626,0 c -0.41891,0 -0.71814,0.2992176 -0.71814,0.7181221 l 0,23.5184974 c 0,0.418904 0.29923,0.718122 0.71814,0.718122 l 3.11191,0 c 0.41891,0 0.71813,-0.299218 0.71813,-0.718122 l 0,-8.138717 c 1.31658,0.478748 2.75284,0.718122 4.3088,0.718122 4.36864,0 7.89946,-3.889828 7.89946,-8.617465 0,-4.78748 -3.53082,-8.6773075 -7.89946,-8.6773075 m -0.83782,13.2254145 c -1.31658,0 -2.51347,-0.359061 -3.47098,-0.897653 l 0,-6.223724 c 0.77798,-1.19687 2.03471,-2.034679 3.47098,-2.034679 2.33393,0 4.1891,2.034679 4.1891,4.548106 0,2.573271 -1.85517,4.60795 -4.1891,4.60795 M 216.29291,7.5665105 c -2.99222,0 -4.72771,2.4535835 -4.72771,2.4535835 l -0.5386,-1.4960874 c -0.11969,-0.2393741 -0.35907,-0.4787481 -0.65829,-0.4787481 l -1.49611,0 c -0.41891,0 -0.71813,0.2992176 -0.71813,0.7181221 l 0,14.9010324 c 0,0.418905 0.29922,0.718122 0.71813,0.718122 l 3.11191,0 c 0.41891,0 0.71813,-0.299217 0.71813,-0.718122 l 0,-10.41277 c 1.79534,-2.21421 4.12927,-1.436244 4.60802,-1.256713 0.47876,0.17953 0.83783,-0.05984 0.95751,-0.359061 0.11969,-0.299218 0.83783,-1.8551488 1.0772,-2.4535839 0.29923,-0.5385915 -0.0598,-1.6157746 -3.05206,-1.6157746 M 182.30129,0.38528992 c -1.31658,-0.35906103 -2.75285,0.41890453 -3.11191,1.79530508 -0.35907,1.3165571 0.41891,2.7528013 1.79533,3.1118623 1.31658,0.359061 2.75284,-0.4189045 3.11191,-1.7953052 0.35907,-1.3165571 -0.41891,-2.75280115 -1.79533,-3.11186218" />
  <path
     id="path4264"
     d="m 18.3533,13.354038 0,0 3.670661,3.670661 -7.341321,7.34132 -7.34132,0 -7.34132,0 7.34132,-7.34132 L 3.670661,13.354038 7.34132,9.6833779 0,2.3420571 l 14.68264,0 7.341321,7.3413208 -3.670661,3.6706601 z"
     style="fill:#8b8080;fill-opacity:1" />
  <path
     id="path4266"
     d="M 7.34132,9.6833779 3.670661,13.354038 7.34132,17.024699 0,24.366019 0,2.3420571 Z"
     style="opacity:1;fill:#ff9900;fill-opacity:1" />
</svg>
