<?xml version="1.0" encoding="UTF-8" standalone="no"?>
<svg
   xmlns:dc="http://purl.org/dc/elements/1.1/"
   xmlns:cc="http://creativecommons.org/ns#"
   xmlns:rdf="http://www.w3.org/1999/02/22-rdf-syntax-ns#"
   xmlns:svg="http://www.w3.org/2000/svg"
   xmlns="http://www.w3.org/2000/svg"
   xmlns:sodipodi="http://sodipodi.sourceforge.net/DTD/sodipodi-0.dtd"
   xmlns:inkscape="http://www.inkscape.org/namespaces/inkscape"
   version="1.1"
   id="buildit-logo"
   x="0px"
   y="0px"
   viewBox="0 0 300 33"
   aria-describedby="buildit-desc"
   aria-labelledby="buildit-title"
   width="300"
   height="33"
   inkscape:version="0.92.2 5c3e80d, 2017-08-06"
   sodipodi:docname="buildit-logotype.svg"
   inkscape:export-filename="/Users/peach/Documents/Buildit@WD_logo_Black.png"
   inkscape:export-xdpi="150"
   inkscape:export-ydpi="150"
   style="fill:#000000">
  <metadata
     id="metadata3448">
    <rdf:RDF>
      <cc:Work
         rdf:about="">
        <dc:format>image/svg+xml</dc:format>
        <dc:type
           rdf:resource="http://purl.org/dc/dcmitype/StillImage" />
        <dc:title>buildit @ wipro digital</dc:title>
      </cc:Work>
    </rdf:RDF>
  </metadata>
  <defs
     id="defs3446" />
  <sodipodi:namedview
     pagecolor="#ffffff"
     bordercolor="#666666"
     borderopacity="1"
     objecttolerance="10"
     gridtolerance="10"
     guidetolerance="10"
     inkscape:pageopacity="0"
     inkscape:pageshadow="2"
     inkscape:window-width="1510"
     inkscape:window-height="806"
     id="namedview3444"
     showgrid="false"
     inkscape:zoom="3.0688434"
     inkscape:cx="64.222746"
     inkscape:cy="6.8383745"
     inkscape:window-x="225"
     inkscape:window-y="323"
     inkscape:window-maximized="0"
     inkscape:current-layer="buildit-logo" />
  <desc
     id="buildit-desc">Logo</desc>
  <title
     id="buildit-title">buildit @ wipro digital</title>
  <g
     id="g5147"
     transform="matrix(0.59844405,0,0,0.59843505,0,0.32544608)">
    <path
       inkscape:connector-curvature="0"
       id="path3436"
       d="m 100.5,40.2 -0.3,-3.4 c -0.7,1.3 -1.9,2.3 -3.3,3 -1.5,0.7 -2.9,1 -4.4,1 -1.6,0 -3,-0.2 -4.2,-0.7 C 87,39.6 86,38.9 85.2,38 84,36.7 83,35.2 82.4,33.3 c -0.6,-1.9 -0.9,-3.9 -0.9,-6 0,-2.2 0.3,-4.3 1,-6.2 0.7,-1.9 1.6,-3.5 2.9,-4.8 0.8,-0.8 1.9,-1.4 3,-1.9 1.2,-0.5 2.5,-0.7 4.1,-0.7 0.7,0 1.4,0.1 2.2,0.3 0.7,0.2 1.4,0.4 2.1,0.7 0.7,0.3 1.3,0.7 1.9,1.1 0.6,0.5 1,1 1.4,1.6 v -14 h 4.3 v 36.8 z m -0.3,-12.9 c 0,-1.6 -0.2,-3.2 -0.6,-4.6 -0.4,-1.4 -1.2,-2.6 -2.2,-3.6 -0.5,-0.5 -1.1,-0.9 -1.8,-1.2 -0.7,-0.3 -1.5,-0.5 -2.4,-0.5 -1.4,0 -2.6,0.3 -3.6,0.9 -1,0.6 -1.7,1.3 -2.2,2.3 -0.5,1 -0.9,2 -1.1,3.2 -0.2,1.2 -0.3,2.4 -0.3,3.5 0,1.2 0.1,2.4 0.3,3.5 0.2,1.2 0.6,2.2 1.1,3.2 0.5,1 1.3,1.7 2.2,2.3 1,0.6 2.1,0.9 3.6,0.9 1,0 1.8,-0.2 2.4,-0.5 0.7,-0.3 1.2,-0.7 1.8,-1.2 1.1,-1 1.8,-2.1 2.2,-3.6 0.4,-1.5 0.6,-3 0.6,-4.6 z M 57.2,8.4 V 3.3 h 5 v 5.1 z m 0.3,31.8 V 14.4 h 4.4 V 40.2 Z M 22.8,27.3 c 0,2.1 -0.3,4.1 -0.9,6 -0.6,1.9 -1.6,3.4 -2.8,4.7 -0.9,0.9 -1.9,1.6 -3.1,2.1 -1.2,0.5 -2.6,0.7 -4.2,0.7 -1.5,0 -2.9,-0.3 -4.4,-1 -1.5,-0.7 -2.6,-1.7 -3.3,-3 L 3.8,40.2 H 0 V 3.3 h 4.3 v 14 c 0.3,-0.6 0.8,-1.1 1.4,-1.6 0.6,-0.5 1.2,-0.8 1.9,-1.1 0.7,-0.3 1.4,-0.5 2.1,-0.7 0.7,-0.2 1.5,-0.3 2.2,-0.3 1.5,0 2.9,0.2 4.1,0.7 1.2,0.5 2.2,1.1 3,1.9 1.3,1.3 2.3,2.8 2.9,4.8 0.6,2 0.9,4.1 0.9,6.3 z m -4.4,0 c 0,-1.2 -0.1,-2.4 -0.3,-3.5 -0.2,-1.2 -0.6,-2.2 -1.1,-3.2 -0.5,-1 -1.3,-1.7 -2.2,-2.3 -1,-0.6 -2.1,-0.9 -3.6,-0.9 -1,0 -1.8,0.2 -2.4,0.5 -0.7,0.3 -1.2,0.7 -1.8,1.2 -1.1,1 -1.8,2.2 -2.2,3.6 -0.4,1.4 -0.6,3 -0.6,4.6 0,1.6 0.2,3.2 0.6,4.6 0.4,1.4 1.2,2.6 2.2,3.6 0.4,0.5 1,0.9 1.7,1.2 0.7,0.3 1.5,0.5 2.4,0.5 1.4,0 2.6,-0.3 3.6,-0.9 1,-0.6 1.7,-1.3 2.2,-2.3 0.5,-1 0.9,-2 1.1,-3.2 0.3,-1.2 0.4,-2.3 0.4,-3.5 z m 27.1,12.9 -0.4,-3.9 c -0.7,1.5 -1.7,2.6 -3.2,3.4 -1.4,0.8 -2.9,1.1 -4.5,1.1 -3,0 -5.2,-0.8 -6.6,-2.5 -1.5,-1.7 -2.2,-4 -2.2,-7 V 14.4 H 33 v 16.3 c 0,1.9 0.4,3.5 1.2,4.5 0.8,1.1 2.2,1.6 4.3,1.6 0.9,0 1.7,-0.2 2.4,-0.5 0.7,-0.4 1.3,-0.8 1.9,-1.4 0.8,-0.8 1.4,-1.9 1.7,-3.2 0.3,-1.3 0.5,-2.6 0.5,-3.9 V 14.4 h 4.3 v 25.8 z m 32.9,0 c -0.2,0.1 -0.5,0.1 -0.8,0.2 -0.5,0.1 -1.3,0.2 -2.3,0.2 -1.9,0 -3.3,-0.5 -4.1,-1.6 -0.9,-1.1 -1.3,-2.7 -1.3,-4.7 v -31 h 4.3 v 30.5 c 0,0.9 0.2,1.5 0.5,2 0.3,0.4 1,0.7 1.8,0.7 h 1.4 c 0.1,0 0.3,0 0.4,-0.1 v 3.8 z M 112.2,8.4 V 3.3 h 5 v 5.1 z m 0.3,31.8 V 14.4 h 4.4 v 25.8 z m 26,-0.4 c -0.6,0.2 -1.3,0.3 -2.1,0.5 -0.8,0.2 -1.8,0.2 -3,0.2 -1.4,0 -2.5,-0.2 -3.5,-0.6 -1,-0.4 -1.6,-0.9 -2.2,-1.6 -0.5,-0.6 -0.9,-1.4 -1.1,-2.2 -0.2,-0.8 -0.3,-1.7 -0.3,-2.6 V 18.1 h -5 v -3.7 h 5 V 7.8 l 4.3,-1 v 7.6 h 7.6 v 3.7 h -7.6 V 33 c 0,1.3 0.3,2.2 0.8,2.7 0.6,0.5 1.4,0.8 2.6,0.8 0.5,0 1,0 1.5,-0.1 0.5,0 1,-0.1 1.4,-0.2 0.5,-0.1 1,-0.2 1.5,-0.3 v 3.9 z" />
    <path
       inkscape:connector-curvature="0"
       id="path3438"
       d="m 193.3,20.8 c 0,1.5 -0.2,3.1 -0.6,4.7 -0.4,1.6 -1,3.1 -1.8,4.4 -0.8,1.3 -1.9,2.4 -3.2,3.3 -1.3,0.9 -2.9,1.3 -4.8,1.3 -1.3,0 -2.4,-0.3 -3.3,-0.9 -0.9,-0.6 -1.5,-1.6 -1.7,-2.9 -0.5,1.2 -1.3,2.1 -2.5,2.8 -1.2,0.7 -2.4,1 -3.6,1 -1.3,0 -2.5,-0.2 -3.5,-0.7 -1,-0.5 -1.8,-1.2 -2.5,-2 -0.7,-0.9 -1.2,-1.9 -1.5,-3.1 -0.3,-1.2 -0.5,-2.5 -0.5,-3.9 0,-1.4 0.2,-2.8 0.6,-4.1 0.4,-1.3 1,-2.4 1.8,-3.3 0.8,-0.9 1.8,-1.7 2.9,-2.2 1.2,-0.6 2.5,-0.8 4,-0.8 1,0 1.9,0.2 2.8,0.7 0.9,0.5 1.6,1.1 2.1,2 l 0.6,-2.1 h 3.4 l -0.9,12.9 c 0,0.4 0,0.8 0,1.1 0,0.4 0.1,0.7 0.3,1 0.2,0.3 0.4,0.6 0.7,0.7 0.3,0.2 0.7,0.3 1.1,0.3 1.1,0 2.1,-0.4 2.8,-1.1 0.7,-0.7 1.4,-1.6 1.8,-2.7 0.4,-1.1 0.8,-2.1 1,-3.3 0.2,-1.2 0.3,-2.2 0.3,-3 0,-2.1 -0.3,-4 -1,-5.5 -0.6,-1.6 -1.5,-2.9 -2.7,-4.1 -1.3,-1.3 -2.9,-2.3 -4.8,-3 -1.9,-0.7 -4,-1 -6.4,-1 -2.4,0 -4.5,0.4 -6.5,1.1 -1.9,0.7 -3.6,1.7 -5,3 -1.7,1.5 -3.1,3.4 -4,5.6 -0.9,2.2 -1.4,4.8 -1.4,7.6 0,2.4 0.4,4.6 1.2,6.6 0.8,2 1.9,3.8 3.3,5.3 1.4,1.4 3,2.5 4.8,3.2 1.9,0.8 3.9,1.1 6.2,1.1 2.3,0 4.5,-0.2 6.5,-0.5 2,-0.4 4.1,-1 6.3,-1.9 V 42 c -2,1 -4.1,1.7 -6.3,2 -2.1,0.4 -4.3,0.5 -6.6,0.5 -2.8,0 -5.3,-0.4 -7.6,-1.3 -2.3,-0.9 -4.3,-2.1 -6,-3.6 -2,-1.8 -3.6,-4.1 -4.6,-6.8 -1,-2.7 -1.5,-5.5 -1.5,-8.8 0,-3.2 0.5,-6 1.6,-8.4 1,-2.5 2.5,-4.6 4.4,-6.4 1.9,-1.8 4.1,-3.3 6.7,-4.3 2.6,-1 5.4,-1.5 8.6,-1.5 2.9,0 5.6,0.5 8.1,1.4 2.4,0.9 4.5,2.2 6.3,4 1.5,1.5 2.7,3.2 3.5,5.2 0.7,1.9 1.1,4.2 1.1,6.8 z m -15.6,2.8 c 0,-0.7 -0.1,-1.5 -0.2,-2.2 -0.2,-0.7 -0.4,-1.3 -0.8,-1.9 -0.4,-0.5 -0.8,-1 -1.4,-1.3 -0.6,-0.3 -1.3,-0.5 -2.2,-0.5 -0.9,0 -1.7,0.2 -2.3,0.7 -0.6,0.4 -1.1,1 -1.5,1.7 -0.4,0.7 -0.7,1.4 -0.8,2.2 -0.2,0.8 -0.2,1.6 -0.2,2.4 0,0.7 0.1,1.4 0.2,2.1 0.1,0.7 0.4,1.4 0.7,1.9 0.3,0.6 0.8,1 1.3,1.4 0.6,0.4 1.3,0.5 2.1,0.5 1,0 1.9,-0.2 2.5,-0.6 0.6,-0.4 1.2,-1 1.6,-1.7 0.4,-0.7 0.7,-1.4 0.8,-2.3 0.1,-0.7 0.2,-1.6 0.2,-2.4 z" />
    <path
       inkscape:connector-curvature="0"
       id="path3440"
       d="m 392.9,3.3 h 5.1 v 5.1 h -5.1 z m 0,36.9 V 14.3 H 398 V 40.2 Z M 432.4,3.3 h 5.1 v 5.1 h -5.1 z m 0,36.9 V 14.3 h 5.1 v 25.9 z m -50.3,-3.4 c -0.8,1.3 -1.9,2.3 -3.3,3 -1.5,0.7 -2.9,1 -4.4,1 -1.6,0 -3,-0.2 -4.2,-0.7 -1.2,-0.5 -2.2,-1.2 -3.1,-2.1 -1.2,-1.3 -2.2,-2.8 -2.8,-4.7 -0.6,-1.9 -0.9,-3.9 -0.9,-6 0,-2.3 0.3,-4.3 1,-6.3 0.7,-1.9 1.6,-3.5 2.9,-4.8 0.9,-0.8 1.9,-1.4 3,-1.9 1.2,-0.5 2.5,-0.7 4.1,-0.7 0.7,0 1.4,0.1 2.2,0.3 0.7,0.2 1.4,0.4 2.1,0.7 0.7,0.3 1.3,0.7 1.9,1.2 0.6,0.5 1,1 1.4,1.6 V 3.3 h 4.4 v 37 l -4,-0.1 z m 0,-9.5 c 0,-1.6 -0.2,-3.2 -0.6,-4.6 -0.4,-1.5 -1.2,-2.7 -2.3,-3.6 -0.5,-0.5 -1.1,-0.9 -1.8,-1.2 -0.7,-0.3 -1.5,-0.5 -2.4,-0.5 -1.4,0 -2.6,0.3 -3.6,0.9 -1,0.6 -1.7,1.3 -2.3,2.3 -0.5,1 -0.9,2 -1.2,3.2 -0.2,1.2 -0.3,2.4 -0.3,3.6 0,1.2 0.1,2.4 0.3,3.6 0.2,1.2 0.6,2.2 1.2,3.2 0.5,1 1.3,1.7 2.3,2.3 1,0.6 2.2,0.9 3.6,0.9 1,0 1.8,-0.2 2.4,-0.5 0.7,-0.3 1.3,-0.7 1.8,-1.2 1.1,-1 1.8,-2.2 2.3,-3.6 0.4,-1.6 0.6,-3.2 0.6,-4.8 z m 45.2,16.8 c 0,1.1 -0.2,2.1 -0.6,3 -0.4,0.9 -0.9,1.6 -1.6,2.2 -0.6,0.6 -1.3,1.1 -2.2,1.5 -0.8,0.4 -1.7,0.7 -2.6,0.9 -0.9,0.2 -1.9,0.4 -2.8,0.5 -1,0.1 -1.9,0.1 -2.8,0.1 -0.9,0 -1.7,0 -2.6,-0.1 -0.9,-0.1 -1.8,-0.2 -2.6,-0.5 -0.9,-0.2 -1.7,-0.5 -2.5,-0.9 -0.8,-0.4 -1.5,-0.9 -2.1,-1.5 -0.5,-0.5 -1,-1.2 -1.3,-1.9 -0.3,-0.8 -0.5,-1.6 -0.5,-2.7 0,-1.4 0.4,-2.5 1.1,-3.5 0.7,-1 1.6,-1.7 2.6,-2.2 -0.9,-0.3 -1.6,-0.9 -2.2,-1.7 -0.6,-0.8 -0.8,-1.7 -0.8,-2.7 0,-1.2 0.3,-2.2 1,-3 0.6,-0.9 1.5,-1.5 2.5,-2 -1,-0.9 -1.7,-1.9 -2.2,-3.1 -0.5,-1.2 -0.8,-2.4 -0.8,-3.6 0,-1.4 0.2,-2.6 0.7,-3.6 0.4,-1 1,-1.9 1.8,-2.7 0.9,-0.9 2,-1.6 3.2,-2.2 1.2,-0.5 2.7,-0.8 4.5,-0.8 1.2,0 2.3,0.1 3.3,0.4 1,0.3 1.9,0.6 2.6,1.1 0.4,-1.2 1.1,-2.1 2.1,-2.7 0.9,-0.6 2,-0.9 3.3,-0.9 0.2,0 0.4,0 0.6,0 0.2,0 0.4,0 0.6,0.1 v 3.5 c -0.1,0 -0.3,-0.1 -0.5,-0.1 H 426 c -0.9,0 -1.6,0.2 -2.1,0.6 -0.6,0.4 -0.9,1 -1,1.7 0.5,0.7 1,1.5 1.3,2.3 0.3,0.9 0.4,1.9 0.4,3 0,1.2 -0.2,2.4 -0.6,3.4 -0.4,1.1 -1,2 -1.7,2.8 -0.9,0.9 -1.9,1.7 -3.2,2.2 -1.3,0.6 -2.8,0.8 -4.5,0.8 -0.9,0 -1.6,-0.1 -2.2,-0.2 -0.6,-0.1 -1.3,-0.3 -2.1,-0.6 -0.5,0.2 -1,0.4 -1.5,0.8 -0.5,0.4 -0.7,0.9 -0.7,1.5 0,0.6 0.1,1 0.4,1.4 0.3,0.3 0.6,0.6 0.9,0.8 0.4,0.2 0.8,0.3 1.3,0.4 0.5,0.1 0.9,0.1 1.3,0.1 h 5.1 c 1.5,0 3.1,0.2 4.7,0.6 1.6,0.4 2.9,1.1 3.9,2.2 0.6,0.6 1.1,1.3 1.5,2.2 -0.1,1 0.1,2 0.1,3.1 z m -4.3,0 c 0,-1 -0.2,-1.7 -0.6,-2.3 -0.4,-0.5 -1,-1 -1.6,-1.2 -0.7,-0.3 -1.4,-0.4 -2.2,-0.5 C 417.8,40 417,40 416.2,40 h -6 c -0.9,0.3 -1.7,0.8 -2.3,1.5 -0.6,0.7 -1,1.6 -1,2.6 0,1.1 0.4,2 1.1,2.7 0.4,0.4 0.9,0.7 1.5,1 0.6,0.2 1.2,0.4 1.8,0.5 0.6,0.1 1.2,0.2 1.9,0.2 0.6,0 1.2,0.1 1.8,0.1 0.5,0 1.1,0 1.8,-0.1 0.6,0 1.3,-0.1 1.9,-0.3 0.6,-0.1 1.3,-0.3 1.8,-0.6 0.6,-0.2 1.1,-0.6 1.5,-1 0.7,-0.6 1,-1.5 1,-2.5 z m -3,-21.2 c 0,-1.6 -0.5,-3 -1.6,-4.1 -1,-1.1 -2.5,-1.6 -4.3,-1.6 -1.8,0 -3.2,0.5 -4.3,1.6 -1.1,1.1 -1.6,2.4 -1.6,4.1 0,1.6 0.5,3 1.6,4.1 1,1.1 2.5,1.7 4.3,1.7 1.8,0 3.2,-0.6 4.3,-1.7 1.1,-1.1 1.6,-2.5 1.6,-4.1 z m 38.5,17.5 c -0.8,0.2 -1.9,0.2 -3,0.2 -1.4,0 -2.6,-0.2 -3.5,-0.6 -0.9,-0.4 -1.6,-0.9 -2.2,-1.6 -0.5,-0.6 -0.9,-1.4 -1.1,-2.2 -0.2,-0.8 -0.3,-1.7 -0.3,-2.6 V 18.1 h -5 v -3.7 h 5 V 7.7 l 4.4,-1 v 7.6 h 7.7 V 18 h -7.7 v 15 c 0,1.3 0.3,2.2 0.8,2.7 0.6,0.5 1.4,0.8 2.6,0.8 0.5,0 1,0 1.5,-0.1 0.5,0 1,-0.1 1.4,-0.2 0.5,-0.1 1,-0.2 1.5,-0.3 v 4 c -0.6,0.2 -1.3,0.3 -2.1,0.5 z M 489.7,40 c -0.5,0.2 -0.9,0.4 -1.4,0.5 -0.4,0.1 -0.9,0.1 -1.5,0.1 -1.2,0 -2.1,-0.4 -2.7,-1.2 -0.7,-0.8 -1,-1.7 -1,-2.8 H 483 c -0.8,1.3 -1.9,2.3 -3.4,3.1 -1.5,0.8 -3.1,1.2 -5,1.2 -1.5,0 -2.8,-0.2 -3.9,-0.7 -1.1,-0.5 -2,-1.1 -2.8,-1.8 -0.7,-0.8 -1.3,-1.6 -1.7,-2.6 -0.4,-1 -0.6,-1.9 -0.6,-2.9 0,-0.8 0.1,-1.7 0.4,-2.6 0.3,-0.9 0.8,-1.8 1.5,-2.5 0.7,-0.8 1.7,-1.4 2.8,-2 1.2,-0.5 2.7,-0.9 4.4,-1 l 7.9,-0.5 v -1.9 c 0,-0.6 -0.1,-1.3 -0.2,-2 -0.2,-0.7 -0.5,-1.3 -1.1,-1.9 -0.4,-0.4 -1,-0.7 -1.7,-1 -0.7,-0.2 -1.5,-0.4 -2.6,-0.4 -1.2,0 -2.2,0.1 -2.9,0.4 -0.8,0.3 -1.3,0.7 -1.8,1.1 -0.9,0.9 -1.3,1.9 -1.3,3.1 h -4.3 c 0,-1.2 0.2,-2.2 0.6,-3.1 0.4,-0.9 0.9,-1.6 1.6,-2.3 0.9,-0.9 2,-1.6 3.5,-2.1 1.4,-0.5 2.9,-0.7 4.5,-0.7 2.5,0 4.5,0.5 6,1.4 1.5,0.9 2.5,2.1 3.1,3.6 0.5,1.2 0.8,2.5 0.8,4 V 35 c 0,0.7 0.1,1.1 0.4,1.4 0.3,0.2 0.6,0.4 1,0.4 h 0.4 c 0.1,0 0.3,0 0.4,-0.1 l 0.4,-0.1 V 40 Z M 475.8,28.1 c -0.6,0 -1.3,0.1 -2,0.3 -0.7,0.2 -1.3,0.5 -1.8,0.8 -0.5,0.4 -1,0.8 -1.3,1.4 -0.3,0.6 -0.5,1.3 -0.5,2.1 0,1.2 0.4,2.2 1.2,3.1 0.8,0.9 2.1,1.4 3.9,1.4 1,0 2,-0.2 2.9,-0.5 0.9,-0.3 1.7,-0.9 2.4,-1.6 0.8,-0.8 1.3,-1.7 1.7,-2.7 0.3,-1 0.5,-2.1 0.5,-3.2 v -1.5 z m 25.5,12.1 c -0.2,0.1 -0.5,0.1 -0.8,0.2 -0.5,0.1 -1.3,0.2 -2.3,0.2 -1.9,0 -3.3,-0.5 -4.1,-1.6 -0.9,-1.1 -1.3,-2.7 -1.3,-4.7 v -31 h 4.4 V 34 c 0,0.9 0.2,1.6 0.5,2 0.3,0.4 1,0.7 1.8,0.7 h 1.4 c 0.1,0 0.3,0 0.4,-0.1 z" />
    <path
       inkscape:connector-curvature="0"
       id="path3442"
       d="m 334.4,12.1 c -7.7,0 -14,6.5 -14,14.4 0,8 6.3,14.4 14,14.4 7.7,0 14,-6.5 14,-14.4 0.1,-7.9 -6.2,-14.4 -14,-14.4 m 0,22.1 c -4,0 -7.2,-3.4 -7.2,-7.6 0,-4.2 3.2,-7.6 7.2,-7.6 4,0 7.2,3.4 7.2,7.6 0,4.2 -3.2,7.6 -7.2,7.6 m -88,-21.3 h -5.2 c -0.4,0 -0.9,0.3 -1,0.8 l -4.3,13.2 -7.3,-14.1 c -0.2,-0.4 -0.7,-0.7 -1.2,-0.7 h -0.5 c -0.4,0 -1,0.3 -1.2,0.7 l -7.3,14.1 -4.3,-13.2 c -0.1,-0.4 -0.6,-0.8 -1,-0.8 h -5.2 c -0.7,0 -1,0.5 -0.8,1.1 l 8.4,26.2 c 0.1,0.4 0.6,0.8 1,0.8 h 0.8 c 0.4,0 1,-0.3 1.2,-0.7 l 8.6,-16.6 8.6,16.6 c 0.2,0.4 0.7,0.7 1.2,0.7 h 0.8 c 0.4,0 0.9,-0.3 1,-0.8 L 247.1,14 c 0.3,-0.5 -0.1,-1.1 -0.7,-1.1 m 12,0 h -5.2 c -0.7,0 -1.2,0.5 -1.2,1.2 V 39 c 0,0.7 0.5,1.2 1.2,1.2 h 5.2 c 0.7,0 1.2,-0.5 1.2,-1.2 V 14.1 c 0,-0.6 -0.5,-1.2 -1.2,-1.2 m 22.8,-0.8 c -3.6,0 -6.8,1.6 -9.2,4.1 v 0 l -0.9,-2.5 c -0.2,-0.4 -0.6,-0.8 -1.1,-0.8 h -2.4 c -0.7,0 -1.2,0.5 -1.2,1.2 v 39.3 c 0,0.7 0.5,1.2 1.2,1.2 h 5.2 c 0.7,0 1.2,-0.5 1.2,-1.2 V 39.8 c 2.2,0.8 4.6,1.2 7.2,1.2 7.3,0 13.2,-6.5 13.2,-14.4 0,-8 -5.9,-14.5 -13.2,-14.5 m -1.4,22.1 c -2.2,0 -4.2,-0.6 -5.8,-1.5 V 22.3 c 1.3,-2 3.4,-3.4 5.8,-3.4 3.9,0 7,3.4 7,7.6 0,4.3 -3.1,7.7 -7,7.7 m 33.9,-22.1 c -5,0 -7.9,4.1 -7.9,4.1 l -0.9,-2.5 c -0.2,-0.4 -0.6,-0.8 -1.1,-0.8 h -2.5 c -0.7,0 -1.2,0.5 -1.2,1.2 V 39 c 0,0.7 0.5,1.2 1.2,1.2 h 5.2 c 0.7,0 1.2,-0.5 1.2,-1.2 V 21.6 c 3,-3.7 6.9,-2.4 7.7,-2.1 0.8,0.3 1.4,-0.1 1.6,-0.6 0.2,-0.5 1.4,-3.1 1.8,-4.1 0.5,-0.9 -0.1,-2.7 -5.1,-2.7 m -56.8,-12 c -2.2,-0.6 -4.6,0.7 -5.2,3 -0.6,2.2 0.7,4.6 3,5.2 2.2,0.6 4.6,-0.7 5.2,-3 0.6,-2.2 -0.7,-4.6 -3,-5.2" />
  </g>
</svg>
