<?xml version="1.0" encoding="UTF-8" standalone="no"?>
<svg
   xmlns:dc="http://purl.org/dc/elements/1.1/"
   xmlns:cc="http://creativecommons.org/ns#"
   xmlns:rdf="http://www.w3.org/1999/02/22-rdf-syntax-ns#"
   xmlns:svg="http://www.w3.org/2000/svg"
   xmlns="http://www.w3.org/2000/svg"
   version="1.1"
   viewBox="0 0 22 22"
   height="22"
   width="22"
   aria-labelledby="buildit-icon-title">
  <metadata>
    <rdf:RDF>
      <cc:Work
         rdf:about="">
        <dc:format>image/svg+xml</dc:format>
        <dc:type
           rdf:resource="http://purl.org/dc/dcmitype/StillImage" />
        <dc:title>Buildit Icon</dc:title>
      </cc:Work>
    </rdf:RDF>
  </metadata>
  <title
     id="buildit-icon-title">Buildit Icon</title>
  <path
     id="path4668-9"
     d="M 11.444306,2.1853 C 10.179748,0.92076 8.698013,0.2977 6.999349,0.31657 5.380228,0.34367 3.921816,0.97534 2.62347,2.20764 l 2.381619,2.3816 C 5.614375,4.04765 6.288326,3.74535 7.027716,3.68586 c 0.821016,-0.066 1.557137,0.22625 2.208295,0.87739 0.585082,0.5851 0.905835,1.29276 0.962468,2.12321 0.06603,0.82101 -0.071,1.82624 -0.410724,3.0153 l -0.665192,3.10013 c -0.726652,3.02926 -0.226154,5.40736 1.500819,7.13433 1.236234,1.23625 2.712704,1.8166 4.430244,1.74112 1.717535,-0.0754 3.218247,-0.75495 4.501671,-2.0384 1.358933,-1.35892 2.06658,-2.85936 2.123208,-4.5014 0.07551,-1.64204 -0.537811,-3.11403 -1.840106,-4.41632 C 18.168033,9.05085 16.425122,8.377 13.443034,9.0187 l -0.60873,3.1004 c 1.255115,-0.31142 1.705277,-0.27036 2.51686,-0.19487 0.830458,0.0755 1.500423,0.36805 2.010022,0.87766 0.632276,0.63226 0.938824,1.36366 0.919927,2.19411 -0.01894,0.83045 -0.367836,1.58528 -1.047298,2.26475 -0.679461,0.67947 -1.434555,1.03815 -2.265014,1.07592 -0.830448,0.0377 -1.561577,-0.25956 -2.193849,-0.89184 -0.556783,-0.55678 -0.873052,-1.25997 -0.948551,-2.10928 -0.06603,-0.83989 0.07547,-1.85909 0.42464,-3.05759 L 12.859777,9.17812 C 13.586423,6.18658 13.114646,3.85565 11.444306,2.1853 Z"
     style="font-style:normal;font-variant:normal;font-weight:600;font-stretch:normal;font-size:medium;line-height:43.50423813px;font-family:'Open Sans';-inkscape-font-specification:'Open Sans Semi-Bold';text-align:center;letter-spacing:0px;word-spacing:0px;writing-mode:lr-tb;text-anchor:middle;fill:#ff7913;fill-opacity:1;stroke:none;stroke-width:0.50885838;stroke-linecap:butt;stroke-linejoin:miter;stroke-miterlimit:4;stroke-dasharray:none;stroke-opacity:1" />
  <path
     id="path4672-7"
     d="M 2.184126,2.6674 C 0.985072,3.9696 0.361677,5.39834 0.317745,6.95452 c -0.04719,1.67034 0.585338,3.16155 1.897103,4.47331 1.547645,1.54764 3.289717,2.00995 6.347298,1.38711 L 9.227349,9.71481 C 7.972223,10.06397 7.490013,10.20104 6.659533,10.12553 5.847966,10.05013 5.177991,9.748 4.649511,9.21953 3.998363,8.56839 3.691585,7.83672 3.729321,7.02515 3.762281,6.31588 4.0426,5.65759 4.566002,5.04927 L 2.184126,2.6674 Z" />
</svg>
