<?xml version="1.0" encoding="UTF-8" standalone="no"?>
<svg
   xmlns:dc="http://purl.org/dc/elements/1.1/"
   xmlns:cc="http://creativecommons.org/ns#"
   xmlns:rdf="http://www.w3.org/1999/02/22-rdf-syntax-ns#"
   xmlns:svg="http://www.w3.org/2000/svg"
   xmlns="http://www.w3.org/2000/svg"
   xmlns:sodipodi="http://sodipodi.sourceforge.net/DTD/sodipodi-0.dtd"
   xmlns:inkscape="http://www.inkscape.org/namespaces/inkscape"
   version="1.0"
   width="933.33331"
   height="933.33331"
   viewBox="0 0 700 700"
   preserveAspectRatio="xMidYMid meet"
   id="svg10"
   sodipodi:docname="buildit-logo.svg"
   inkscape:version="0.92.2 5c3e80d, 2017-08-06">
  <title
     id="title859">Buildit</title>
  <defs
     id="defs14" />
  <sodipodi:namedview
     pagecolor="#ffffff"
     bordercolor="#666666"
     borderopacity="1"
     objecttolerance="10"
     gridtolerance="10"
     guidetolerance="10"
     inkscape:pageopacity="0"
     inkscape:pageshadow="2"
     inkscape:window-width="1368"
     inkscape:window-height="1037"
     id="namedview12"
     showgrid="false"
     inkscape:zoom="0.25285714"
     inkscape:cx="462.71186"
     inkscape:cy="466.66667"
     inkscape:window-x="167"
     inkscape:window-y="152"
     inkscape:window-maximized="0"
     inkscape:current-layer="svg10"
     units="px" />
  <metadata
     id="metadata2">
Created by potrace 1.11, written by Peter Selinger 2001-2013
<rdf:RDF>
  <cc:Work
     rdf:about="">
    <dc:format>image/svg+xml</dc:format>
    <dc:type
       rdf:resource="http://purl.org/dc/dcmitype/StillImage" />
    <dc:title>Buildit</dc:title>
  </cc:Work>
</rdf:RDF>
</metadata>
  <ellipse
     style="fill:#ffffff;fill-opacity:1;stroke:none;stroke-width:0.7548129;image-rendering:auto"
     id="path4560"
     cx="350"
     cy="349.99997"
     rx="350"
     ry="350.00003"
     class="grav-c-icon__secondary-element" />
  <path
     id="path6"
     style="fill:#000000;stroke:none;stroke-width:0.1"
     d="m 339.5,249.7 c -15,1.8 -31.6,8.5 -41.2,16.5 -19.6,16.3 -30.6,43.1 -32,78.3 -1.8,42.9 9.4,75.4 32.5,94.7 6.5,5.4 21.1,12.3 30.7,14.4 10.8,2.4 29.5,2.4 39,-0.1 17.1,-4.3 30.1,-13.9 41.2,-30.5 12,-17.9 18.3,-42.3 18.3,-71.1 0,-30.7 -6.9,-54.8 -21.1,-74 -8.1,-11 -17.7,-18.7 -29.5,-23.7 -9.4,-3.9 -26.4,-6 -37.9,-4.5 z m -11,-214.1 c -15.9,1.3 -56.5,8.1 -58.1,9.7 -0.2,0.2 -0.3,40.1 -0.2,88.6 l 0.3,88.3 5,-3.9 c 32.8,-25.7 78.2,-34.7 120.8,-23.9 60.2,15.3 101.2,74 104.4,149.6 1.7,40.6 -8.7,80.1 -29.4,111.4 -7.9,12 -26.2,30.9 -36.8,37.8 -14.8,9.7 -32.6,16.9 -49.5,19.9 -11.6,2.1 -42.1,1.8 -54.5,-0.5 -21.7,-4 -43,-13.6 -57.8,-25.9 -2.6,-2.2 -5,-3.8 -5.2,-3.5 -0.2,0.2 -0.9,4.4 -1.5,9.3 -0.5,5 -1.3,10.7 -1.6,12.7 l -0.6,3.8 H 231.4 199 V 291.5 C 199,171.9 198.8,74 198.5,74 c -1,0 -20.8,12.1 -27.5,16.8 -44.1,30.9 -78.7,70.7 -102.4,117.9 -16.4,32.7 -26.3,66 -31.8,106.3 -1.6,12.5 -1.6,57.5 0,70 5.5,40.3 15.4,73.6 31.8,106.3 44.5,88.7 127.7,150.8 225.9,168.6 21.4,3.8 29.8,4.5 55.5,4.5 25.7,0 34.1,-0.7 55.5,-4.5 98.2,-17.8 181.4,-79.9 225.9,-168.6 16.4,-32.7 26.3,-66 31.8,-106.3 0.7,-5.6 1.2,-19.9 1.2,-35 0,-25.7 -0.7,-34.1 -4.5,-55.5 C 642.1,196.3 580,113.1 491.3,68.6 459.5,52.7 426.5,42.6 389.2,37.5 378.8,36 338.7,34.8 328.5,35.6 Z" />
</svg>
