<?xml version="1.0" encoding="UTF-8" standalone="no"?>
<svg
   xmlns:dc="http://purl.org/dc/elements/1.1/"
   xmlns:cc="http://creativecommons.org/ns#"
   xmlns:rdf="http://www.w3.org/1999/02/22-rdf-syntax-ns#"
   xmlns:svg="http://www.w3.org/2000/svg"
   xmlns="http://www.w3.org/2000/svg"
   version="1.1"
   aria-labelledby="buildit-logo-title"
   viewBox="0 0 260 260"
   height="260"
   width="260">
  <metadata>
    <rdf:RDF>
      <cc:Work
         rdf:about="">
        <dc:format>image/svg+xml</dc:format>
        <dc:type
           rdf:resource="http://purl.org/dc/dcmitype/StillImage" />
        <dc:title>Buildit icon</dc:title>
      </cc:Work>
    </rdf:RDF>
  </metadata>
  <title id="buildit-logo-title">Buildit icon</title>
  <g
     transform="translate(0,-792.36217)"
     id="layer1">
    <rect
       y="792.36218"
       x="0"
       height="260"
       width="260"
       id="rect4136"
       style="opacity:0.98999999;fill:#241c1c;fill-opacity:1;stroke:none;stroke-width:1;stroke-miterlimit:4;stroke-dasharray:none;stroke-opacity:1" />
    <path
       d="m 133.89887,887.2724 q 18.19474,0 31.19098,9.09737 13.25616,9.09736 20.01421,24.43293 7.01797,15.07564 7.01797,33.27037 0,18.45466 -7.2779,33.79023 -7.01797,15.3356 -20.27413,24.4329 -12.99624,8.8375 -30.67113,8.8375 -22.87338,0 -37.949019,-13.5161 l -1.299624,10.9168 -26.772254,0 0,-194.94358 29.111578,0 0,77.19767 Q 113.10489,887.2724 133.89887,887.2724 Z M 130,996.70074 q 14.81571,0 23.39323,-11.69662 8.83745,-11.95654 8.83745,-30.93105 0,-18.97451 -8.83745,-30.67112 Q 144.81571,911.70533 130,911.70533 q -16.37526,0 -25.47263,11.17677 -9.097368,11.17676 -9.097368,31.19097 0,20.27414 9.097368,31.4509 9.09737,11.17677 25.47263,11.17677 z"
       style="font-style:normal;font-variant:normal;font-weight:600;font-stretch:normal;font-size:medium;line-height:125%;font-family:Cabin;-inkscape-font-specification:'Cabin Semi-Bold';letter-spacing:0px;word-spacing:0px;fill:#f7f5f5;fill-opacity:1;stroke:none;stroke-width:1px;stroke-linecap:butt;stroke-linejoin:miter;stroke-opacity:1"
       id="path4162" />
  </g>
</svg>
