<?xml version="1.0" encoding="UTF-8" standalone="no"?>
<svg
   xmlns:dc="http://purl.org/dc/elements/1.1/"
   xmlns:cc="http://creativecommons.org/ns#"
   xmlns:rdf="http://www.w3.org/1999/02/22-rdf-syntax-ns#"
   xmlns:svg="http://www.w3.org/2000/svg"
   xmlns="http://www.w3.org/2000/svg"
   xmlns:sodipodi="http://sodipodi.sourceforge.net/DTD/sodipodi-0.dtd"
   xmlns:inkscape="http://www.inkscape.org/namespaces/inkscape"
   version="1.0"
   width="933.33331"
   height="933.33331"
   viewBox="0 0 700 700"
   preserveAspectRatio="xMidYMid meet"
   id="svg10"
   sodipodi:docname="buildit-logo.svg"
   inkscape:version="0.92.2 5c3e80d, 2017-08-06">
  <defs
     id="defs14" />
  <sodipodi:namedview
     pagecolor="#ffffff"
     bordercolor="#666666"
     borderopacity="1"
     objecttolerance="10"
     gridtolerance="10"
     guidetolerance="10"
     inkscape:pageopacity="0"
     inkscape:pageshadow="2"
     inkscape:window-width="1483"
     inkscape:window-height="1108"
     id="namedview12"
     showgrid="false"
     inkscape:zoom="0.25285714"
     inkscape:cx="462.71186"
     inkscape:cy="466.66667"
     inkscape:window-x="823"
     inkscape:window-y="43"
     inkscape:window-maximized="0"
     inkscape:current-layer="svg10"
     units="px" />
  <metadata
     id="metadata2">
Created by potrace 1.11, written by Peter Selinger 2001-2013
<rdf:RDF>
  <cc:Work
     rdf:about="">
    <dc:format>image/svg+xml</dc:format>
    <dc:type
       rdf:resource="http://purl.org/dc/dcmitype/StillImage" />
    <dc:title></dc:title>
  </cc:Work>
</rdf:RDF>
</metadata>
  <ellipse
     style="fill:#ffffff;fill-opacity:1;stroke:none;stroke-width:0.7548129;image-rendering:auto"
     id="path4560"
     cx="350"
     cy="349.99997"
     rx="350"
     ry="350.00003"
     class="grav-c-icon__secondary-element" />
  <g
     transform="matrix(0.1,0,0,-0.1,0,700)"
     id="g8"
     style="fill:#000000;stroke:none">
    <path
       d="m 3285,6644 c -159,-13 -565,-81 -581,-97 -2,-2 -3,-401 -2,-886 l 3,-883 50,39 c 328,257 782,347 1208,239 602,-153 1012,-740 1044,-1496 17,-406 -87,-801 -294,-1114 -79,-120 -262,-309 -368,-378 -148,-97 -326,-169 -495,-199 -116,-21 -421,-18 -545,5 -217,40 -430,136 -578,259 -26,22 -50,38 -52,35 -2,-2 -9,-44 -15,-93 -5,-50 -13,-107 -16,-127 l -6,-38 h -324 -324 v 2175 c 0,1196 -2,2175 -5,2175 -10,0 -208,-121 -275,-168 C 1269,5783 923,5385 686,4913 522,4586 423,4253 368,3850 352,3725 352,3275 368,3150 423,2747 522,2414 686,2087 1131,1200 1963,579 2945,401 c 214,-38 298,-45 555,-45 257,0 341,7 555,45 982,178 1814,799 2259,1686 164,327 263,660 318,1063 7,56 12,199 12,350 0,257 -7,341 -45,555 -178,982 -799,1814 -1686,2259 -318,159 -648,260 -1021,311 -104,15 -505,27 -607,19 z"
       id="path4"
       inkscape:connector-curvature="0" />
    <path
       d="m 3395,4503 c -150,-18 -316,-85 -412,-165 -196,-163 -306,-431 -320,-783 -18,-429 94,-754 325,-947 65,-54 211,-123 307,-144 108,-24 295,-24 390,1 171,43 301,139 412,305 120,179 183,423 183,711 0,307 -69,548 -211,740 -81,110 -177,187 -295,237 -94,39 -264,60 -379,45 z"
       id="path6"
       inkscape:connector-curvature="0" />
  </g>
</svg>
