<?xml version="1.0" encoding="UTF-8" standalone="no"?>
<svg
  xmlns="http://www.w3.org/2000/svg"
  viewBox="0 0 100 100"
  aria-describedby="buildit-desc"
  aria-labelledby="buildit-title"
  id="instagram-brand-icon">
  <desc id="buildit-desc">Instagram logo</desc>
  <title id="buildit-title">Intagram</title>
  <path d="M49.94 24.13A25.748 25.748 0 1 0 75.69 49.877a25.748 25.748 0 0 0-25.748-25.749zm0 42.462a16.714 16.714 0 1 1 16.714-16.714 16.714 16.714 0 0 1-16.713 16.714z"/>
  <circle cx="76.706" cy="23.112" r="6.017"/>
  <path d="M49.94 0h-.008C36.698.001 34.687.06 29.398.302c-5.66.258-9.652 1.378-12.005 2.284a24.3 24.3 0 0 0-8.869 5.757 24.301 24.301 0 0 0-5.758 8.872C1.861 19.568.741 23.558.483 29.217.24 34.528.18 36.467.18 49.879l.001.02v.222c0 13.411.059 15.351.3 20.662.259 5.661 1.38 9.652 2.285 12.005a24.3 24.3 0 0 0 5.757 8.87c2.14 2.179 4.676 3.898 7.446 5.134.391.23.8.428 1.222.594 2.342.91 6.368 2.051 12.086 2.312 5.312.243 7.251.302 20.663.302a3.04 3.04 0 0 0 .118 0h.01c13.233-.001 15.245-.06 20.533-.302 5.661-.258 9.652-1.378 12.005-2.284a24.3 24.3 0 0 0 8.869-5.757 24.3 24.3 0 0 0 5.758-8.871c.905-2.354 2.025-6.343 2.283-12.003.243-5.311.302-7.251.302-20.662l-.001-.02v-.222c0-13.411-.059-15.351-.3-20.662-.259-5.661-1.38-9.652-2.285-12.005a24.3 24.3 0 0 0-5.757-8.87c-2.14-2.179-4.676-3.898-7.445-5.134-.392-.23-.8-.428-1.223-.594C80.466 1.704 76.44.563 70.722.302 65.41.059 63.47 0 50.058 0a3.05 3.05 0 0 0-.118 0zm0 8.77c3.348 0 5.957.004 8.071.013 6.418.025 8.325.098 12.31.28 4.89.223 7.544 1.04 9.311 1.727l-.049.026a15.536 15.536 0 0 1 5.696 3.725 15.535 15.535 0 0 1 3.75 5.765c.687 1.767 1.504 4.422 1.727 9.31.24 5.288.292 6.874.292 20.263v.242c0 13.389-.051 14.975-.292 20.262-.223 4.89-1.04 7.544-1.727 9.31a15.535 15.535 0 0 1-3.75 5.766 15.536 15.536 0 0 1-5.766 3.751c-1.767.687-4.422 1.504-9.31 1.727-5.288.241-6.874.292-20.262.292-3.277 0-5.869-.003-7.952-.012-6.418-.025-8.325-.098-12.31-.28-4.89-.223-7.544-1.04-9.311-1.727l.049-.026a15.534 15.534 0 0 1-5.695-3.725 15.536 15.536 0 0 1-3.751-5.765c-.687-1.767-1.504-4.422-1.727-9.31-.24-5.288-.292-6.874-.292-20.263v-.242c0-13.389.051-14.975.292-20.262.223-4.89 1.04-7.544 1.727-9.31a15.536 15.536 0 0 1 3.75-5.766 15.535 15.535 0 0 1 5.766-3.751c1.767-.687 4.422-1.504 9.31-1.727 5.269-.24 6.89-.292 20.144-.292z"/>
</svg>
