<?xml version="1.0" encoding="UTF-8"?>
<svg
    width="97px"
    height="97px"
    viewBox="0 0 97 97"
    version="1.1"
    xmlns="http://www.w3.org/2000/svg"
    xmlns:xlink="http://www.w3.org/1999/xlink"
    id="twitter-brand-icon"
    aria-describedby="twitter-desc"
    aria-labelledby="twitter-title">
    <desc id="twitter-desc">Logo for twitter</desc>
    <title id="twitter-title">twitter brand icon</title>
    <g>
        <path d="M99.8054581,9.7877193 C96.1329435,11.4161793 92.1871345,12.5169591 88.0452242,13.0118908 C92.2725146,10.4777778 95.5192982,6.46510721 97.0483431,1.6834308 C93.091423,4.03021442 88.7097466,5.73411306 84.0454191,6.65224172 C80.3105263,2.67270955 74.988694,0.186354776 69.0992203,0.186354776 C57.7910331,0.186354776 48.6231969,9.35380117 48.6231969,20.6617934 C48.6231969,22.2666667 48.8042885,23.8294347 49.1534113,25.3282651 C32.1358674,24.4740741 17.0479532,16.3224172 6.94892788,3.93391813 C5.18635478,6.95808967 4.17641326,10.4754386 4.17641326,14.2280702 C4.17641326,21.3321637 7.79122807,27.5996101 13.285575,31.27154 C9.92904483,31.1651072 6.77173489,30.2440546 4.01130604,28.7103314 C4.00935673,28.7957115 4.00935673,28.8814815 4.00935673,28.9678363 C4.00935673,38.888694 11.0676413,47.1643275 20.4345029,49.045809 C18.7165692,49.5134503 16.9074074,49.7645224 15.039961,49.7645224 C13.7204678,49.7645224 12.4378168,49.6358674 11.1873294,49.3964912 C13.7931774,57.5309942 21.3549708,63.4518519 30.3152047,63.6165692 C23.3074074,69.1089669 14.4783626,72.3820663 4.88479532,72.3820663 C3.23196881,72.3820663 1.60214425,72.2853801 0.000194931774,72.0953216 C9.06179337,77.905653 19.8249513,81.2955166 31.3883041,81.2955166 C69.0512671,81.2955166 89.6471735,50.094347 89.6471735,23.0358674 C89.6471735,22.1481481 89.6269006,21.2651072 89.5877193,20.3867446 C93.5888889,17.5 97.0604288,13.8937622 99.8054581,9.7877193 Z" id="Shape"></path>
    </g>
</svg>