<?xml version="1.0" encoding="UTF-8" standalone="no"?>
<svg
   xmlns:dc="http://purl.org/dc/elements/1.1/"
   xmlns:cc="http://creativecommons.org/ns#"
   xmlns:rdf="http://www.w3.org/1999/02/22-rdf-syntax-ns#"
   xmlns:svg="http://www.w3.org/2000/svg"
   xmlns="http://www.w3.org/2000/svg"
   version="1.1"
   viewBox="0 0 247 79"
   aria-labelledby="designit-title"
   aria-describedby="designit-desc"
   height="79px"
   width="247px">
  <metadata>
    <rdf:RDF>
      <cc:Work
         rdf:about="">
        <dc:format>image/svg+xml</dc:format>
        <dc:type
           rdf:resource="http://purl.org/dc/dcmitype/StillImage" />
        <dc:title></dc:title>
      </cc:Work>
    </rdf:RDF>
  </metadata>
  <title id="designit-title">Designit</title>
  <desc id="designit-desc">Logo for Designit</desc>
  <path
     d="m 52.864,64.427 c -2.475,0 -4.523,2.09 -4.523,4.693 0,2.603 2.006,4.693 4.523,4.693 2.475,0 4.523,-2.09 4.523,-4.693 0,-2.603 -2.048,-4.693 -4.523,-4.693 z m 0,7.168 c -1.28,0 -2.304,-1.11 -2.304,-2.475 0,-1.365 1.024,-2.475 2.304,-2.475 1.28,0 2.304,1.11 2.304,2.475 0,1.365 -1.024,2.475 -2.304,2.475 z m -28.373,-6.912 -1.664,0 c -0.128,0 -0.299,0.128 -0.342,0.256 L 21.12,69.248 18.773,64.64 c -0.08912,-0.125512 -0.23034,-0.203846 -0.384,-0.213 l -0.17,0 c -0.15366,0.0092 -0.294882,0.08749 -0.384,0.213 l -2.347,4.608 -1.365,-4.309 C 14.08,64.811 13.909,64.683 13.781,64.683 l -1.664,0 c -0.213,0 -0.341,0.17 -0.256,0.384 l 2.731,8.533 c 0.043,0.128 0.213,0.256 0.341,0.256 l 0.256,0 c 0.15366,-0.0092 0.294882,-0.08749 0.384,-0.213 l 2.774,-5.419 2.773,5.419 c 0.08912,0.125512 0.23034,0.203846 0.384,0.213 l 0.256,0 c 0.128,0 0.299,-0.128 0.341,-0.256 l 2.731,-8.533 c 0,-0.214 -0.128,-0.384 -0.341,-0.384 z m 3.882,0 -1.664,0 c -0.102006,-5.36e-4 -0.19999,0.03975 -0.27212,0.11188 -0.07213,0.07213 -0.112415,0.170114 -0.11188,0.27212 l 0,8.106 c 0,0.214 0.171,0.384 0.384,0.384 l 1.664,0 c 0.214,0 0.384,-0.17 0.384,-0.384 l 0,-8.106 C 28.757535,64.964994 28.71725,64.86701 28.64512,64.79488 28.57299,64.72275 28.475006,64.682464 28.373,64.683 Z m 7.339,-0.256 c -1.152,0 -2.219,0.512 -2.987,1.322 l -0.298,-0.81 c -0.043,-0.128 -0.214,-0.256 -0.342,-0.256 l -0.768,0 c -0.102006,-5.36e-4 -0.19999,0.03975 -0.27212,0.11188 -0.07213,0.07213 -0.112416,0.170114 -0.11188,0.27212 l 0,12.8 c 0,0.213 0.171,0.384 0.384,0.384 l 1.664,0 c 0.102006,5.36e-4 0.19999,-0.03975 0.27212,-0.11188 0.07213,-0.07213 0.112415,-0.170114 0.11188,-0.27212 l 0,-4.438 c 0.740485,0.258444 1.519722,0.388317 2.304,0.384 2.347,0 4.267,-2.09 4.267,-4.693 0.043,-2.603 -1.877,-4.693 -4.224,-4.693 z m -0.469,7.168 c -0.683,0 -1.366,-0.171 -1.878,-0.512 l 0,-3.371 c 0.381262,-0.680252 1.098208,-1.103625 1.878,-1.109 1.237,0 2.261,1.109 2.261,2.474 0,1.408 -1.024,2.518 -2.261,2.518 z m 10.922,-7.168 c -1.621,0 -2.56,1.322 -2.56,1.322 l -0.298,-0.81 c -0.043,-0.128 -0.214,-0.256 -0.342,-0.256 l -0.768,0 c -0.102006,-5.36e-4 -0.19999,0.03975 -0.27212,0.11188 -0.07213,0.07213 -0.112416,0.170114 -0.11188,0.27212 l 0,8.106 c 0,0.214 0.171,0.384 0.384,0.384 l 1.664,0 c 0.214,0 0.384,-0.17 0.384,-0.384 l 0,-5.674 c 0.982,-1.195 2.219,-0.811 2.475,-0.683 0.256,0.085 0.427,-0.043 0.512,-0.213 0.085,-0.171 0.427,-1.024 0.597,-1.323 0.128,-0.299 -0.042,-0.853 -1.664,-0.853 z M 27.861,60.501 c -0.725,-0.213 -1.45,0.256 -1.664,0.982 -0.213,0.725 0.256,1.493 0.939,1.664 0.725,0.213 1.451,-0.256 1.664,-0.982 0.213,-0.725 -0.213,-1.493 -0.939,-1.664 z M 8.235,73.472 c -0.149367,0.07535 -0.3071323,0.132753 -0.47,0.171 -0.17,0.042 -0.298,0.042 -0.512,0.042 -0.384,0 -0.725,-0.128 -0.938,-0.384 C 6.0963045,73.037092 5.9754909,72.705737 5.973,72.363 l -0.042,0 c -0.256,0.426 -0.64,0.81 -1.152,1.066 -0.5304036,0.261821 -1.1155706,0.393458 -1.707,0.384 -0.512,0 -0.939,-0.085 -1.323,-0.256 C 1.3987366,73.404791 1.0804634,73.187632 0.811,72.917 0.56272895,72.662493 0.37328073,72.356645 0.256,72.021 0.13738076,71.707782 0.07935179,71.374879 0.085,71.04 c 0,-0.299 0.043,-0.597 0.128,-0.896 0.086,-0.299 0.256,-0.597 0.512,-0.853 0.256,-0.256 0.555,-0.47 0.939,-0.683 0.384,-0.171 0.896,-0.299 1.493,-0.341 l 2.646,-0.171 0,-0.64 C 5.803,67.243 5.76,66.987 5.717,66.773 5.6757021,66.518356 5.5382518,66.289272 5.333,66.133 5.163,66.005 4.992,65.877 4.779,65.792 4.565,65.707 4.267,65.664 3.883,65.664 c -0.384,0 -0.726,0.043 -0.982,0.128 -0.256,0.085 -0.469,0.213 -0.597,0.384 -0.299,0.299 -0.427,0.64 -0.427,1.067 l -1.45,0 c 0,-0.427 0.085,-0.768 0.213,-1.067 0.12952212,-0.30439 0.31816611,-0.580048 0.555,-0.811 0.3262491,-0.323144 0.7195234,-0.570648 1.152,-0.725 0.4929845,-0.174908 1.0129364,-0.261566 1.536,-0.256 0.853,0 1.536,0.171 2.048,0.469 0.512,0.342 0.853,0.726 1.066,1.238 0.171,0.426 0.256,0.853 0.256,1.365 l 0,4.309 c 0,0.214 0.043,0.384 0.128,0.47 0.093194,0.08523 0.2157484,0.131097 0.342,0.128 l 0.256,0 0.128,-0.043 0,1.152 0.128,0 z M 5.888,69.291 3.541,69.419 c -0.213,0 -0.426,0.042 -0.682,0.128 -0.214,0.085 -0.427,0.17 -0.64,0.298 -0.1774299,0.134428 -0.335572,0.29257 -0.47,0.47 -0.128,0.213 -0.17,0.426 -0.17,0.725 0,0.384 0.128,0.768 0.384,1.067 0.256,0.298 0.725,0.469 1.322,0.469 0.342,0 0.64,-0.043 0.982,-0.171 0.298,-0.128 0.597,-0.298 0.81,-0.554 0.256,-0.256 0.47,-0.598 0.555,-0.939 0.1190286,-0.342912 0.1769078,-0.704065 0.171,-1.067 l 0,-0.554 0.085,0 z m 62.464,1.28 c -0.043,0.469 -0.128,0.896 -0.299,1.28 -0.17,0.341 -0.426,0.682 -0.725,0.981 -0.317372,0.313512 -0.694502,0.560058 -1.109,0.725 -0.427,0.171 -0.896,0.256 -1.451,0.256 -0.811,0 -1.451,-0.17 -1.963,-0.469 -0.512,-0.341 -0.938,-0.725 -1.237,-1.195 -0.251119,-0.394848 -0.438418,-0.826818 -0.555,-1.28 -0.128,-0.512 -0.17,-1.066 -0.17,-1.749 0,-0.683 0.042,-1.237 0.17,-1.749 0.106141,-0.456696 0.294181,-0.890372 0.555,-1.28 0.299,-0.47 0.725,-0.854 1.237,-1.195 0.512,-0.341 1.152,-0.469 1.963,-0.469 0.512,0 0.981,0.085 1.408,0.256 0.427,0.17 0.768,0.384 1.067,0.682 0.298,0.299 0.554,0.64 0.725,0.982 0.171,0.384 0.299,0.81 0.341,1.28 l -1.493,0 c -0.0459,-0.27631 -0.117205,-0.547794 -0.213,-0.811 -0.128,-0.213 -0.256,-0.427 -0.427,-0.597 -0.180102,-0.176633 -0.399393,-0.308208 -0.64,-0.384 -0.261286,-0.08767 -0.535415,-0.130933 -0.811,-0.128 -0.341,0 -0.64,0.042 -0.853,0.17 -0.256,0.128 -0.469,0.256 -0.64,0.427 -0.354238,0.311283 -0.594578,0.73179 -0.683,1.195 -0.085,0.469 -0.17,1.024 -0.17,1.578 0,0.555 0.042,1.067 0.17,1.579 0.128,0.512 0.342,0.896 0.683,1.195 0.213,0.17 0.427,0.298 0.64,0.426 0.256,0.128 0.512,0.171 0.853,0.171 0.299,0 0.598,-0.043 0.854,-0.171 0.256,-0.085 0.469,-0.256 0.64,-0.426 0.164872,-0.156567 0.295606,-0.345519 0.384,-0.555 0.085,-0.213 0.17,-0.469 0.213,-0.768 l 1.536,0 0,0.043 z m 8.149,-1.451 c 0,0.683 -0.085,1.365 -0.256,1.963 -0.17,0.64 -0.512,1.152 -0.981,1.664 -0.349822,0.30389 -0.736939,0.561968 -1.152,0.768 -0.427,0.17 -0.939,0.298 -1.493,0.298 -0.555,0 -1.067,-0.085 -1.494,-0.298 -0.432173,-0.175106 -0.824143,-0.436419 -1.152,-0.768 -0.468953,-0.457719 -0.807555,-1.032066 -0.981,-1.664 -0.171786,-0.640129 -0.257871,-1.300224 -0.256,-1.963 0,-0.683 0.085,-1.365 0.256,-1.963 0.171,-0.64 0.512,-1.152 0.981,-1.664 0.350155,-0.303453 0.737215,-0.561492 1.152,-0.768 0.427,-0.17 0.939,-0.298 1.494,-0.298 0.554,0 1.066,0.085 1.493,0.298 0.427,0.171 0.811,0.427 1.152,0.768 0.469,0.47 0.811,1.024 0.981,1.664 0.171,0.598 0.256,1.28 0.256,1.963 z m -1.536,0 c 0.0068,-0.517046 -0.05031,-1.032951 -0.17,-1.536 -0.107946,-0.458844 -0.327821,-0.883822 -0.64,-1.237 -0.202626,-0.190259 -0.432905,-0.348723 -0.683,-0.47 -0.256,-0.128 -0.555,-0.17 -0.896,-0.17 -0.341,0 -0.64,0.042 -0.896,0.17 -0.252831,0.116522 -0.483837,0.275487 -0.683,0.47 -0.312179,0.353178 -0.532054,0.778156 -0.64,1.237 -0.128,0.512 -0.17,0.981 -0.17,1.536 0,0.512 0.042,1.024 0.17,1.536 0.128,0.512 0.342,0.896 0.64,1.237 0.171,0.171 0.427,0.342 0.683,0.47 0.256,0.128 0.555,0.17 0.896,0.17 0.341,0 0.64,-0.042 0.896,-0.17 0.256,-0.128 0.469,-0.256 0.683,-0.47 0.298,-0.341 0.512,-0.725 0.64,-1.237 0.128,-0.469 0.17,-0.981 0.17,-1.536 z m 13.355,4.437 0,-5.632 c 0,-0.298 -0.043,-0.597 -0.085,-0.853 -0.04693,-0.234216 -0.149473,-0.453718 -0.299,-0.64 -0.136016,-0.19666 -0.330045,-0.34594 -0.555,-0.427 -0.271122,-0.109774 -0.560509,-0.167448 -0.853,-0.17 -0.256,0 -0.512,0.042 -0.725,0.17 -0.214,0.128 -0.427,0.256 -0.598,0.427 -0.303778,0.302878 -0.511446,0.688647 -0.597,1.109 -0.0867,0.435625 -0.129577,0.878834 -0.128,1.323 l 0,4.736 -1.493,0 0,-5.632 c 0,-0.299 -0.043,-0.597 -0.086,-0.853 -0.042,-0.256 -0.128,-0.47 -0.298,-0.64 -0.135721,-0.19694 -0.32985,-0.346297 -0.555,-0.427 -0.271041,-0.110162 -0.56044,-0.168178 -0.853,-0.171 -0.299,0 -0.598,0.086 -0.854,0.214 -0.256,0.128 -0.469,0.341 -0.64,0.554 -0.213,0.299 -0.384,0.64 -0.469,1.067 -0.08234,0.393079 -0.125221,0.793399 -0.128,1.195 l 0,4.736 -1.493,0 0,-8.875 1.28,0 0.128,1.28 c 0.213,-0.512 0.554,-0.896 1.024,-1.109 0.442174,-0.250795 0.941654,-0.383071 1.45,-0.384 0.64,0 1.195,0.128 1.664,0.426 0.427,0.299 0.768,0.726 0.982,1.238 0.105327,-0.27138 0.264915,-0.518418 0.469,-0.726 0.171,-0.213 0.427,-0.384 0.64,-0.512 0.256,-0.128 0.512,-0.256 0.768,-0.298 0.256,-0.086 0.555,-0.086 0.811,-0.086 0.981,0 1.749,0.299 2.218,0.896 0.47,0.598 0.726,1.366 0.726,2.39 l 0,5.845 -1.451,0 0,-0.171 z M 99.243,69.12 c 0,0.768 -0.128,1.493 -0.342,2.133 -0.196989,0.609336 -0.532812,1.164591 -0.981,1.622 -0.308473,0.261887 -0.653422,0.47748 -1.024,0.64 -0.384,0.17 -0.853,0.256 -1.365,0.256 -0.256,0 -0.47,-0.043 -0.726,-0.086 -0.253664,-0.04653 -0.498361,-0.132934 -0.725,-0.256 -0.213,-0.085 -0.427,-0.256 -0.64,-0.384 -0.171,-0.17 -0.341,-0.341 -0.469,-0.554 l 0,4.821 -1.494,0 0,-12.587 1.28,0 0.086,1.152 c 0.256,-0.426 0.64,-0.768 1.109,-1.024 0.462415,-0.233709 0.974973,-0.350776 1.493,-0.341 0.555,0 1.024,0.085 1.451,0.256 0.427,0.171 0.768,0.427 1.067,0.725 0.426,0.427 0.725,0.982 0.938,1.622 0.256,0.597 0.342,1.28 0.342,2.005 z m -1.494,0.043 c 0,-0.427 -0.042,-0.811 -0.128,-1.238 -0.07578,-0.385731 -0.205031,-0.758998 -0.384,-1.109 -0.17,-0.341 -0.426,-0.597 -0.768,-0.811 -0.341,-0.213 -0.725,-0.298 -1.194,-0.298 -0.342,0 -0.598,0.042 -0.811,0.17 -0.213,0.128 -0.427,0.256 -0.597,0.427 -0.384,0.341 -0.64,0.725 -0.768,1.237 -0.136771,0.515376 -0.20866,1.045812 -0.214,1.579 0,0.555 0.086,1.109 0.214,1.579 0.128,0.512 0.384,0.896 0.768,1.237 0.17,0.171 0.384,0.299 0.597,0.427 0.213,0.128 0.512,0.17 0.811,0.17 0.469,0 0.896,-0.085 1.194,-0.298 0.342,-0.214 0.598,-0.47 0.768,-0.768 0.171,-0.299 0.299,-0.683 0.384,-1.11 0.086,-0.384 0.128,-0.81 0.128,-1.194 z m 10.027,4.309 c -0.14909,0.07519 -0.30651,0.13258 -0.469,0.171 -0.171,0.042 -0.299,0.042 -0.512,0.042 -0.384,0 -0.726,-0.128 -0.939,-0.384 -0.21805,-0.264209 -0.33846,-0.595444 -0.341,-0.938 l -0.043,0 c -0.256,0.426 -0.64,0.81 -1.152,1.066 -0.5304,0.261821 -1.11557,0.393458 -1.707,0.384 -0.512,0 -0.938,-0.085 -1.322,-0.256 -0.35056,-0.152206 -0.66916,-0.369357 -0.939,-0.64 -0.24827,-0.254507 -0.437719,-0.560355 -0.555,-0.896 -0.118302,-0.313278 -0.175992,-0.646183 -0.17,-0.981 0,-0.299 0.042,-0.597 0.128,-0.896 0.085,-0.299 0.256,-0.597 0.512,-0.853 0.256,-0.256 0.554,-0.47 0.938,-0.683 0.384,-0.171 0.896,-0.299 1.494,-0.341 l 2.645,-0.171 0,-0.64 c 0,-0.213 -0.043,-0.469 -0.085,-0.683 -0.0421,-0.25436 -0.17936,-0.483178 -0.384,-0.64 -0.171,-0.128 -0.342,-0.256 -0.555,-0.341 -0.213,-0.085 -0.512,-0.128 -0.896,-0.128 -0.384,0 -0.725,0.043 -0.981,0.128 -0.256,0.085 -0.47,0.213 -0.598,0.384 -0.298,0.299 -0.426,0.64 -0.426,1.067 l -1.451,0 c 0,-0.427 0.085,-0.768 0.213,-1.067 0.12952,-0.30439 0.31817,-0.580048 0.555,-0.811 0.32657,-0.322735 0.71975,-0.570178 1.152,-0.725 0.49298,-0.174908 1.01294,-0.261566 1.536,-0.256 0.853,0 1.536,0.171 2.048,0.469 0.512,0.299 0.853,0.726 1.067,1.238 0.17,0.426 0.256,0.853 0.256,1.365 l 0,4.309 c 0,0.214 0.042,0.384 0.128,0.47 0.0927,0.08535 0.21502,0.131256 0.341,0.128 l 0.256,0 0.128,-0.043 0,1.152 0.128,0 z m -2.347,-4.181 -2.346,0.128 c -0.214,0 -0.427,0.042 -0.683,0.128 -0.213,0.085 -0.427,0.17 -0.64,0.298 -0.17712,0.134451 -0.33493,0.292596 -0.469,0.47 -0.128,0.213 -0.171,0.426 -0.171,0.725 0,0.384 0.128,0.768 0.384,1.067 0.256,0.298 0.725,0.469 1.323,0.469 0.341,0 0.64,-0.043 0.981,-0.171 0.299,-0.128 0.597,-0.298 0.811,-0.554 0.256,-0.256 0.469,-0.598 0.554,-0.939 0.11903,-0.342912 0.17691,-0.704065 0.171,-1.067 l 0,-0.554 0.085,0 z m 8.918,4.266 0,-5.632 c 0,-0.682 -0.128,-1.194 -0.427,-1.578 -0.299,-0.384 -0.768,-0.555 -1.493,-0.555 -0.427,0 -0.811,0.128 -1.11,0.384 -0.33556,0.256068 -0.59995,0.593794 -0.768,0.981 -0.17,0.342 -0.256,0.683 -0.256,1.11 -0.042,0.426 -0.042,0.81 -0.042,1.152 l 0,4.138 -1.536,0 0,-8.874 1.28,0 0.128,1.322 c 0.128,-0.256 0.256,-0.469 0.469,-0.682 0.213,-0.214 0.427,-0.342 0.64,-0.47 0.256,-0.128 0.512,-0.213 0.768,-0.298 0.256,-0.086 0.512,-0.086 0.768,-0.086 1.024,0 1.749,0.299 2.261,0.854 0.512,0.554 0.768,1.365 0.768,2.389 l 0,5.845 -1.45,0 z m 5.845,1.835 c -0.213,0.555 -0.512,1.024 -0.853,1.365 -0.342,0.342 -0.854,0.512 -1.536,0.512 -0.384,0 -0.683,-0.042 -0.896,-0.085 -0.214,-0.043 -0.384,-0.085 -0.427,-0.128 l 0,-1.237 c 0.085,0.042 0.213,0.042 0.299,0.085 0.085,0.043 0.213,0.043 0.341,0.043 l 0.427,0 c 0.298,0 0.597,-0.086 0.81,-0.214 0.214,-0.128 0.384,-0.341 0.512,-0.682 l 0.555,-1.494 -3.499,-8.874 1.664,0 2.603,6.997 2.475,-6.997 1.536,0 -4.011,10.709 z M 9.899,8.96 l 0,31.915 9.472,0 c 4.821,0 8.192,-2.39 10.112,-7.126 1.024,-2.602 1.536,-5.717 1.536,-9.344 0,-4.992 -0.768,-8.789 -2.347,-11.477 C 27.093,10.24 24.021,8.917 19.371,8.917 l -9.472,0 0,0.043 z m 18.73,-7.424 c 3.456,1.109 6.23,3.2 8.32,6.187 1.672089,2.376405 2.860942,5.058204 3.499,7.893 0.597,2.816 0.939,5.504 0.939,8.107 0,6.485 -1.323,11.989 -3.926,16.469 -3.541,6.101 -9.002,9.131 -16.384,9.131 L 0,49.323 0,0.469 l 21.077,0 c 3.03,0.086 5.547,0.427 7.552,1.067 z M 55.04,22.101 c -1.323,1.323 -2.176,3.158 -2.517,5.462 l 16.213,0 c -0.171,-2.432 -1.024,-4.31 -2.517,-5.59 -1.494,-1.28 -3.371,-1.92 -5.59,-1.92 -2.346,0 -4.224,0.683 -5.589,2.048 z m 14.123,-8.192 c 2.517,1.11 4.608,2.902 6.229,5.334 1.493,2.133 2.432,4.65 2.859,7.466 0.256,1.664 0.384,4.011 0.298,7.168 l -26.24,0 c 0.171,3.67 1.408,6.187 3.755,7.68 1.451,0.896 3.157,1.366 5.163,1.366 2.133,0 3.882,-0.512 5.248,-1.622 1.109,-0.938 1.365,-1.408 1.92,-3.413 l 9.642,0 c -0.256,3.115 -1.408,5.248 -3.498,7.467 -3.243,3.498 -7.723,5.248 -13.568,5.248 -4.779,0 -9.046,-1.494 -12.672,-4.438 -3.67,-2.944 -5.504,-7.808 -5.504,-14.464 0,-6.272 1.621,-11.05 4.949,-14.421 3.328,-3.328 7.637,-4.992 12.885,-4.992 3.2,-0.085 6.016,0.469 8.534,1.621 z m 19.541,23.936 c 0.213,1.664 0.64,2.859 1.28,3.584 1.195,1.238 3.371,1.878 6.528,1.878 1.877,0 3.328,-0.256 4.437,-0.811 1.11,-0.555 1.664,-1.365 1.664,-2.475 0,-1.066 -0.426,-1.877 -1.322,-2.432 -0.896,-0.554 -4.182,-1.493 -9.856,-2.858 -4.096,-1.024 -6.998,-2.304 -8.662,-3.798 -1.706,-1.493 -2.517,-3.669 -2.517,-6.485 0,-3.328 1.323,-6.187 3.925,-8.619 2.603,-2.389 6.315,-3.584 11.051,-3.584 4.48,0 8.149,0.896 11.008,2.688 2.859,1.792 4.48,4.907 4.907,9.344 l -9.43,0 c -0.128,-1.194 -0.469,-2.176 -1.024,-2.901 -1.066,-1.28 -2.816,-1.92 -5.333,-1.92 -2.048,0 -3.541,0.299 -4.437,0.981 -0.854,0.64 -1.323,1.366 -1.323,2.262 0,1.109 0.469,1.877 1.408,2.346 0.939,0.512 4.224,1.366 9.856,2.603 3.755,0.896 6.613,2.219 8.448,4.011 1.877,1.792 2.773,4.053 2.773,6.784 0,3.584 -1.322,6.485 -3.968,8.746 -2.688,2.262 -6.784,3.371 -12.373,3.371 -5.675,0 -9.856,-1.195 -12.587,-3.584 -2.688,-2.389 -4.053,-5.461 -4.053,-9.131 l 9.6,0 z m 60.459,1.28 c 1.493,-1.664 2.261,-4.309 2.261,-7.978 0,-3.414 -0.725,-6.059 -2.176,-7.851 -1.451,-1.792 -3.328,-2.688 -5.76,-2.688 -3.285,0 -5.547,1.536 -6.784,4.651 -0.64,1.664 -0.981,3.712 -0.981,6.144 0,2.09 0.341,3.968 1.066,5.632 1.238,3.029 3.542,4.565 6.827,4.565 2.176,0.043 4.053,-0.811 5.547,-2.475 z m -3.2,-25.941 c 2.304,0.939 4.138,2.688 5.546,5.205 l 0,-5.248 9.259,0 0,34.262 c 0,4.65 -0.768,8.192 -2.347,10.538 -2.688,4.096 -7.85,6.102 -15.488,6.102 -4.608,0 -8.362,-0.896 -11.264,-2.731 -2.901,-1.792 -4.522,-4.523 -4.821,-8.107 l 10.283,0 c 0.256,1.11 0.682,1.878 1.28,2.39 1.024,0.853 2.73,1.28 5.12,1.28 3.37,0 5.674,-1.152 6.826,-3.414 0.768,-1.45 1.152,-3.882 1.152,-7.296 l 0,-2.304 c -0.896,1.536 -1.877,2.688 -2.944,3.456 -1.877,1.451 -4.309,2.134 -7.296,2.134 -4.65,0 -8.32,-1.622 -11.093,-4.864 -2.773,-3.243 -4.139,-7.68 -4.139,-13.227 0,-5.376 1.323,-9.856 4.011,-13.525 2.645,-3.67 6.443,-5.462 11.307,-5.462 1.706,0 3.285,0.256 4.608,0.811 z m 46.89,2.133 c 2.347,1.963 3.542,5.206 3.542,9.728 l 0,24.278 -9.686,0 0,-21.931 c 0,-1.877 -0.256,-3.371 -0.768,-4.352 -0.938,-1.835 -2.688,-2.773 -5.29,-2.773 -3.2,0 -5.334,1.322 -6.528,4.053 -0.64,1.451 -0.939,3.285 -0.939,5.504 l 0,19.541 -9.429,0 0,-36.053 9.088,0 0,5.291 c 1.194,-1.878 2.346,-3.2 3.413,-4.011 1.92,-1.451 4.395,-2.176 7.381,-2.176 3.798,-0.043 6.827,0.939 9.216,2.901 z m 6.955,-1.792 9.6,0 0,35.755 -9.6,0 0,-35.755 z m 9.557,-4.565 -9.557,0 0,-8.704 9.557,0 0,8.704 z m -95.018,4.565 9.557,0 0,35.755 -9.557,0 0,-35.755 z m 9.6,-4.565 -9.558,0 0,-8.704 9.558,0 0,8.704 z m 88.192,11.221 0,-6.656 4.992,0 0,-10.154 9.386,0 0,10.154 5.888,0 0,6.614 -5.888,0 0,19.157 c 0,1.493 0.214,2.389 0.555,2.773 0.384,0.384 1.536,0.555 3.456,0.555 0.299,0 0.597,0 0.896,-0.043 0.299,0 0.64,-0.042 0.939,-0.085 l 0,7.083 -4.48,0.213 c -4.48,0.128 -7.51,-0.597 -9.131,-2.347 -1.067,-1.066 -1.621,-2.73 -1.621,-5.034 l 0,-22.272 -4.992,0 0,0.042 z M 240.597,4.267 c -0.256,-0.086 -0.64,-0.128 -1.109,-0.128 l -0.427,0 0,2.09 0.726,0 c 0.426,0 0.768,-0.085 1.024,-0.256 0.256,-0.17 0.384,-0.469 0.384,-0.853 -0.0349,-0.3699254 -0.26213,-0.6940873 -0.598,-0.853 z m -3.456,5.802 0,-7.21 3.499,0 c 0.597,0.042 1.024,0.17 1.408,0.384 0.64,0.341 0.981,0.896 0.981,1.706 0,0.598 -0.17,1.024 -0.512,1.28 -0.341,0.299 -0.768,0.427 -1.237,0.512 0.427,0.086 0.811,0.214 1.024,0.427 0.427,0.341 0.64,0.896 0.64,1.621 l 0,0.64 c 0,0.043 0,0.128 0.043,0.214 0,0.085 0,0.128 0.042,0.213 l 0.086,0.213 -1.792,0 c -0.0572,-0.3249325 -0.1,-0.6522583 -0.128,-0.981 0,-0.427 -0.043,-0.725 -0.128,-0.896 -0.0748,-0.2452704 -0.26673,-0.4372285 -0.512,-0.512 -0.171,-0.085 -0.342,-0.128 -0.64,-0.128 l -0.384,-0.043 -0.384,0 0,2.518 -2.006,0 0,0.042 z M 236.16,2.688 c -1.024,1.067 -1.536,2.304 -1.536,3.755 0,1.493 0.512,2.773 1.579,3.84 1.024,1.066 2.304,1.578 3.754,1.578 1.494,0 2.731,-0.554 3.755,-1.578 1.024,-1.067 1.579,-2.347 1.579,-3.798 0,-1.45 -0.512,-2.688 -1.536,-3.754 -1.024,-1.067 -2.304,-1.622 -3.798,-1.622 -1.493,-0.042 -2.73,0.512 -3.797,1.579 z m 8.363,8.405 c -1.238,1.238 -2.774,1.835 -4.523,1.835 -1.835,0 -3.371,-0.64 -4.608,-1.877 -1.237,-1.238 -1.877,-2.774 -1.877,-4.608 0,-1.878 0.682,-3.456 2.005,-4.694 C 236.8,0.555 238.293,0 239.957,0 c 1.792,0 3.286,0.64 4.566,1.92 1.237,1.237 1.92,2.773 1.92,4.565 0,1.835 -0.64,3.371 -1.92,4.608 z" />
</svg>
