<?xml version="1.0" encoding="UTF-8" standalone="no"?>
<svg
   xmlns:dc="http://purl.org/dc/elements/1.1/"
   xmlns:cc="http://creativecommons.org/ns#"
   xmlns:rdf="http://www.w3.org/1999/02/22-rdf-syntax-ns#"
   xmlns:svg="http://www.w3.org/2000/svg"
   xmlns="http://www.w3.org/2000/svg"
   version="1.1"
   id="svg4603"
   viewBox="0 0 300 33"
   aria-labelledby="buildit-title"
   aria-describedby="buildit-desc"
   height="33"
   width="300">
  <metadata
     id="metadata4608">
    <rdf:RDF>
      <cc:Work
         rdf:about="">
        <dc:format>image/svg+xml</dc:format>
        <dc:type
           rdf:resource="http://purl.org/dc/dcmitype/StillImage" />
        <dc:title>buildit @ wipro digital</dc:title>
      </cc:Work>
    </rdf:RDF>
  </metadata>
  <desc
     id="buildit-desc">Logo</desc>
  <title
     id="buildit-title">buildit @ wipro digital</title>
  <path
     id="path2802"
     d="m 168.95737,1.9042126 c -1.03743,-0.065021 -2.05501,0.6007653 -2.33555,1.6761616 -0.32063,1.175588 0.37397,2.4580105 1.60301,2.7786255 1.1756,0.320615 2.458,-0.3739884 2.77862,-1.6030129 0.32062,-1.1755879 -0.37397,-2.4580099 -1.60301,-2.7786249 -0.14695,-0.040079 -0.29487,-0.063861 -0.44307,-0.073149 z m -136.835012,1.7837956 0,19.7178928 2.030414,0 0.159883,-1.817236 c 0.374058,0.694666 0.962395,1.228963 1.763941,1.603013 0.801551,0.374051 1.549673,0.533989 2.351224,0.533989 0.854985,10e-7 1.603398,-0.106926 2.244636,-0.374106 0.641239,-0.267179 1.175376,-0.64035 1.656307,-1.121272 0.641239,-0.694666 1.175805,-1.496873 1.496424,-2.512154 0.32062,-1.015281 0.480695,-2.083873 0.480695,-3.206025 0,-1.175588 -0.160075,-2.297192 -0.480695,-3.365909 C 43.504568,12.077485 42.970146,11.27542 42.275469,10.580754 41.847976,10.153267 41.313695,9.8332487 40.672456,9.5660698 40.031218,9.2988902 39.282661,9.1919636 38.481115,9.1919636 c -0.374058,0 -0.801554,0.053011 -1.175612,0.1598833 -0.374054,0.1068714 -0.74826,0.2137986 -1.122318,0.3741061 -0.374053,0.1603075 -0.69406,0.320105 -1.014685,0.587284 -0.320619,0.267178 -0.587899,0.53523 -0.748211,0.855845 l 0,-7.4810738 -2.297931,0 z m 30.565923,0 0,2.7253306 2.670987,0 0,-2.7253306 -2.670987,0 z m 6.786155,0 0,16.5651618 c 0,1.068717 0.213992,1.923313 0.694919,2.511108 0.427492,0.587794 1.175004,0.854801 2.190296,0.854801 0.534371,0 0.961724,-0.05316 1.228904,-0.106589 0.160313,-0.05344 0.320529,-0.05316 0.427402,-0.106589 l -0.05329,0 0,-2.031459 c -0.05345,0.05343 -0.159729,0.05434 -0.213179,0.05434 l -0.748208,0 c -0.427497,0 -0.802123,-0.160363 -0.962435,-0.374106 -0.160307,-0.26718 -0.266474,-0.588101 -0.266474,-1.069024 l 0,-16.2976438 -2.297929,0 z m 22.603105,0 0,2.7253306 2.672036,0 0,-2.7253306 -2.672036,0 z m 144.172919,0 0,7.5343688 c -0.21374,-0.320615 -0.42759,-0.587622 -0.74821,-0.854801 -0.32062,-0.267179 -0.64167,-0.4813155 -1.01573,-0.641623 -0.37405,-0.1603075 -0.74826,-0.2672347 -1.12232,-0.3741061 -0.42749,-0.1068737 -0.80155,-0.1598833 -1.17561,-0.1598833 -0.85499,0 -1.54906,0.1069266 -2.1903,0.3741062 -0.5878,0.2671789 -1.12208,0.5871972 -1.60301,1.0146842 -0.69467,0.694666 -1.17566,1.550167 -1.54972,2.565447 -0.37405,1.068717 -0.53503,2.136885 -0.53503,3.365909 0,1.122152 0.16112,2.190744 0.48174,3.206025 0.32062,1.015281 0.85414,1.817488 1.49537,2.512154 0.48094,0.480922 1.01612,0.854093 1.65736,1.121272 0.64124,0.26718 1.3886,0.374106 2.24359,0.374106 0.80155,10e-7 1.54967,-0.159938 2.35122,-0.533989 0.74811,-0.37405 1.33645,-0.908347 1.76395,-1.603013 l 0.15988,1.817236 2.13805,0.05329 0,-19.7711868 -2.35123,0 z m 5.82372,0 0,2.7253306 2.72533,0 0,-2.7253306 -2.72533,0 z m 21.10773,0 0,2.7253306 2.72533,0 0,-2.7253306 -2.72533,0 z m 32.27552,0 0,16.5651618 c 0,1.068717 0.21399,1.923313 0.69492,2.511108 0.42749,0.587794 1.17604,0.854801 2.19134,0.854801 0.53437,0 0.96172,-0.05316 1.22891,-0.106589 0.16031,-0.05344 0.32053,-0.05316 0.4274,-0.106589 l 0,-1.923825 c -0.0534,0.05343 -0.16077,0.0533 -0.21422,0.0533 l -0.74717,0 c -0.42749,0 -0.80213,-0.160362 -0.96244,-0.374105 -0.1603,-0.213744 -0.26751,-0.588102 -0.26751,-1.069024 l 0,-16.4042333 -2.35123,0 z m -209.845232,0.053295 0,7.4810741 C 85.398452,10.901762 85.184604,10.634756 84.863984,10.367577 84.543365,10.153833 84.222307,9.9395552 83.848254,9.7792477 83.474196,9.6189402 83.101036,9.5120136 82.726983,9.4051422 82.29949,9.298268 81.925432,9.2452584 81.551374,9.2452584 c -0.854985,0 -1.550107,0.1069271 -2.191346,0.3741061 -0.587804,0.2671795 -1.175518,0.5871975 -1.60301,1.0146835 -0.694678,0.694667 -1.175669,1.550167 -1.549722,2.565448 -0.374058,1.015281 -0.533985,2.137026 -0.533985,3.312615 0,1.122152 0.160071,2.190744 0.480696,3.206025 0.320619,1.01528 0.855177,1.817488 1.496421,2.512153 0.427493,0.480923 0.961628,0.854094 1.656306,1.121273 0.641238,0.267179 1.389655,0.374106 2.24464,0.374106 0.80155,0 1.549673,-0.159938 2.351224,-0.533989 0.748111,-0.374051 1.388841,-0.908347 1.762895,-1.603013 l 0.160927,1.817235 2.083707,0 0,-19.6645981 -2.297929,0 z m 39.650002,0 c -1.70996,0 -3.2065,0.267148 -4.59585,0.8015065 -1.38936,0.5343579 -2.56484,1.3360853 -3.58014,2.2979303 -1.01529,0.9618449 -1.81685,2.0833077 -2.35122,3.4192033 -0.5878,1.28246 -0.8548,2.779325 -0.8548,4.489271 0,1.763383 0.26714,3.259682 0.8015,4.70245 0.53437,1.442767 1.38908,2.671581 2.45782,3.633426 0.90842,0.801537 1.97698,1.442901 3.20602,1.923824 1.22905,0.480922 2.56565,0.693872 4.06188,0.693872 1.22904,0 2.40466,-0.05273 3.52683,-0.266472 1.17561,-0.160307 2.29718,-0.534665 3.36591,-1.069023 l 0,-1.923824 c -1.17561,0.480922 -2.29717,0.801985 -3.36591,1.015729 -1.06873,0.160307 -2.24451,0.266472 -3.47354,0.266472 -1.22905,0 -2.29837,-0.159798 -3.31366,-0.587284 -0.96186,-0.374051 -1.81629,-0.961499 -2.5644,-1.709601 -0.74812,-0.801538 -1.33645,-1.764248 -1.76394,-2.832965 -0.4275,-1.068717 -0.64058,-2.244377 -0.64058,-3.526837 0,-1.496204 0.26728,-2.885239 0.74821,-4.060827 0.48092,-1.175588 1.22858,-2.1902649 2.137,-2.9918023 0.74812,-0.6946655 1.65674,-1.2289614 2.67204,-1.6030124 1.06873,-0.3740504 2.19106,-0.588329 3.47354,-0.588329 1.28248,0 2.40495,0.1599384 3.42025,0.5339894 1.0153,0.3740504 1.86972,0.9083469 2.5644,1.6030128 0.64124,0.64123 1.12251,1.3363679 1.44313,2.1913415 0.37405,0.801537 0.53399,1.816356 0.53399,2.938508 0,0.427486 -0.053,0.962828 -0.15988,1.604058 -0.10688,0.64123 -0.32129,1.175102 -0.53504,1.762896 -0.21374,0.587794 -0.58733,1.069078 -0.96139,1.443129 -0.37405,0.374051 -0.90862,0.587284 -1.49642,0.587284 -0.21375,0 -0.42698,-0.05301 -0.58728,-0.159883 -0.16031,-0.05343 -0.26724,-0.213799 -0.37411,-0.374106 -0.10686,-0.160308 -0.16093,-0.321291 -0.16093,-0.535035 l 0,-0.587283 0.48069,-6.8937911 -1.81619,0 -0.32081,1.1223181 c -0.26718,-0.480922 -0.64139,-0.800799 -1.12231,-1.0679784 -0.48093,-0.267179 -0.96206,-0.3741061 -1.49643,-0.3741061 -0.80155,0 -1.49576,0.1067854 -2.137,0.4274005 -0.5878,0.267179 -1.12222,0.69469 -1.54972,1.175612 -0.42749,0.480923 -0.74869,1.068231 -0.96243,1.762896 -0.21375,0.694666 -0.31977,1.44324 -0.31977,2.191342 0,0.748101 0.10616,1.442477 0.26647,2.083707 0.16031,0.64123 0.42746,1.175385 0.80151,1.656307 0.37406,0.427487 0.80217,0.801845 1.33654,1.069024 0.53436,0.267179 1.17586,0.374106 1.87053,0.374106 0.64125,0 1.28154,-0.159938 1.92278,-0.533989 0.64124,-0.374051 1.06935,-0.855194 1.33654,-1.496424 0.10687,0.694666 0.42716,1.229103 0.9081,1.549718 0.48092,0.320615 1.06926,0.480695 1.76394,0.480695 1.01529,0 1.86972,-0.213995 2.5644,-0.694917 0.69467,-0.480923 1.28315,-1.068231 1.71065,-1.762897 0.42749,-0.694666 0.74764,-1.496251 0.96138,-2.351224 0.21375,-0.854974 0.32081,-1.710616 0.32081,-2.512153 0,-1.389332 -0.21427,-2.618146 -0.58832,-3.6334258 -0.4275,-1.068717 -1.06794,-1.9770879 -1.86949,-2.7786254 -0.96186,-0.961845 -2.08447,-1.6560792 -3.36695,-2.1370017 -1.33592,-0.4809225 -2.77868,-0.7482122 -4.32835,-0.7482122 z m 148.82104,1.7628961 -2.35123,0.5350342 0,3.5801313 -2.67204,0 0,1.9771185 2.67204,0 0,8.282581 c 0,0.480922 0.053,0.961304 0.15988,1.38879 0.10687,0.427487 0.32114,0.854998 0.58833,1.175613 0.32062,0.374051 0.69469,0.641057 1.17561,0.8548 0.48094,0.213743 1.12242,0.320812 1.87053,0.320812 0.58781,0 1.17552,2.83e-4 1.60301,-0.106589 0.4275,-0.106871 0.8017,-0.160646 1.12232,-0.267517 l 0,-2.137002 -0.8015,0.159883 c -0.21375,0.05344 -0.48103,0.106589 -0.74821,0.106589 -0.26719,0.05343 -0.53433,0.05434 -0.80151,0.05434 -0.64124,0 -1.06922,-0.161267 -1.38984,-0.428446 -0.26718,-0.26718 -0.42739,-0.747419 -0.42739,-1.442084 l 0,-8.015064 4.11412,0 0,-1.9771187 -4.11412,0 0,-4.0618713 z m -172.1734,0.053295 -2.296882,0.5350342 0,3.526837 -2.672036,0 0,1.977119 2.672036,0 0,8.229286 c 0,0.480923 0.05302,0.961303 0.159884,1.38879 0.106873,0.427487 0.321148,0.854998 0.588328,1.175613 0.32062,0.374051 0.64124,0.641057 1.17561,0.8548 0.53437,0.213744 1.12137,0.320812 1.86948,0.320812 0.64124,0 1.17553,2.83e-4 1.60302,-0.106589 0.42749,-0.106872 0.8017,-0.160645 1.12232,-0.267517 l -0.0533,0 0,-2.083708 -0.80151,0.159883 c -0.21374,0.05344 -0.48103,0.106589 -0.74821,0.106589 -0.26719,0.05343 -0.53433,0.05434 -0.80151,0.05434 -0.64124,0 -1.06816,-0.161267 -1.38879,-0.428446 -0.26718,-0.267179 -0.42844,-0.747418 -0.42844,-1.442084 l 0,-7.961769 4.06187,0 0,-1.977119 -4.06187,0 0,-4.0618712 z M 259.65507,8.069647 c -0.69467,0 -1.28196,0.1600796 -1.76289,0.4806945 -0.53437,0.320615 -0.90857,0.8018997 -1.12232,1.4431297 -0.37406,-0.267179 -0.85547,-0.428021 -1.38984,-0.5883285 -0.53436,-0.1603102 -1.12165,-0.213178 -1.76289,-0.213178 -0.96186,0 -1.76328,0.1602214 -2.40452,0.4274003 -0.64124,0.320615 -1.22972,0.69469 -1.71064,1.175613 -0.4275,0.427486 -0.74765,0.907725 -0.9614,1.442084 -0.26718,0.534358 -0.3741,1.175723 -0.3741,1.923824 0,0.64123 0.16021,1.282594 0.4274,1.923824 0.26718,0.641231 0.64125,1.175385 1.17561,1.656308 -0.53436,0.267179 -1.01488,0.588101 -1.3355,1.069023 -0.37405,0.427487 -0.53503,0.961783 -0.53503,1.603013 0,0.534358 0.10678,1.015642 0.4274,1.443129 0.32062,0.427487 0.69468,0.747788 1.17562,0.908096 -0.53438,0.267178 -1.01474,0.641253 -1.3888,1.175612 -0.37406,0.534358 -0.58833,1.122426 -0.58833,1.87053 0,0.587794 0.10721,1.014597 0.26752,1.442084 0.16031,0.374053 0.42773,0.748555 0.69492,1.015729 0.32062,0.32062 0.69482,0.587761 1.12232,0.801507 0.42749,0.213741 0.85456,0.373821 1.33549,0.480694 0.42749,0.160307 0.90891,0.214068 1.38984,0.267518 0.48093,0.05345 0.90786,0.05329 1.38879,0.05329 0.48093,0 0.96206,1.56e-4 1.49642,-0.05329 0.48094,-0.05343 1.0155,-0.160644 1.49643,-0.267518 0.48093,-0.106873 0.96129,-0.266953 1.38878,-0.480694 0.48093,-0.213746 0.855,-0.480887 1.17562,-0.801507 0.37406,-0.320613 0.64105,-0.694686 0.8548,-1.175612 0.21375,-0.480921 0.32081,-1.01522 0.32081,-1.603012 0,-0.587795 -0.10674,-1.12195 -0.0533,-1.656308 -0.21375,-0.480923 -0.48089,-0.854997 -0.80151,-1.175612 -0.53437,-0.587795 -1.22872,-0.961869 -2.08371,-1.175613 -0.85498,-0.213743 -1.7106,-0.320811 -2.51215,-0.320811 l -2.72533,0 c -0.21375,0 -0.42669,1.39e-4 -0.69387,-0.0533 -0.26719,-0.05343 -0.48118,-0.10735 -0.69492,-0.214222 -0.16032,-0.106872 -0.32039,-0.267093 -0.4807,-0.4274 -0.1603,-0.213744 -0.21422,-0.427598 -0.21422,-0.748213 0,-0.320615 0.10692,-0.587763 0.37411,-0.801506 0.26718,-0.213744 0.53432,-0.320528 0.8015,-0.4274 0.4275,0.160307 0.8017,0.267377 1.12232,0.320811 0.32062,0.05344 0.69468,0.106589 1.17561,0.106589 0.90843,0 1.70984,-0.106785 2.40452,-0.4274 0.69468,-0.267179 1.22867,-0.694691 1.7096,-1.175612 0.37405,-0.427487 0.69539,-0.90863 0.90914,-1.496425 0.21375,-0.534358 0.32081,-1.17496 0.32081,-1.81619 0,-0.587794 -0.0539,-1.122091 -0.21422,-1.603013 -0.16031,-0.427487 -0.42774,-0.854856 -0.69492,-1.228907 0.0534,-0.374051 0.21442,-0.695396 0.53504,-0.90914 0.26718,-0.213743 0.64034,-0.3208115 1.12127,-0.3208115 l 0.26752,0 c 0.10687,0 0.21407,0.05434 0.26752,0.05434 l 0,-1.87053 c -0.10687,-0.053434 -0.21394,-0.053295 -0.32081,-0.053295 l -0.32082,0 z M 153.37031,8.3904583 c -0.21374,0 -0.53475,0.1593177 -0.64162,0.3730612 l -3.90094,7.5354135 -2.29793,-7.0536741 c -0.0534,-0.2137435 -0.32025,-0.4274003 -0.53399,-0.4274003 l -2.77863,0 c -0.37406,0 -0.53427,0.2666686 -0.4274,0.5872841 l 4.48823,14.0007593 c 0.0534,0.213743 0.32024,0.4274 0.53399,0.4274 l 0.4274,0 c 0.21374,0 0.53475,-0.160363 0.64162,-0.374106 l 4.59586,-8.870909 4.59586,8.870909 c 0.10688,0.213743 0.3734,0.374106 0.64058,0.374106 l 0.4274,0 c 0.21375,0 0.4816,-0.160221 0.53503,-0.4274 L 164.164,9.4051427 c 0.16031,-0.2671795 -0.0535,-0.5872841 -0.3741,-0.5872841 l -2.77863,0 c -0.21374,0 -0.48055,0.1602208 -0.53399,0.4274003 l -2.29793,7.0536741 -3.90094,-7.5354135 c -0.10688,-0.2137446 -0.37445,-0.3730622 -0.64163,-0.3730622 l -0.26647,0 z m 29.01516,0 c -1.92372,0 -3.63315,0.854401 -4.91562,2.1902967 l -0.4807,-1.3354961 c -0.10687,-0.2137435 -0.32114,-0.4274003 -0.58833,-0.4274003 l -1.2822,0 c -0.37406,0 -0.64162,0.2665279 -0.64162,0.6405783 l 0,21.0000941 c 0,0.374053 0.26756,0.641623 0.64162,0.641623 l 2.77862,0 c 0.37405,0 0.64163,-0.26757 0.64163,-0.641623 l 0,-7.266852 c 1.1756,0.427487 2.45725,0.641623 3.8466,0.641623 3.90088,0 7.05367,-3.473866 7.05367,-7.695297 0,-4.274867 -3.15279,-7.7475467 -7.05367,-7.7475467 z m 17.36771,0 c -2.67183,0 -4.22175,2.1902967 -4.22175,2.1902967 l -0.4807,-1.3354961 C 194.94386,9.0315154 194.72959,8.8178586 194.4624,8.8178586 l -1.33549,0 c -0.37406,0 -0.64162,0.2665279 -0.64162,0.6405783 l 0,13.3058421 c 0,0.37405 0.26756,0.641623 0.64162,0.641623 l 2.77863,0 c 0.37405,0 0.64162,-0.267572 0.64162,-0.641623 l 0,-9.29831 c 1.6031,-1.977126 3.68663,-1.281581 4.11412,-1.121273 0.42749,0.160307 0.74793,-0.05363 0.8548,-0.320812 0.10688,-0.267179 0.74868,-1.656982 0.96243,-2.191341 0.26718,-0.4809225 -0.0535,-1.4420847 -2.72533,-1.4420847 z m 11.06121,0 c -4.11462,0 -7.48107,3.4728217 -7.48107,7.6942517 0,4.274867 3.36645,7.695298 7.48107,7.695298 4.11462,0 7.48107,-3.473866 7.48107,-7.695298 0.0534,-4.22143 -3.31301,-7.6942517 -7.48107,-7.6942517 z m -43.39107,0.4274003 c -0.37405,0 -0.64057,0.2665279 -0.64057,0.6405783 l 0,13.3058421 c 0,0.37405 0.26652,0.641623 0.64057,0.641623 l 2.77863,0 c 0.37405,0 0.64162,-0.267572 0.64162,-0.641623 l 0,-13.3058421 c 0,-0.320615 -0.26757,-0.6405783 -0.64162,-0.6405783 l -2.77863,0 z m 119.53836,0.319767 c -0.85499,-6e-7 -1.65641,0.1069266 -2.40452,0.3741055 -0.80155,0.267179 -1.38961,0.6413959 -1.87054,1.1223179 -0.37405,0.374051 -0.64105,0.747985 -0.85479,1.228907 -0.21375,0.480922 -0.32082,1.016122 -0.32082,1.657352 l 2.29793,0 c 0,-0.64123 0.21295,-1.17643 0.69387,-1.657352 0.26719,-0.213743 0.53494,-0.426976 0.96244,-0.587284 0.37405,-0.160309 0.90848,-0.214222 1.54972,-0.214222 0.5878,0 1.01473,0.107351 1.38879,0.214222 0.37406,0.160308 0.69539,0.320246 0.90914,0.533989 0.32062,0.320615 0.48041,0.641679 0.58729,1.01573 0.0534,0.374051 0.10763,0.747363 0.10763,1.067978 l 0,1.015729 -4.22176,0.267517 c -0.90842,0.05343 -1.70998,0.26681 -2.35122,0.53399 -0.58781,0.320615 -1.12237,0.641537 -1.49642,1.069023 -0.37406,0.374051 -0.6412,0.854573 -0.80151,1.335495 -0.1603,0.480923 -0.21422,0.962349 -0.21422,1.389836 0,0.534358 0.10706,1.01536 0.32081,1.549718 0.21374,0.534358 0.53508,0.961304 0.90914,1.38879 0.42749,0.374051 0.90757,0.695256 1.49538,0.962435 0.5878,0.267179 1.2832,0.374106 2.08475,0.374106 1.01529,0 1.86944,-0.214137 2.67099,-0.641624 0.80155,-0.427487 1.38973,-0.961641 1.81723,-1.656307 l 0.0533,0 c 0,0.587794 0.16098,1.067892 0.53504,1.495379 0.32062,0.427487 0.80085,0.641624 1.44208,0.641624 0.32062,0 0.58776,1.39e-4 0.80151,-0.05329 0.26718,-0.05343 0.48103,-0.160646 0.74821,-0.267517 l -0.15988,0 0,-1.816191 -0.21423,0.05329 c -0.0534,0.05343 -0.15973,0.0533 -0.21318,0.0533 l -0.21422,0 c -0.21374,0 -0.37367,-0.107351 -0.53398,-0.214223 -0.1603,-0.160307 -0.21423,-0.373116 -0.21423,-0.747167 l 0,-6.679568 c 0,-0.801538 -0.16021,-1.496817 -0.4274,-2.138047 -0.32062,-0.801537 -0.85476,-1.442902 -1.6563,-1.9238242 -0.80155,-0.4809225 -1.87011,-0.7482117 -3.20603,-0.7482117 z m -44.8875,0.4284452 0,13.8398312 2.72533,0 0,-13.8398312 -2.72533,0 z m 21.10773,0 0,13.8398312 2.72533,0 0,-13.8398312 -2.72533,0 z m -215.776591,0.053295 0,9.0307924 c 0,1.603075 0.374067,2.831606 1.175612,3.740015 0.748117,0.90841 1.923741,1.335496 3.526837,1.335496 0.854987,0 1.656404,-0.159797 2.404521,-0.587284 0.801546,-0.427487 1.335547,-1.015698 1.709601,-1.817235 l 0.214222,2.084752 2.030412,0 0,-13.7865364 -2.297929,0 0,7.1602634 c 0,0.694666 -0.107205,1.389041 -0.267517,2.083707 -0.160307,0.694666 -0.480606,1.282115 -0.908098,1.709602 -0.320619,0.320615 -0.641666,0.534468 -1.015725,0.748212 -0.374053,0.160307 -0.801273,0.267517 -1.282203,0.267517 -1.12217,0 -1.870438,-0.267006 -2.29793,-0.854801 -0.427493,-0.534358 -0.640579,-1.389238 -0.640579,-2.404519 l 0,-8.7099814 -2.351224,0 z m 15.442841,0 0,13.7865364 2.35123,0 0,-13.7865364 -2.35123,0 z m 29.390314,0 0,13.7865364 2.351224,0 0,-13.7865364 -2.351224,0 z M 253.40291,11.114745 c 0.96186,0 1.76355,0.268051 2.29792,0.855845 0.5878,0.587794 0.85481,1.335323 0.85481,2.190297 0,0.854973 -0.26701,1.603546 -0.85481,2.191341 -0.5878,0.587794 -1.33606,0.908095 -2.29792,0.908095 -0.96186,0 -1.76357,-0.320301 -2.29793,-0.908095 -0.58781,-0.587794 -0.85481,-1.336368 -0.85481,-2.191341 0,-0.908409 0.267,-1.602503 0.85481,-2.190297 0.5878,-0.587794 1.33607,-0.855845 2.29793,-0.855845 z M 38.107009,11.222378 c 0.801551,0 1.389453,0.160079 1.923824,0.480694 0.480926,0.320615 0.908427,0.694549 1.175613,1.228907 0.26718,0.534359 0.48041,1.068372 0.587283,1.709602 0.106857,0.587795 0.160928,1.2293 0.160928,1.87053 0,0.64123 -0.05391,1.2293 -0.214223,1.87053 -0.106872,0.64123 -0.320098,1.175244 -0.587283,1.709601 -0.26718,0.534359 -0.641247,0.908292 -1.175612,1.228907 -0.534366,0.320615 -1.175708,0.48174 -1.923824,0.48174 -0.480927,0 -0.908143,-0.107209 -1.282202,-0.267517 -0.374058,-0.160308 -0.695394,-0.374444 -0.90914,-0.641623 -0.534366,-0.534358 -0.961866,-1.175722 -1.175612,-1.923824 -0.213746,-0.748102 -0.320812,-1.602841 -0.320812,-2.457814 0,-0.854973 0.107066,-1.709712 0.320812,-2.457813 0.213746,-0.748102 0.587813,-1.389467 1.175612,-1.923825 0.320619,-0.26718 0.588376,-0.481315 0.962434,-0.641623 0.32062,-0.160307 0.747836,-0.266472 1.282202,-0.266472 z m 43.818466,0 c 0.480931,0 0.908151,0.106165 1.282204,0.266472 0.374058,0.160308 0.694202,0.374443 0.961387,0.641623 0.534365,0.534358 0.961868,1.175723 1.175615,1.923825 0.213746,0.748101 0.320812,1.60284 0.320812,2.457813 0,0.854973 -0.107066,1.656276 -0.320812,2.457814 -0.213747,0.801537 -0.587816,1.389466 -1.175615,1.923824 -0.320619,0.267179 -0.587329,0.481315 -0.961387,0.641623 -0.320619,0.160308 -0.747839,0.267517 -1.282204,0.267517 -0.801551,0 -1.389457,-0.161125 -1.923823,-0.48174 -0.480926,-0.320615 -0.908424,-0.694548 -1.175609,-1.228907 -0.267186,-0.534357 -0.481456,-1.068371 -0.588329,-1.709601 -0.106857,-0.587794 -0.159884,-1.2293 -0.159884,-1.87053 0,-0.587794 0.05302,-1.2293 0.159884,-1.87053 0.106873,-0.64123 0.321143,-1.175243 0.588329,-1.709602 0.267185,-0.534358 0.641244,-0.908292 1.175609,-1.228907 0.534366,-0.320615 1.175711,-0.480694 1.923823,-0.480694 z m 150.583925,0 c 0.48093,0 0.90814,0.106165 1.2822,0.266472 0.37405,0.160308 0.69525,0.374443 0.96244,0.641623 0.5878,0.480922 1.01516,1.122287 1.2289,1.923825 0.21375,0.748101 0.32082,1.60284 0.32082,2.457813 0,0.854973 -0.10707,1.710474 -0.32082,2.565447 -0.26718,0.748102 -0.6411,1.388421 -1.2289,1.922779 -0.26719,0.267179 -0.58839,0.481316 -0.96244,0.641624 -0.32062,0.160307 -0.74783,0.267517 -1.2822,0.267517 -0.74811,0 -1.38946,-0.16008 -1.92382,-0.480695 -0.53437,-0.320615 -0.96173,-0.695594 -1.22891,-1.229952 -0.32062,-0.534358 -0.53475,-1.068371 -0.64162,-1.709601 -0.10686,-0.64123 -0.15989,-1.282595 -0.15989,-1.923825 0,-0.64123 0.053,-1.282594 0.15989,-1.923824 0.16031,-0.64123 0.37443,-1.175243 0.64162,-1.709602 0.32062,-0.534358 0.69454,-0.908292 1.22891,-1.228907 0.53436,-0.320615 1.17571,-0.480694 1.92382,-0.480694 z m -107.88882,0.159883 c 0.48093,0 0.855,0.10721 1.17562,0.267517 0.32062,0.160308 0.53446,0.427739 0.74821,0.694918 0.21375,0.320615 0.32052,0.640633 0.4274,1.014684 0.0534,0.374051 0.10763,0.801561 0.10763,1.175612 0,0.427487 -0.0542,0.90815 -0.10763,1.282201 -0.0534,0.480923 -0.21365,0.854857 -0.4274,1.228907 -0.21375,0.374051 -0.53418,0.695397 -0.8548,0.90914 -0.32062,0.213743 -0.80113,0.320812 -1.3355,0.320812 -0.4275,0 -0.8017,-0.05377 -1.12232,-0.267517 -0.26718,-0.213743 -0.53461,-0.427597 -0.69492,-0.748212 -0.16031,-0.267179 -0.32065,-0.641678 -0.3741,-1.015729 -0.0534,-0.37405 -0.10659,-0.747222 -0.10659,-1.121273 0,-0.427487 -2.9e-4,-0.855759 0.10659,-1.283246 0.0535,-0.427487 0.21365,-0.801562 0.4274,-1.175613 0.21375,-0.37405 0.48089,-0.694351 0.80151,-0.908095 0.32062,-0.267179 0.74797,-0.374106 1.2289,-0.374106 z m 57.01772,0.641623 c 2.08403,0 3.74002,1.816522 3.74002,4.060826 0,2.297741 -1.65599,4.114121 -3.74002,4.114121 -1.17561,0 -2.24445,-0.320583 -3.09943,-0.801506 l 0,-5.55725 c 0.69467,-1.068717 1.81695,-1.816191 3.09943,-1.816191 z m 29.17609,0.05329 c 2.13747,0 3.84765,1.816522 3.84765,4.060827 0,2.244304 -1.71018,4.060826 -3.84765,4.060826 -2.13747,0 -3.84765,-1.816522 -3.84765,-4.060826 0,-2.244305 1.71018,-4.060827 3.84765,-4.060827 z m 79.30002,4.649155 0,0.801506 c 0,0.587795 -0.10721,1.175244 -0.26752,1.709602 -0.21375,0.534358 -0.4806,1.015642 -0.9081,1.443129 -0.37405,0.374051 -0.80127,0.694494 -1.2822,0.854801 -0.48093,0.160308 -1.01535,0.267517 -1.54972,0.267517 -0.96186,1e-6 -1.65725,-0.267289 -2.08475,-0.748211 -0.42749,-0.480923 -0.64058,-1.016122 -0.64058,-1.657352 0,-0.427487 0.10616,-0.800658 0.26648,-1.121273 0.16031,-0.320615 0.42773,-0.534469 0.69491,-0.748213 0.26719,-0.160307 0.58838,-0.320528 0.96244,-0.4274 0.37405,-0.106874 0.74736,-0.160928 1.06798,-0.160928 l 3.74106,-0.213178 z m -38.79521,6.571934 3.20603,0 c 0.42749,0 0.8547,-1.39e-4 1.28219,0.05329 0.4275,0.05343 0.80156,0.10721 1.17562,0.267517 0.32062,0.106872 0.6421,0.374443 0.85584,0.641623 0.21375,0.320615 0.31977,0.694549 0.31977,1.228907 0,0.534357 -0.15993,1.014881 -0.53399,1.335495 -0.21374,0.213747 -0.48088,0.428161 -0.80151,0.535035 -0.26718,0.160307 -0.64077,0.266317 -0.96139,0.319767 -0.32062,0.106857 -0.6951,0.160928 -1.01572,0.160928 -0.37406,0.05345 -0.69421,0.05329 -0.9614,0.05329 -0.32061,0 -0.64181,-0.05329 -0.96243,-0.05329 -0.37406,0 -0.69511,-0.05314 -1.01573,-0.106589 -0.32062,-0.05344 -0.64077,-0.160644 -0.96139,-0.267517 -0.32062,-0.160307 -0.58776,-0.321288 -0.80151,-0.535035 -0.37405,-0.374047 -0.58728,-0.854293 -0.58728,-1.442084 0,-0.534359 0.21338,-1.015785 0.53399,-1.389835 0.32062,-0.374051 0.74798,-0.641199 1.22891,-0.801507 z" />
  <path
     id="path4668-9"
     d="M 11.129018,7.6852779 C 9.8644593,6.4207292 8.3827248,5.7976776 6.6840607,5.8165408 5.06494,5.8436509 3.6065277,6.4753092 2.3081815,7.7076102 L 4.6898008,10.089216 C 5.2990871,9.5476266 5.9730376,9.2453237 6.7124282,9.1858338 c 0.8210154,-0.065974 1.5571369,0.226244 2.2082949,0.8773912 0.5850814,0.585098 0.9058344,1.292758 0.9624678,2.123209 0.066029,0.82101 -0.070999,1.826235 -0.4107244,3.015293 l -0.665192,3.10013 c -0.7266514,3.029263 -0.2261536,5.407361 1.5008195,7.134335 1.236234,1.236246 2.712704,1.816603 4.430244,1.741115 1.717535,-0.07545 3.218247,-0.754944 4.501671,-2.038397 1.358933,-1.358917 2.06658,-2.859362 2.123208,-4.501403 0.07551,-1.642037 -0.537811,-3.114024 -1.840106,-4.416318 -1.670366,-1.670363 -3.413277,-2.344221 -6.395365,-1.702515 l -0.60873,3.100395 c 1.255115,-0.311421 1.705277,-0.270359 2.51686,-0.194868 0.830458,0.07545 1.500423,0.368049 2.010022,0.877656 0.632276,0.632265 0.938824,1.363664 0.919927,2.194112 -0.01894,0.830453 -0.367836,1.585279 -1.047298,2.264751 -0.679461,0.679467 -1.434555,1.038154 -2.265014,1.075917 -0.830448,0.03772 -1.561577,-0.259551 -2.193849,-0.891838 -0.556783,-0.556773 -0.873052,-1.259963 -0.948551,-2.109276 -0.06603,-0.839892 0.07547,-1.859087 0.42464,-3.057587 l 0.608736,-3.099845 c 0.726646,-2.991539 0.254869,-5.32247 -1.415471,-6.9928131 z"
     style="font-style:normal;font-variant:normal;font-weight:600;font-stretch:normal;font-size:medium;line-height:43.50423813px;font-family:'Open Sans';-inkscape-font-specification:'Open Sans Semi-Bold';text-align:center;letter-spacing:0px;word-spacing:0px;writing-mode:lr-tb;text-anchor:middle;fill:#ff7913;fill-opacity:1;stroke:none;stroke-width:0.50885838;stroke-linecap:butt;stroke-linejoin:miter;stroke-miterlimit:4;stroke-dasharray:none;stroke-opacity:1" />
  <path
     id="path4672-7"
     d="M 1.8688381,8.6284341 C 0.66978357,9.9306335 0.04638842,11.359377 0.00245676,12.915556 c -0.04719002,1.670343 0.58533816,3.161553 1.89710304,4.473308 1.5476454,1.547647 3.2897168,2.009953 6.3472984,1.387112 l 0.6652027,-3.10013 C 7.6569348,16.025013 7.1747245,16.162078 6.3442444,16.086569 5.5326777,16.011117 4.8627024,15.709041 4.3342224,15.180571 3.683075,14.529424 3.3762971,13.797762 3.414033,12.986193 3.4469911,12.276921 3.7273116,11.618627 4.2507142,11.010305 L 1.8688381,8.6284341 Z"/>
</svg>
